<svg width="48" height="40" viewBox="0 0 48 40" fill="none" xmlns="http://www.w3.org/2000/svg">
<path d="M46.9725 5.73043H8.91472C8.84062 5.73043 8.77388 5.7562 8.70378 5.77042L7.15582 1.0137C7.13837 0.962305 7.10124 0.924239 7.07659 0.876694C7.03434 0.38747 6.6035 0 6.06446 0C6.0635 0 6.06142 0 6.0603 0L1.02446 0.0198474C0.455658 0.0228097 -0.00207353 0.451159 7.06489e-06 0.976524C0.00208766 1.501 0.461899 1.92461 1.02862 1.92461C1.02958 1.92461 1.03166 1.92461 1.03278 1.92461L5.29833 1.90743L15.145 32.1506C14.1668 32.9779 13.5424 34.1563 13.5424 35.4785C13.5424 37.9754 15.7292 40 18.4282 40C21.1262 40 23.3139 37.9753 23.3139 35.4785C23.3139 34.8274 23.1596 34.2124 22.8922 33.6537H37.1073C36.8398 34.2125 36.6856 34.8274 36.6856 35.4785C36.6856 37.9754 38.8723 40 41.5713 40C44.2693 40 46.457 37.9753 46.457 35.4785C46.457 32.9817 44.2692 30.957 41.5713 30.957C40.5468 30.957 39.5974 31.2511 38.8116 31.75H21.1869C20.4011 31.2511 19.4526 30.957 18.4282 30.957C17.9191 30.957 17.4376 31.0492 16.9758 31.1826L15.5068 26.6724L41.4212 26.6533C41.8747 26.6533 42.2481 26.3764 42.384 25.9984C42.419 25.9384 42.457 25.8803 42.4776 25.8117L47.963 7.09146C47.9981 6.97252 48.0021 6.85344 47.9877 6.73835C47.9886 6.71836 48 6.70221 48 6.68311C48.0011 6.15685 47.5403 5.73043 46.9725 5.73043ZM41.5724 32.86C43.1327 32.86 44.401 34.0336 44.401 35.4777C44.401 36.9217 43.1328 38.0955 41.5724 38.0955C40.0119 38.0955 38.7437 36.9219 38.7437 35.4777C38.7439 34.0336 40.0121 32.86 41.5724 32.86ZM18.4293 32.86C19.9897 32.86 21.2579 34.0336 21.2579 35.4777C21.2579 36.9217 19.9897 38.0955 18.4293 38.0955C16.8688 38.0955 15.6006 36.9219 15.6006 35.4777C15.6006 34.0336 16.8688 32.86 18.4293 32.86ZM40.6581 24.7505L14.8889 24.7696L9.31083 7.63519H45.6734L40.6581 24.7505Z" fill="white"/>
</svg>
