<svg
    width="60"
    height="49"
    viewBox="0 0 60 49"
    fill="none"
    xmlns="http://www.w3.org/2000/svg"
>
    <path
        d="M57.7584 7.37652H11.772C11.6824 7.37652 11.6018 7.40744 11.5171 7.42451L9.64661 1.71644C9.62553 1.65477 9.58067 1.60909 9.55089 1.55203C9.49983 0.964963 8.97923 0.5 8.32789 0.5C8.32673 0.5 8.32422 0.5 8.32287 0.5L2.23789 0.523817C1.55059 0.527372 0.997494 1.04139 1.00001 1.67183C1.00252 2.3012 1.55813 2.80953 2.24292 2.80953C2.24408 2.80953 2.24659 2.80953 2.24795 2.80953L7.40214 2.78891L19.3002 39.0808C18.1182 40.0734 17.3638 41.4875 17.3638 43.0742C17.3638 46.0705 20.0061 48.5 23.2674 48.5C26.5275 48.5 29.1709 46.0703 29.1709 43.0742C29.1709 42.2928 28.9845 41.5549 28.6614 40.8844H45.838C45.5148 41.5551 45.3284 42.2928 45.3284 43.0742C45.3284 46.0705 47.9706 48.5 51.232 48.5C54.4921 48.5 57.1355 46.0703 57.1355 43.0742C57.1355 40.078 54.4919 37.6484 51.232 37.6484C49.9941 37.6484 48.8469 38.0014 47.8974 38.6H26.6008C25.6513 38.0014 24.5052 37.6484 23.2674 37.6484C22.6522 37.6484 22.0705 37.7591 21.5124 37.9191L19.7374 32.5069L51.0506 32.484C51.5986 32.484 52.0498 32.1516 52.214 31.698C52.2563 31.6261 52.3022 31.5564 52.3271 31.4741L58.9553 9.00975C58.9977 8.86703 59.0025 8.72413 58.9851 8.58603C58.9863 8.56203 59 8.54266 59 8.51973C59.0013 7.88823 58.4446 7.37652 57.7584 7.37652ZM51.2333 39.9319C53.1187 39.9319 54.6513 41.3403 54.6513 43.0733C54.6513 44.8061 53.1188 46.2146 51.2333 46.2146C49.3478 46.2146 47.8154 44.8062 47.8154 43.0733C47.8156 41.3403 49.348 39.9319 51.2333 39.9319ZM23.2687 39.9319C25.1543 39.9319 26.6867 41.3403 26.6867 43.0733C26.6867 44.8061 25.1543 46.2146 23.2687 46.2146C21.3832 46.2146 19.8508 44.8062 19.8508 43.0733C19.8508 41.3403 21.3832 39.9319 23.2687 39.9319ZM50.1285 30.2006L18.9908 30.2235L12.2506 9.66223H56.1887L50.1285 30.2006Z"
        fill="#353535"
        stroke="white"
        stroke-width="0.4"
    />
</svg>