<svg width="36" height="32" viewBox="0 0 36 32" fill="none" xmlns="http://www.w3.org/2000/svg">
<path d="M31.9967 4.29913C31.188 3.49005 30.2278 2.84823 29.171 2.41034C28.1142 1.97245 26.9815 1.74707 25.8375 1.74707C24.6936 1.74707 23.5609 1.97245 22.504 2.41034C21.4472 2.84823 20.4871 3.49005 19.6784 4.29913L18 5.97746L16.3217 4.29913C14.6882 2.66562 12.4727 1.74792 10.1625 1.74792C7.85239 1.74792 5.63687 2.66562 4.00336 4.29913C2.36985 5.93264 1.45215 8.14816 1.45215 10.4583C1.45215 12.7684 2.36985 14.9839 4.00336 16.6175L5.68169 18.2958L18 30.6141L30.3184 18.2958L31.9967 16.6175C32.8058 15.8088 33.4476 14.8486 33.8855 13.7918C34.3234 12.735 34.5488 11.6022 34.5488 10.4583C34.5488 9.31436 34.3234 8.18163 33.8855 7.12482C33.4476 6.068 32.8058 5.10782 31.9967 4.29913V4.29913Z" stroke="#323232" stroke-width="2" stroke-linecap="round" stroke-linejoin="round"/>
</svg>
