<svg width="227" height="65" viewBox="0 0 227 65" fill="none" xmlns="http://www.w3.org/2000/svg">
<rect x="8.65186" y="20.5205" width="27.6937" height="8.57187" fill="#323232"/>
<path d="M12.2297 24.5832C12.2291 24.582 12.2286 24.5807 12.2281 24.5795L12.2286 24.5807L12.2296 24.5831L12.2297 24.5832ZM12.9675 26.5275L12.2513 24.6395C12.2514 24.633 12.2521 24.6236 12.2545 24.6117L12.2546 24.6111C12.2589 24.5891 12.2956 24.4043 12.6814 24.1547C12.6916 24.1481 12.7016 24.1413 12.7115 24.1343C13.077 23.8763 13.6609 23.6949 14.665 23.6079C15.6605 23.5216 16.9358 23.5362 18.6046 23.5696L18.6226 23.5698H21.0752C23.5283 23.5698 25.9795 23.7172 27.9484 23.945C28.9337 24.059 29.7864 24.1918 30.4522 24.3332C31.1534 24.4821 31.5456 24.6208 31.6889 24.7051L31.6918 24.7067C31.7944 24.7666 31.8307 24.8123 31.84 24.8254C31.8454 24.8329 31.8469 24.8367 31.8469 24.8369C31.8469 24.8369 31.8469 24.8369 31.8469 24.8369C31.847 24.8372 31.847 24.8378 31.847 24.8386C31.8438 24.8462 31.8407 24.8539 31.8377 24.8616L31.2411 26.3862C31.1132 26.7132 31.1872 27.0847 31.4306 27.3376C31.6741 27.5906 32.0425 27.6788 32.3742 27.5634L33.8224 27.0597C33.8749 27.049 33.916 27.0372 33.9394 27.0303C34.0153 27.0083 34.0962 26.9794 34.1794 26.9465C34.3471 26.8802 34.5623 26.7823 34.8311 26.6457C35.3688 26.3724 36.1549 25.927 37.2606 25.2236C40.0287 23.534 41.8605 21.4461 41.8605 19.2234C41.8605 18.3205 41.4973 17.4681 40.8209 16.8864C40.0914 16.25 39.1177 15.9852 38.2276 15.8852C37.4399 15.7968 36.6285 15.8278 35.9215 15.9064C35.95 14.7492 35.9796 13.2341 35.9858 11.7782C35.99 10.8081 35.9838 9.85816 35.9596 9.05527C35.9362 8.28233 35.895 7.58867 35.817 7.1479C35.4763 4.82391 33.3848 3.04105 30.8154 2.32093C30.4226 2.19353 29.8916 2.10932 29.3275 2.04744C28.7346 1.98241 28.0406 1.93574 27.3057 1.90215C25.8351 1.83492 24.1618 1.81834 22.7323 1.81834C22.0921 1.81834 20.7182 1.8351 19.333 1.90226C18.0013 1.96684 16.5159 2.08258 15.7243 2.31683C14.5989 2.62433 13.4177 3.03965 12.3858 3.78757C11.3317 4.55156 10.4736 5.63267 9.95014 7.19816C9.72848 7.82724 9.61088 8.65033 9.5475 9.50926C9.48261 10.3885 9.47036 11.373 9.48719 12.3532C9.51127 13.7558 9.59545 15.1761 9.67797 16.3096C7.83909 15.9708 6.57997 15.9406 6.18188 15.9379C5.89899 15.892 5.52436 15.8984 5.14279 15.9694C4.67726 16.056 4.11177 16.2546 3.60258 16.6712C3.58954 16.6819 3.5768 16.6929 3.56437 16.7043C2.79791 17.4069 2.47728 18.3859 2.47728 19.4886C2.47728 20.4109 2.96409 21.2627 3.53291 21.9633C4.11818 22.6842 4.89375 23.3711 5.68765 23.9804C7.2718 25.1964 9.05413 26.1983 9.9107 26.6444L11.6897 27.6328C12.0198 27.8161 12.4293 27.7738 12.7149 27.5268C13.0005 27.2797 13.1014 26.8806 12.9675 26.5275Z" fill="#323232" stroke="#323232" stroke-width="1.79886" stroke-linejoin="round"/>
<path fill-rule="evenodd" clip-rule="evenodd" d="M40.9683 19.4068C40.9683 21.1495 39.5177 23.0261 36.8143 24.7017C34.6383 26.1092 33.7811 26.4444 33.6493 26.4444L32.1327 26.9806L32.7261 25.439C32.7921 25.305 32.9899 24.6347 32.1986 24.1655C31.0777 23.4953 26.1324 22.8921 21.1871 22.8921C20.3079 22.8921 19.4947 22.8921 18.7474 22.8921C15.4505 22.825 13.4724 22.8251 12.3515 23.6294C11.2305 24.3666 11.5602 25.1709 11.5602 25.1709L12.2855 27.1146L10.5052 26.1093C8.85678 25.2379 3.58179 22.1548 3.58179 19.6749C3.58179 18.7366 3.84553 18.0216 4.37303 17.5301C5.09835 16.9269 6.02147 16.9269 6.28522 16.9939C6.54897 16.9939 8.26335 16.994 10.8349 17.5972C10.6371 15.1843 10.2415 9.62128 10.9668 7.54353C11.8899 4.72851 13.934 3.79017 16.1099 3.18695C17.4287 2.78481 21.5827 2.71777 22.8355 2.71777C25.6708 2.71777 29.4293 2.78481 30.6161 3.18695C32.9899 3.85719 34.7043 5.46579 34.968 7.34247C35.2318 8.817 35.0999 14.7151 35.034 17.061C35.3417 17.0163 35.5834 16.9939 35.7593 16.9939C37.2099 16.7929 39.188 16.7929 40.243 17.7312C40.7046 18.1334 40.9683 18.7366 40.9683 19.4068ZM33.5174 17.3291C33.5174 16.9269 33.5394 16.4801 33.5833 15.9886C31.6052 16.6588 27.0555 17.8652 20.6596 17.8652C16.3077 17.8652 13.6702 16.9939 12.2196 16.3237C12.2636 16.9493 12.3075 17.4855 12.3515 17.9323C15.3846 18.7366 18.2199 19.4068 21.9783 19.2057C24.6158 19.0047 28.9018 18.2004 32.0008 17.5972C32.5283 17.5078 33.0338 17.4184 33.5174 17.3291ZM12.1537 14.514C12.879 14.9832 15.3846 16.3907 20.6596 16.3907C27.5171 16.3907 32.1986 14.8492 33.5833 14.38C33.6493 11.632 33.6493 8.48185 33.5174 7.61054C33.3196 6.33708 32.0008 5.13064 30.2205 4.59445C29.4293 4.39337 26.2643 4.1923 22.8355 4.25932C19.8024 4.25932 17.2308 4.39337 16.5055 4.59445C14.4615 5.19766 13.0108 6.00198 12.3515 8.01271C11.9558 9.15212 12.0218 11.9671 12.1537 14.514ZM39.4518 19.4068C39.4518 19.1387 39.3858 19.0047 39.2539 18.8706C38.7924 18.4014 37.5396 18.2674 35.9571 18.4685C35.2318 18.5355 33.8471 18.8036 32.2646 19.1387C29.0996 19.6749 24.8136 20.4792 22.0443 20.6803C18.0221 20.9484 15.0549 20.2111 11.9558 19.4068L11.4943 19.2728C8.32928 18.4685 6.21929 18.4685 6.21929 18.4685H6.08741C6.08741 18.4685 5.62585 18.4014 5.3621 18.6695C5.1423 18.8483 5.03241 19.1834 5.03241 19.6749C5.03241 20.6132 7.53803 22.624 10.1096 24.1655C10.3074 23.5623 10.703 22.8921 11.4943 22.3559C12.7471 21.4846 14.4615 21.3505 16.9671 21.3505C17.5385 21.3505 18.132 21.3505 18.7474 21.3505C19.4947 21.3952 20.3079 21.4176 21.1871 21.4176C25.8686 21.4176 31.4074 21.8867 32.9899 22.8921C33.7152 23.3612 34.1108 23.9645 34.2427 24.5007C34.6383 24.2996 35.2318 23.8975 36.023 23.4283C38.2649 22.0208 39.4518 20.6133 39.4518 19.4068Z" fill="#EEEC0B"/>
<mask id="path-4-outside-1_631_6931" maskUnits="userSpaceOnUse" x="0.717529" y="25.1123" width="43" height="40" fill="black">
<rect fill="white" x="0.717529" y="25.1123" width="43" height="40"/>
<path d="M40.9613 31.5301V29.7498L39.7087 31.0026C39.1153 31.5961 37.2694 33.1786 35.6872 33.5082C34.3028 33.8379 33.1161 33.7061 32.1273 33.4423C32.5887 33.2445 33.1161 33.0467 33.5776 32.717C34.5006 32.1236 34.8961 30.6729 34.962 30.3433L35.3576 28.8926L33.9072 29.4861C33.0502 29.8817 31.4021 30.5411 30.6769 30.5411C30.4132 30.5411 29.7539 30.2773 29.1606 30.0795L29.1605 30.0795C27.7761 29.6179 25.9962 29.0245 24.7436 29.4861C23.2933 29.9476 22.3044 31.1345 21.8429 31.662C21.3814 30.7389 20.2607 29.3542 17.6896 29.1564C15.4481 28.9586 14.1296 29.4861 13.2067 29.8817C12.6793 30.0795 12.2837 30.2773 11.9541 30.2773C10.9652 30.2773 10.3719 29.4861 10.3719 29.4861L9.31127 28.7607L9.05339 29.7498C8.98746 29.8158 8.65784 31.5961 10.1082 32.6511C10.24 32.739 10.3499 32.8269 10.4378 32.9148C9.77857 33.1126 9.05339 33.2445 8.39413 33.2445C6.87785 33.2445 6.61416 33.1127 5.82305 32.717L5.49342 32.5192C4.83417 32.1895 4.30677 31.1345 4.24084 30.7389L3.04722 27.1123L2.72456 30.9367C2.72456 31.0686 2.46086 34.6292 5.1638 37.003C6.61416 38.2558 8.19636 39.1129 10.0423 39.5745C9.77857 40.102 9.64672 40.8273 9.64672 41.8164C9.64672 43.7286 10.6356 44.9814 11.4267 45.9045C11.6904 46.3001 11.9541 46.6298 12.086 46.8936C12.6134 47.9486 12.6134 48.9376 12.6134 48.9376V51.1795L14.657 48.542C14.9207 49.9926 15.5141 52.0367 16.8985 54.1467C18.6126 56.7183 22.3703 59.092 22.5022 59.1579L24.3481 60.2789L23.6229 58.2348C23.557 58.1029 22.1066 54.1467 25.6666 51.9707C27.2488 51.0476 28.3695 49.6629 29.0947 48.4761L29.6221 52.1026L30.6769 50.5861C31.0065 50.1245 33.7754 46.1683 33.7754 43.5967C33.7754 42.0142 33.3798 40.9592 32.9843 40.2339C36.4783 39.3767 38.4561 38.1239 39.7746 35.7501C40.9613 33.6401 40.9613 31.5961 40.9613 31.5301Z"/>
</mask>
<path d="M40.9613 31.5301V29.7498L39.7087 31.0026C39.1153 31.5961 37.2694 33.1786 35.6872 33.5082C34.3028 33.8379 33.1161 33.7061 32.1273 33.4423C32.5887 33.2445 33.1161 33.0467 33.5776 32.717C34.5006 32.1236 34.8961 30.6729 34.962 30.3433L35.3576 28.8926L33.9072 29.4861C33.0502 29.8817 31.4021 30.5411 30.6769 30.5411C30.4132 30.5411 29.7539 30.2773 29.1606 30.0795L29.1605 30.0795C27.7761 29.6179 25.9962 29.0245 24.7436 29.4861C23.2933 29.9476 22.3044 31.1345 21.8429 31.662C21.3814 30.7389 20.2607 29.3542 17.6896 29.1564C15.4481 28.9586 14.1296 29.4861 13.2067 29.8817C12.6793 30.0795 12.2837 30.2773 11.9541 30.2773C10.9652 30.2773 10.3719 29.4861 10.3719 29.4861L9.31127 28.7607L9.05339 29.7498C8.98746 29.8158 8.65784 31.5961 10.1082 32.6511C10.24 32.739 10.3499 32.8269 10.4378 32.9148C9.77857 33.1126 9.05339 33.2445 8.39413 33.2445C6.87785 33.2445 6.61416 33.1127 5.82305 32.717L5.49342 32.5192C4.83417 32.1895 4.30677 31.1345 4.24084 30.7389L3.04722 27.1123L2.72456 30.9367C2.72456 31.0686 2.46086 34.6292 5.1638 37.003C6.61416 38.2558 8.19636 39.1129 10.0423 39.5745C9.77857 40.102 9.64672 40.8273 9.64672 41.8164C9.64672 43.7286 10.6356 44.9814 11.4267 45.9045C11.6904 46.3001 11.9541 46.6298 12.086 46.8936C12.6134 47.9486 12.6134 48.9376 12.6134 48.9376V51.1795L14.657 48.542C14.9207 49.9926 15.5141 52.0367 16.8985 54.1467C18.6126 56.7183 22.3703 59.092 22.5022 59.1579L24.3481 60.2789L23.6229 58.2348C23.557 58.1029 22.1066 54.1467 25.6666 51.9707C27.2488 51.0476 28.3695 49.6629 29.0947 48.4761L29.6221 52.1026L30.6769 50.5861C31.0065 50.1245 33.7754 46.1683 33.7754 43.5967C33.7754 42.0142 33.3798 40.9592 32.9843 40.2339C36.4783 39.3767 38.4561 38.1239 39.7746 35.7501C40.9613 33.6401 40.9613 31.5961 40.9613 31.5301Z" fill="#323232"/>
<path d="M40.9613 29.7498H42.7601C42.7601 29.0222 42.3218 28.3663 41.6496 28.0879C40.9774 27.8095 40.2036 27.9634 39.6892 28.478L40.9613 29.7498ZM39.7746 35.7501L38.2067 34.8683L38.202 34.8767L39.7746 35.7501ZM32.9843 40.2339L32.5557 38.4868L30.2862 39.0436L31.405 41.0951L32.9843 40.2339ZM30.6769 50.5861L29.213 49.5406L29.2065 49.5497L29.2001 49.5589L30.6769 50.5861ZM29.6221 52.1026L27.842 52.3615L28.4976 56.8698L31.0989 53.1298L29.6221 52.1026ZM29.0947 48.4761L30.8748 48.2172L30.1577 43.2861L27.5597 47.5382L29.0947 48.4761ZM25.6666 51.9707L24.7601 50.417L24.7441 50.4263L24.7284 50.4359L25.6666 51.9707ZM23.6229 58.2348L25.3182 57.6333L25.2813 57.5292L25.2319 57.4304L23.6229 58.2348ZM24.3481 60.2789L23.4144 61.8164L27.7325 64.4387L26.0434 59.6774L24.3481 60.2789ZM22.5022 59.1579L23.4359 57.6204L23.3728 57.582L23.3067 57.549L22.5022 59.1579ZM16.8985 54.1467L15.3945 55.1336L15.4017 55.1444L16.8985 54.1467ZM14.657 48.542L16.4269 48.2203L15.7055 44.252L13.2351 47.4402L14.657 48.542ZM12.6134 51.1795H10.8145V56.438L14.0353 52.2813L12.6134 51.1795ZM12.6134 48.9376L10.8145 48.9376V48.9376H12.6134ZM12.086 46.8936L13.695 46.0892L13.695 46.0892L12.086 46.8936ZM11.4267 45.9045L12.9235 44.9068L12.8633 44.8164L12.7926 44.734L11.4267 45.9045ZM10.0423 39.5745L11.6513 40.3789L12.6539 38.3733L10.4786 37.8294L10.0423 39.5745ZM5.1638 37.003L3.97679 38.3546L3.98233 38.3595L3.98791 38.3643L5.1638 37.003ZM2.72456 30.9367L0.932069 30.7855L0.925701 30.861V30.9367H2.72456ZM3.04722 27.1123L4.7559 26.5499C4.4886 25.7378 3.68658 25.226 2.83741 25.3257C1.98825 25.4254 1.32661 26.1091 1.25473 26.9611L3.04722 27.1123ZM4.24084 30.7389L6.01523 30.4432L5.99259 30.3074L5.94953 30.1765L4.24084 30.7389ZM5.49342 32.5192L6.41917 30.9768L6.35987 30.9412L6.29802 30.9103L5.49342 32.5192ZM5.82305 32.717L4.89731 34.2594L4.95661 34.295L5.01846 34.3259L5.82305 32.717ZM10.4378 32.9148L10.9548 34.6378L13.839 33.7724L11.7099 31.643L10.4378 32.9148ZM10.1082 32.6511L9.05003 34.1058L9.07971 34.1274L9.11025 34.1477L10.1082 32.6511ZM9.05339 29.7498L10.3255 31.0217L10.6708 30.6763L10.7941 30.2037L9.05339 29.7498ZM9.31127 28.7607L10.3267 27.2759L8.21581 25.8323L7.57061 28.3069L9.31127 28.7607ZM10.3719 29.4861L11.8111 28.4069L11.6327 28.1691L11.3873 28.0012L10.3719 29.4861ZM13.2067 29.8817L13.8384 31.566L13.8773 31.5514L13.9154 31.535L13.2067 29.8817ZM17.6896 29.1564L17.5315 30.9483L17.5415 30.9492L17.5516 30.9499L17.6896 29.1564ZM21.8429 31.662L20.2339 32.4664L21.4322 34.8635L23.1968 32.8464L21.8429 31.662ZM24.7436 29.4861L25.2891 31.2002L25.3277 31.188L25.3656 31.174L24.7436 29.4861ZM29.1605 30.0795L29.7385 28.376L29.7295 28.373L29.1605 30.0795ZM29.1606 30.0795L28.5826 31.783L28.5917 31.786L29.1606 30.0795ZM33.9072 29.4861L33.226 27.8212L33.1893 27.8362L33.1533 27.8528L33.9072 29.4861ZM35.3576 28.8926L37.0931 29.3659L38.0528 25.8462L34.6764 27.2277L35.3576 28.8926ZM34.962 30.3433L33.2266 29.87L33.2103 29.9298L33.1981 29.9905L34.962 30.3433ZM33.5776 32.717L32.6047 31.204L32.5677 31.2277L32.5319 31.2533L33.5776 32.717ZM32.1273 33.4423L31.4185 31.789L26.6353 33.8393L31.6637 35.1804L32.1273 33.4423ZM35.6872 33.5082L35.3203 31.7472L35.2953 31.7524L35.2705 31.7583L35.6872 33.5082ZM39.7087 31.0026L38.4366 29.7307L38.4366 29.7308L39.7087 31.0026ZM39.1624 29.7498V31.5301H42.7601V29.7498H39.1624ZM39.1624 31.5301C39.1624 31.5307 39.1624 31.5305 39.1624 31.5309C39.1624 31.5317 39.1624 31.534 39.1623 31.5379C39.1622 31.5457 39.1619 31.5602 39.1612 31.581C39.1597 31.6227 39.1565 31.6897 39.1495 31.7784C39.1354 31.9566 39.106 32.2192 39.0455 32.5388C38.9233 33.1836 38.6807 34.0255 38.2067 34.8683L41.3425 36.6319C42.7533 34.1234 42.7601 31.7117 42.7601 31.5301H39.1624ZM38.202 34.8767C37.2114 36.6601 35.7638 37.6998 32.5557 38.4868L33.4129 41.9809C37.1929 41.0536 39.7008 39.5876 41.3471 36.6236L38.202 34.8767ZM31.405 41.0951C31.672 41.5847 31.9765 42.346 31.9765 43.5967H35.5742C35.5742 41.6824 35.0877 40.3337 34.5636 39.3726L31.405 41.0951ZM31.9765 43.5967C31.9765 44.3918 31.4937 45.6721 30.7643 47.0328C30.0824 48.305 29.3568 49.3393 29.213 49.5406L32.1408 51.6315C32.3266 51.3713 33.1503 50.1967 33.9352 48.7325C34.6727 47.3567 35.5742 45.3732 35.5742 43.5967H31.9765ZM29.2001 49.5589L28.1453 51.0755L31.0989 53.1298L32.1537 51.6132L29.2001 49.5589ZM31.4022 51.8437L30.8748 48.2172L27.3146 48.7349L27.842 52.3615L31.4022 51.8437ZM27.5597 47.5382C26.9263 48.5748 25.9971 49.6952 24.7601 50.417L26.5731 53.5245C28.5004 52.4 29.8127 50.751 30.6297 49.4139L27.5597 47.5382ZM24.7284 50.4359C22.3388 51.8965 21.5896 54.0356 21.4892 55.765C21.4406 56.6023 21.5403 57.3419 21.6539 57.8788C21.7562 58.3621 21.8973 58.806 22.0139 59.0391L25.2319 57.4304C25.3155 57.5976 25.2506 57.4976 25.1737 57.1339C25.1081 56.824 25.0553 56.4138 25.0809 55.9735C25.1288 55.1479 25.4343 54.2209 26.6047 53.5056L24.7284 50.4359ZM21.9276 58.8362L22.6527 60.8803L26.0434 59.6774L25.3182 57.6333L21.9276 58.8362ZM25.2818 58.7413L23.4359 57.6204L21.5685 60.6955L23.4144 61.8164L25.2818 58.7413ZM23.3067 57.549C23.3976 57.5945 23.4211 57.6152 23.2659 57.5155C23.1624 57.4491 23.0126 57.3506 22.8276 57.224C22.4571 56.9706 21.9552 56.6115 21.4078 56.1796C20.2793 55.2894 19.0919 54.1941 18.3953 53.149L15.4017 55.1444C16.4191 56.6708 17.9677 58.0482 19.1795 59.0042C19.8023 59.4955 20.3716 59.9029 20.7964 60.1934C21.009 60.3389 21.1878 60.4567 21.3218 60.5428C21.404 60.5955 21.5737 60.7049 21.6976 60.7668L23.3067 57.549ZM18.4025 53.1599C17.1823 51.3001 16.6592 49.4984 16.4269 48.2203L12.8872 48.8637C13.1823 50.4869 13.8459 52.7733 15.3945 55.1335L18.4025 53.1599ZM13.2351 47.4402L11.1914 50.0777L14.0353 52.2813L16.079 49.6438L13.2351 47.4402ZM14.4122 51.1795V48.9376H10.8145V51.1795H14.4122ZM12.6134 48.9376C14.4122 48.9376 14.4122 48.9372 14.4122 48.9367C14.4122 48.9365 14.4122 48.936 14.4122 48.9357C14.4122 48.9351 14.4122 48.9344 14.4122 48.9337C14.4122 48.9323 14.4122 48.9309 14.4122 48.9294C14.4122 48.9263 14.4122 48.9231 14.4121 48.9196C14.4121 48.9125 14.412 48.9044 14.4118 48.8954C14.4115 48.8773 14.411 48.8552 14.4101 48.8294C14.4082 48.7779 14.4049 48.7112 14.3989 48.6313C14.3868 48.4719 14.3639 48.257 14.3197 48.0031C14.2324 47.5009 14.0566 46.8126 13.695 46.0892L10.477 47.6979C10.6427 48.0295 10.7306 48.3633 10.7752 48.6194C10.7969 48.7446 10.8069 48.8429 10.8114 48.902C10.8136 48.9312 10.8144 48.95 10.8146 48.9567C10.8147 48.96 10.8147 48.9602 10.8146 48.9571C10.8146 48.9556 10.8146 48.9532 10.8145 48.95C10.8145 48.9483 10.8145 48.9465 10.8145 48.9444C10.8145 48.9434 10.8145 48.9423 10.8145 48.9412C10.8145 48.9406 10.8145 48.94 10.8145 48.9395C10.8145 48.9392 10.8145 48.9387 10.8145 48.9385C10.8145 48.9381 10.8145 48.9376 12.6134 48.9376ZM13.695 46.0892C13.5631 45.8254 13.3931 45.5793 13.2795 45.4171C13.1396 45.2171 13.0408 45.0828 12.9235 44.9068L9.92988 46.9022C10.0763 47.1219 10.2412 47.3502 10.332 47.48C10.4492 47.6474 10.477 47.698 10.477 47.6979L13.695 46.0892ZM12.7926 44.734C12.0405 43.8564 11.4456 43.036 11.4456 41.8164H7.84786C7.84786 44.4211 9.23069 46.1064 10.0608 47.0751L12.7926 44.734ZM11.4456 41.8164C11.4456 40.9526 11.5667 40.5481 11.6513 40.3789L8.43326 38.7701C7.99045 39.6559 7.84786 40.702 7.84786 41.8164H11.4456ZM10.4786 37.8294C8.92739 37.4415 7.59442 36.7255 6.33969 35.6417L3.98791 38.3643C5.6339 39.7861 7.46533 40.7844 9.60591 41.3196L10.4786 37.8294ZM6.35081 35.6513C4.34568 33.8904 4.52342 31.2006 4.52342 30.9367H0.925701C0.925701 30.9366 0.576043 35.368 3.97679 38.3546L6.35081 35.6513ZM4.51705 31.0879L4.83971 27.2635L1.25473 26.9611L0.932069 30.7855L4.51705 31.0879ZM1.33853 27.6747L2.53216 31.3013L5.94953 30.1765L4.7559 26.5499L1.33853 27.6747ZM2.46645 31.0346C2.5546 31.5636 2.83733 32.1582 3.12113 32.6102C3.40392 33.0607 3.9173 33.7422 4.68883 34.1281L6.29802 30.9103C6.37869 30.9506 6.3867 30.9754 6.33601 30.9217C6.29108 30.8742 6.23144 30.7981 6.16814 30.6973C6.10581 30.598 6.05575 30.5 6.0229 30.424C6.00678 30.3867 5.9987 30.3637 5.99637 30.3565C5.99216 30.3437 6.004 30.3758 6.01523 30.4432L2.46645 31.0346ZM4.56768 34.0615L4.89731 34.2594L6.74879 31.1747L6.41917 30.9768L4.56768 34.0615ZM5.01846 34.3259C5.38916 34.5113 5.83621 34.7433 6.42912 34.8812C6.99521 35.0129 7.61321 35.0434 8.39413 35.0434V31.4457C7.65877 31.4457 7.38678 31.4102 7.24418 31.377C7.1284 31.3501 7.04804 31.3184 6.62764 31.1081L5.01846 34.3259ZM8.39413 35.0434C9.27246 35.0434 10.1759 34.8715 10.9548 34.6378L9.92084 31.1919C9.38122 31.3538 8.83431 31.4457 8.39413 31.4457V35.0434ZM11.7099 31.643C11.5192 31.4522 11.3112 31.2912 11.1061 31.1544L9.11025 34.1477C9.13814 34.1663 9.15593 34.1798 9.16557 34.1875C9.17531 34.1953 9.1743 34.1953 9.16572 34.1867L11.7099 31.643ZM11.1664 31.1964C10.9265 31.0219 10.8281 30.8012 10.7898 30.5542C10.7698 30.4251 10.7719 30.312 10.7779 30.2454C10.781 30.2114 10.7835 30.2075 10.7775 30.2349C10.7752 30.2454 10.7654 30.2897 10.7437 30.3543C10.7334 30.385 10.7111 30.4485 10.6738 30.5275C10.6549 30.5677 10.624 30.6294 10.5793 30.7015C10.5398 30.7652 10.4579 30.8893 10.3255 31.0217L7.78129 28.478C7.54923 28.7101 7.43972 28.9507 7.41915 28.9944C7.37687 29.0842 7.34914 29.1615 7.33316 29.2091C7.30008 29.3076 7.27785 29.3979 7.26306 29.4655C7.2321 29.6069 7.20937 29.7612 7.19496 29.9198C7.16599 30.2386 7.16388 30.6488 7.23453 31.1049C7.37756 32.0283 7.83955 33.2253 9.05003 34.1058L11.1664 31.1964ZM10.7941 30.2037L11.0519 29.2146L7.57061 28.3069L7.31272 29.296L10.7941 30.2037ZM8.29582 30.2456L9.35645 30.9709L11.3873 28.0012L10.3267 27.2759L8.29582 30.2456ZM10.3719 29.4861C8.93271 30.5653 8.93313 30.5658 8.93356 30.5664C8.93371 30.5666 8.93414 30.5672 8.93443 30.5675C8.93501 30.5683 8.93561 30.5691 8.93622 30.5699C8.93743 30.5715 8.93869 30.5732 8.93999 30.5749C8.9426 30.5783 8.94538 30.582 8.94835 30.5858C8.95428 30.5935 8.96093 30.6021 8.96831 30.6114C8.98305 30.63 9.00073 30.6518 9.02133 30.6764C9.06241 30.7253 9.11577 30.786 9.18118 30.8542C9.31051 30.9892 9.49523 31.1627 9.734 31.3364C10.2046 31.6787 10.9639 32.0762 11.9541 32.0762V28.4785C11.9511 28.4785 11.9455 28.4786 11.9302 28.4727C11.9114 28.4656 11.8837 28.4513 11.8503 28.427C11.8172 28.4029 11.7917 28.3786 11.7789 28.3652C11.7733 28.3593 11.7725 28.3581 11.7773 28.3638C11.7798 28.3667 11.7837 28.3715 11.7893 28.3785C11.7921 28.3821 11.7953 28.3862 11.7989 28.3909C11.8007 28.3932 11.8026 28.3957 11.8047 28.3984C11.8057 28.3997 11.8067 28.4011 11.8078 28.4025C11.8083 28.4032 11.8089 28.4039 11.8094 28.4047C11.8097 28.405 11.8101 28.4056 11.8102 28.4058C11.8107 28.4063 11.8111 28.4069 10.3719 29.4861ZM11.9541 32.0762C12.4459 32.0762 12.872 31.9339 13.1157 31.8462C13.2666 31.7918 13.75 31.5991 13.8384 31.566L12.575 28.1974C12.4227 28.2545 12.2812 28.3112 12.1692 28.3558C12.0491 28.4036 11.9671 28.4359 11.8968 28.4612C11.8273 28.4863 11.8011 28.4927 11.8015 28.4926C11.8027 28.4923 11.8595 28.4785 11.9541 28.4785V32.0762ZM13.9154 31.535C14.7017 31.198 15.7051 30.7871 17.5315 30.9483L17.8477 27.3645C15.1912 27.1301 13.5576 27.7741 12.498 28.2283L13.9154 31.535ZM17.5516 30.9499C19.3777 31.0904 19.9993 31.997 20.2339 32.4664L23.4519 30.8576C22.7636 29.4807 21.1437 27.618 17.8276 27.3628L17.5516 30.9499ZM23.1968 32.8464C23.711 32.2586 24.3908 31.4861 25.2891 31.2002L24.1981 27.7719C22.1957 28.4092 20.8977 30.0104 20.489 30.4776L23.1968 32.8464ZM25.3656 31.174C25.5313 31.1129 25.8991 31.076 26.5643 31.2034C27.2016 31.3254 27.8791 31.5485 28.5916 31.786L29.7295 28.373C29.0575 28.149 28.1528 27.8445 27.241 27.6699C26.3569 27.5005 25.2084 27.3977 24.1216 27.7982L25.3656 31.174ZM28.5826 31.783L28.5826 31.783L29.7386 28.3761L29.7385 28.376L28.5826 31.783ZM28.5917 31.786C28.7237 31.8301 28.8624 31.8788 29.0138 31.932C29.1594 31.9832 29.3206 32.0401 29.4735 32.091C29.6236 32.1411 29.7956 32.1956 29.9641 32.2389C30.0992 32.2737 30.3727 32.3399 30.6769 32.3399V28.7422C30.7818 28.7422 30.8514 28.7541 30.8636 28.7562C30.8821 28.7594 30.8829 28.7604 30.8602 28.7546C30.8124 28.7423 30.733 28.7185 30.6113 28.6779C30.4921 28.6382 30.3609 28.5921 30.2077 28.5382C30.0604 28.4863 29.8942 28.4279 29.7296 28.373L28.5917 31.786ZM30.6769 32.3399C31.3886 32.3399 32.2568 32.0636 32.839 31.859C33.511 31.6229 34.1903 31.3367 34.6612 31.1193L33.1533 27.8528C32.7671 28.0311 32.1938 28.2724 31.6462 28.4648C31.3725 28.561 31.127 28.6373 30.9276 28.6875C30.7015 28.7445 30.6338 28.7422 30.6769 28.7422V32.3399ZM34.5885 31.151L36.0388 30.5575L34.6764 27.2277L33.226 27.8212L34.5885 31.151ZM33.6221 28.4194L33.2266 29.87L36.6975 30.8165L37.0931 29.3659L33.6221 28.4194ZM33.1981 29.9905C33.1983 29.9895 33.1971 29.9955 33.194 30.0087C33.1911 30.0214 33.1868 30.0388 33.1812 30.0604C33.1698 30.1039 33.1538 30.1603 33.133 30.226C33.0907 30.3594 33.033 30.5162 32.9603 30.6722C32.8866 30.8306 32.8087 30.9642 32.7333 31.0651C32.6967 31.114 32.6655 31.1488 32.6415 31.1722C32.6298 31.1837 32.6206 31.1916 32.6142 31.1968C32.6079 31.202 32.6046 31.204 32.6047 31.204L34.5505 34.2301C35.436 33.6607 35.9459 32.7837 36.2221 32.1903C36.5141 31.5628 36.6696 30.978 36.726 30.696L33.1981 29.9905ZM32.5319 31.2533C32.2722 31.4389 31.9886 31.5446 31.4185 31.789L32.836 35.0957C33.1888 34.9444 33.96 34.6546 34.6233 34.1807L32.5319 31.2533ZM31.6637 35.1804C32.8693 35.502 34.3655 35.6721 36.104 35.2582L35.2705 31.7583C34.24 32.0037 33.363 31.9102 32.5908 31.7042L31.6637 35.1804ZM36.0542 35.2693C37.2049 35.0295 38.3023 34.3841 39.0971 33.8303C39.9239 33.2543 40.6146 32.6408 40.9808 32.2745L38.4366 29.7308C38.2094 29.9579 37.6805 30.4324 37.0404 30.8784C36.3684 31.3466 35.7517 31.6573 35.3203 31.7472L36.0542 35.2693ZM40.9808 32.2745L42.2333 31.0217L39.6892 28.478L38.4366 29.7307L40.9808 32.2745Z" fill="#323232" mask="url(#path-4-outside-1_631_6931)"/>
<path fill-rule="evenodd" clip-rule="evenodd" d="M40.9683 29.552V31.3323C40.9683 31.3982 40.9683 33.4423 39.7814 35.5523C38.4627 37.926 36.4845 39.1788 32.9899 40.036C33.3855 40.7613 33.7811 41.8164 33.7811 43.3989C33.7811 45.9704 31.0117 49.9267 30.682 50.3882L29.627 51.9048L29.0995 48.2782C28.3742 49.4651 27.2533 50.8498 25.6708 51.7729C22.1102 53.9488 23.5608 57.9051 23.6267 58.0369L24.352 60.081L22.5058 58.9601C22.3739 58.8941 18.6155 56.5204 16.9011 53.9489C15.5164 51.8389 14.923 49.7948 14.6592 48.3442L12.6152 50.9817V48.7398C12.6152 48.7398 12.6152 47.7507 12.0877 46.6957C11.9558 46.432 11.6921 46.1023 11.4283 45.7067C10.6371 44.7835 9.64799 43.5307 9.64799 41.6185C9.64799 40.6295 9.77987 39.9042 10.0436 39.3767C8.19737 38.9151 6.61487 38.0579 5.16425 36.8051C2.46081 34.4314 2.72456 30.8707 2.72456 30.7389L3.05425 27.1123L4.24112 30.5411C4.30706 30.9367 4.83456 31.9917 5.49394 32.3213L5.82362 32.5192C6.61487 32.9148 6.87862 33.0467 8.39518 33.0467C9.05455 33.0467 9.77987 32.9148 10.4392 32.717C10.3513 32.6291 10.2414 32.5411 10.1096 32.4532C8.65893 31.3982 8.98862 29.6179 9.05455 29.552L9.38424 27.9036L10.3733 29.2882C10.3733 29.2882 10.9667 30.0795 11.9558 30.0795C12.2855 30.0795 12.6811 29.8817 13.2086 29.6838C14.1317 29.2882 15.4505 28.7607 17.6924 28.9585C20.2639 29.1564 21.3849 30.541 21.8464 31.4642C22.308 30.9367 23.297 29.7498 24.7477 29.2882C26.0005 28.8267 27.7808 29.4201 29.1655 29.8817C29.7589 30.0795 30.4183 30.3432 30.682 30.3432C31.4074 30.3432 33.0558 29.6839 33.913 29.2882L35.3636 28.6948L34.968 30.1454C34.902 30.4751 34.5064 31.9257 33.5833 32.5192C33.1217 32.8489 32.5942 33.0467 32.1327 33.2445C33.1217 33.5082 34.3086 33.6401 35.6933 33.3104C37.2758 32.9807 39.122 31.3982 39.7155 30.8048L40.9683 29.552ZM6.15331 35.6842C8.593 37.8601 11.6921 38.7173 15.3186 38.2557C19.077 37.7282 20.9892 35.2885 20.9892 34.3654C20.9892 33.2445 20.7914 32.7829 20.7914 32.7829L20.7255 32.651C20.6595 32.5192 20.198 30.6729 17.5605 30.4751C15.6483 30.3432 14.6592 30.7388 13.7361 31.1345C13.1427 31.3323 12.5492 31.596 11.8899 31.596C11.6701 31.596 11.4723 31.5741 11.2964 31.5301C11.9558 31.9257 12.4174 31.9917 12.4833 31.9917L15.3846 32.1235L12.813 33.3764C12.6811 33.4423 10.4392 34.5632 8.39518 34.5632C6.61487 34.5632 6.08737 34.3654 5.09831 33.8379L4.76862 33.6401C4.76862 33.6401 4.74664 33.6401 4.70268 33.6401C4.96643 34.3654 5.428 35.0907 6.15331 35.6842ZM32.2645 43.3989C32.2645 41.5526 31.4733 40.5636 31.3414 40.4317C30.6161 40.4976 29.8908 40.5635 29.1655 40.5635C26.7917 40.5635 24.6817 39.9701 23.1652 38.7832C22.308 38.1239 21.8464 37.3326 21.5167 36.5414C20.3958 37.992 18.3517 39.3767 15.5164 39.7063C14.8131 39.7943 14.1317 39.8382 13.4724 39.8382C12.813 39.8382 12.1756 39.7943 11.5602 39.7063C11.4283 39.9042 11.0986 40.3657 11.0986 41.6185C11.0986 43.0692 11.8239 43.9263 12.5492 44.8495C12.8789 45.2451 13.2086 45.6407 13.4064 46.1023C13.5823 46.41 13.7141 46.6957 13.8021 46.9595L15.8461 44.1901V46.432C15.8461 46.432 15.9121 49.8607 18.1539 53.1576C19.0111 54.5423 20.5936 55.7951 21.7805 56.7182C21.6486 54.7401 22.242 52.1685 24.8795 50.5201C27.583 48.9376 28.7699 45.6407 28.7699 45.5748L29.7589 42.6076L30.4842 47.8826C31.3414 46.4979 32.2645 44.5857 32.2645 43.3989ZM39.122 33.2445C38.2649 33.9039 37.1439 34.5632 36.023 34.827C32.1986 35.6842 29.4292 33.6401 29.2974 33.5742L27.517 32.1895L29.7589 32.2554C29.8249 32.2554 31.0777 32.2554 32.3305 31.5301C31.737 31.7279 31.1436 31.8598 30.682 31.8598C30.1545 31.8598 29.4952 31.596 28.638 31.3323C27.517 30.9367 26.0005 30.4751 25.2092 30.7389C24.0224 31.1345 23.1652 32.2554 22.9014 32.5192C22.7695 33.1126 21.9783 35.9479 24.0883 37.5963C25.8686 39.047 28.7699 39.4426 31.8689 38.7832C35.4295 38.0579 37.2758 36.937 38.4627 34.827C38.7923 34.2995 38.9902 33.706 39.122 33.2445Z" fill="#EEEC0B"/>
<path d="M68.6612 19.7263V22.678H59.6827V39.1641H56.1615V19.7263H68.6612ZM69.9734 44.6309V24.5857H73.3522V26.9965H73.5515C73.7287 26.6422 73.9786 26.2657 74.3013 25.867C74.624 25.4621 75.0606 25.1172 75.6111 24.8325C76.1616 24.5415 76.8639 24.3959 77.7181 24.3959C78.8444 24.3959 79.8599 24.6838 80.7647 25.2596C81.6759 25.8291 82.3972 26.6738 82.9287 27.7937C83.4665 28.9074 83.7355 30.2741 83.7355 31.8939C83.7355 33.4947 83.4729 34.8551 82.9477 35.9751C82.4225 37.095 81.7075 37.9492 80.8027 38.5377C79.8979 39.1261 78.8728 39.4203 77.7276 39.4203C76.8924 39.4203 76.1995 39.2811 75.649 39.0027C75.0986 38.7243 74.6556 38.389 74.3203 37.9967C73.9913 37.598 73.735 37.2216 73.5515 36.8672H73.4091V44.6309H69.9734ZM73.3427 31.8749C73.3427 32.8177 73.4756 33.6434 73.7413 34.3521C74.0134 35.0607 74.4025 35.6144 74.9087 36.013C75.4213 36.4053 76.0413 36.6015 76.769 36.6015C77.5283 36.6015 78.1642 36.399 78.6767 35.994C79.1892 35.5828 79.5752 35.0228 79.8346 34.3141C80.1004 33.5991 80.2332 32.7861 80.2332 31.8749C80.2332 30.9701 80.1035 30.1665 79.8441 29.4642C79.5847 28.7618 79.1987 28.2113 78.6862 27.8127C78.1737 27.4141 77.5346 27.2148 76.769 27.2148C76.035 27.2148 75.4118 27.4078 74.8992 27.7937C74.3867 28.1797 73.9976 28.7207 73.7318 29.4167C73.4724 30.1127 73.3427 30.9321 73.3427 31.8749ZM90.8728 39.4583C89.949 39.4583 89.1169 39.2938 88.3766 38.9647C87.6426 38.6294 87.0605 38.1359 86.6302 37.4841C86.2063 36.8324 85.9943 36.0288 85.9943 35.0734C85.9943 34.2508 86.1462 33.5706 86.4499 33.0328C86.7536 32.495 87.1681 32.0647 87.6932 31.742C88.2184 31.4193 88.81 31.1757 89.4681 31.0112C90.1324 30.8404 90.819 30.717 91.5276 30.6411C92.3818 30.5525 93.0747 30.4734 93.6062 30.4038C94.1377 30.3279 94.5237 30.214 94.7641 30.0621C95.0109 29.9039 95.1342 29.6603 95.1342 29.3313V29.2743C95.1342 28.5594 94.9223 28.0057 94.4983 27.6134C94.0744 27.2211 93.4638 27.025 92.6666 27.025C91.825 27.025 91.1575 27.2085 90.6639 27.5754C90.1767 27.9424 89.8477 28.3759 89.6769 28.8757L86.4689 28.4201C86.722 27.5343 87.1396 26.794 87.7217 26.1992C88.3038 25.5981 89.0157 25.1489 89.8572 24.8515C90.6987 24.5478 91.6289 24.3959 92.6476 24.3959C93.3499 24.3959 94.0491 24.4782 94.7451 24.6427C95.4411 24.8072 96.077 25.0793 96.6528 25.4589C97.2286 25.8322 97.6905 26.3416 98.0385 26.987C98.3929 27.6324 98.57 28.4391 98.57 29.4072V39.1641H95.2671V37.1614H95.1532C94.9444 37.5664 94.6502 37.946 94.2706 38.3004C93.8972 38.6484 93.4259 38.9299 92.8564 39.1451C92.2932 39.3539 91.632 39.4583 90.8728 39.4583ZM91.7649 36.9337C92.4546 36.9337 93.0525 36.7976 93.5587 36.5255C94.0649 36.2471 94.4541 35.8801 94.7261 35.4246C95.0045 34.969 95.1437 34.4723 95.1437 33.9345V32.2166C95.0362 32.3052 94.8527 32.3874 94.5933 32.4634C94.3402 32.5393 94.0554 32.6057 93.7391 32.6627C93.4227 32.7196 93.1095 32.7702 92.7994 32.8145C92.4894 32.8588 92.2205 32.8968 91.9927 32.9284C91.4802 32.998 91.0214 33.1119 90.6165 33.2701C90.2115 33.4283 89.892 33.6497 89.6579 33.9345C89.4238 34.2129 89.3067 34.5735 89.3067 35.0165C89.3067 35.6492 89.5377 36.1269 89.9996 36.4496C90.4615 36.7723 91.0499 36.9337 91.7649 36.9337ZM100.734 43.3971V36.3357H101.892C102.202 36.0953 102.461 35.7694 102.67 35.3581C102.879 34.9405 103.05 34.4502 103.183 33.887C103.322 33.3176 103.436 32.6816 103.524 31.9793C103.613 31.2706 103.692 30.5082 103.762 29.692L104.179 24.5857H114.714V36.3357H116.973V43.3971H113.651V39.1641H104.113V43.3971H100.734ZM105.423 36.3357H111.43V27.3571H107.159L106.932 29.692C106.805 31.2358 106.637 32.5583 106.429 33.6592C106.22 34.7602 105.884 35.6524 105.423 36.3357ZM121.674 44.6309C121.205 44.6309 120.772 44.593 120.373 44.517C119.981 44.4474 119.668 44.3652 119.434 44.2703L120.231 41.5938C120.731 41.7393 121.177 41.8089 121.569 41.8026C121.962 41.7963 122.306 41.6729 122.604 41.4324C122.908 41.1983 123.164 40.806 123.373 40.2555L123.667 39.4678L118.38 24.5857H122.025L125.385 35.5954H125.537L128.906 24.5857H132.56L126.723 40.9294C126.451 41.7013 126.09 42.3626 125.641 42.913C125.192 43.4699 124.641 43.8938 123.99 44.1848C123.344 44.4822 122.572 44.6309 121.674 44.6309ZM140.801 39.4488C139.345 39.4488 138.096 39.1293 137.052 38.4902C136.014 37.8511 135.214 36.9685 134.65 35.8422C134.094 34.7096 133.815 33.4061 133.815 31.9319C133.815 30.4512 134.1 29.1446 134.669 28.012C135.239 26.8731 136.042 25.9873 137.08 25.3545C138.124 24.7155 139.358 24.3959 140.782 24.3959C141.965 24.3959 143.012 24.6142 143.923 25.0508C144.841 25.4811 145.571 26.0917 146.116 26.8826C146.66 27.6672 146.97 28.5847 147.046 29.635H143.762C143.629 28.9327 143.313 28.3474 142.813 27.8792C142.319 27.4046 141.658 27.1673 140.829 27.1673C140.127 27.1673 139.51 27.3571 138.978 27.7368C138.447 28.1101 138.032 28.6479 137.735 29.3503C137.444 30.0526 137.298 30.8942 137.298 31.8749C137.298 32.8683 137.444 33.7225 137.735 34.4375C138.026 35.1462 138.434 35.6935 138.959 36.0795C139.491 36.4591 140.114 36.6489 140.829 36.6489C141.335 36.6489 141.788 36.554 142.186 36.3642C142.591 36.168 142.93 35.8865 143.202 35.5195C143.474 35.1525 143.661 34.7064 143.762 34.1812H147.046C146.964 35.2126 146.66 36.1269 146.135 36.9242C145.609 37.7151 144.894 38.3352 143.99 38.7844C143.085 39.2273 142.022 39.4488 140.801 39.4488ZM159.591 19.7263L163.871 26.8446H164.023L168.322 19.7263H172.337L166.348 29.4452L172.432 39.1641H168.351L164.023 32.0932H163.871L159.543 39.1641H155.481L161.622 29.4452L155.557 19.7263H159.591ZM179.145 39.4583C178.221 39.4583 177.389 39.2938 176.648 38.9647C175.914 38.6294 175.332 38.1359 174.902 37.4841C174.478 36.8324 174.266 36.0288 174.266 35.0734C174.266 34.2508 174.418 33.5706 174.722 33.0328C175.025 32.495 175.44 32.0647 175.965 31.742C176.49 31.4193 177.082 31.1757 177.74 31.0112C178.404 30.8404 179.091 30.717 179.8 30.6411C180.654 30.5525 181.347 30.4734 181.878 30.4038C182.41 30.3279 182.796 30.214 183.036 30.0621C183.283 29.9039 183.406 29.6603 183.406 29.3313V29.2743C183.406 28.5594 183.194 28.0057 182.77 27.6134C182.346 27.2211 181.736 27.025 180.938 27.025C180.097 27.025 179.429 27.2085 178.936 27.5754C178.449 27.9424 178.12 28.3759 177.949 28.8757L174.741 28.4201C174.994 27.5343 175.411 26.794 175.994 26.1992C176.576 25.5981 177.288 25.1489 178.129 24.8515C178.971 24.5478 179.901 24.3959 180.919 24.3959C181.622 24.3959 182.321 24.4782 183.017 24.6427C183.713 24.8072 184.349 25.0793 184.925 25.4589C185.5 25.8322 185.962 26.3416 186.31 26.987C186.665 27.6324 186.842 28.4391 186.842 29.4072V39.1641H183.539V37.1614H183.425C183.216 37.5664 182.922 37.946 182.542 38.3004C182.169 38.6484 181.698 38.9299 181.128 39.1451C180.565 39.3539 179.904 39.4583 179.145 39.4583ZM180.037 36.9337C180.726 36.9337 181.324 36.7976 181.831 36.5255C182.337 36.2471 182.726 35.8801 182.998 35.4246C183.276 34.969 183.416 34.4723 183.416 33.9345V32.2166C183.308 32.3052 183.125 32.3874 182.865 32.4634C182.612 32.5393 182.327 32.6057 182.011 32.6627C181.695 32.7196 181.381 32.7702 181.071 32.8145C180.761 32.8588 180.492 32.8968 180.265 32.9284C179.752 32.998 179.293 33.1119 178.888 33.2701C178.483 33.4283 178.164 33.6497 177.93 33.9345C177.696 34.2129 177.579 34.5735 177.579 35.0165C177.579 35.6492 177.81 36.1269 178.271 36.4496C178.733 36.7723 179.322 36.9337 180.037 36.9337ZM191.91 44.6309C191.442 44.6309 191.008 44.593 190.61 44.517C190.218 44.4474 189.904 44.3652 189.67 44.2703L190.468 41.5938C190.967 41.7393 191.413 41.8089 191.806 41.8026C192.198 41.7963 192.543 41.6729 192.84 41.4324C193.144 41.1983 193.4 40.806 193.609 40.2555L193.903 39.4678L188.617 24.5857H192.261L195.621 35.5954H195.773L199.142 24.5857H202.796L196.959 40.9294C196.687 41.7013 196.327 42.3626 195.877 42.913C195.428 43.4699 194.878 43.8938 194.226 44.1848C193.581 44.4822 192.809 44.6309 191.91 44.6309ZM211.037 39.4488C209.582 39.4488 208.332 39.1293 207.288 38.4902C206.25 37.8511 205.45 36.9685 204.887 35.8422C204.33 34.7096 204.052 33.4061 204.052 31.9319C204.052 30.4512 204.336 29.1446 204.906 28.012C205.475 26.8731 206.279 25.9873 207.317 25.3545C208.361 24.7155 209.594 24.3959 211.018 24.3959C212.201 24.3959 213.248 24.6142 214.16 25.0508C215.077 25.4811 215.808 26.0917 216.352 26.8826C216.896 27.6672 217.206 28.5847 217.282 29.635H213.998C213.865 28.9327 213.549 28.3474 213.049 27.8792C212.556 27.4046 211.894 27.1673 211.066 27.1673C210.363 27.1673 209.746 27.3571 209.215 27.7368C208.683 28.1101 208.269 28.6479 207.971 29.3503C207.68 30.0526 207.535 30.8942 207.535 31.8749C207.535 32.8683 207.68 33.7225 207.971 34.4375C208.263 35.1462 208.671 35.6935 209.196 36.0795C209.727 36.4591 210.351 36.6489 211.066 36.6489C211.572 36.6489 212.024 36.554 212.423 36.3642C212.828 36.168 213.166 35.8865 213.438 35.5195C213.71 35.1525 213.897 34.7064 213.998 34.1812H217.282C217.2 35.2126 216.896 36.1269 216.371 36.9242C215.846 37.7151 215.131 38.3352 214.226 38.7844C213.321 39.2273 212.258 39.4488 211.037 39.4488Z" fill="#323232"/>
<circle cx="223.112" cy="25.1122" r="2.48976" stroke="#323232" stroke-width="1.24488"/>
</svg>
