<svg width="38" height="40" viewBox="0 0 38 40" fill="none" xmlns="http://www.w3.org/2000/svg">
<path d="M27.7903 40C26.3507 39.9885 24.9173 39.7931 23.5201 39.418C18.6949 38.1594 13.7261 34.9667 9.53134 30.4278C5.33657 25.889 2.37961 20.5164 1.21541 15.305C-0.0104426 9.82292 0.863853 5.13284 3.67448 2.09434L4.477 1.22676C5.20511 0.441196 6.19177 0 7.22044 0C8.24912 0 9.23578 0.441196 9.96389 1.22676L14.5756 6.21134C15.3027 6.99823 15.7111 8.06497 15.7111 9.17721C15.7111 10.2895 15.3027 11.3562 14.5756 12.1431L11.8514 15.0871C13.1574 17.5644 14.9336 20.0438 17.0328 22.3132C19.132 24.5826 21.4273 26.5038 23.7179 27.9156L26.4411 24.9707C26.8014 24.5811 27.2291 24.272 27.6998 24.0612C28.1705 23.8504 28.6751 23.7418 29.1846 23.7418C29.6941 23.7418 30.1987 23.8504 30.6694 24.0612C31.1401 24.272 31.5678 24.5811 31.928 24.9707L36.5388 29.9552C37.2661 30.7418 37.6746 31.8085 37.6746 32.9206C37.6746 34.0328 37.2661 35.0994 36.5388 35.886L35.7354 36.7536C33.7539 38.8996 31.0114 40 27.7903 40ZM7.22044 2.98281C7.0735 2.98202 6.92789 3.01294 6.79215 3.07376C6.6564 3.13458 6.53324 3.22407 6.4299 3.337L5.62646 4.20458C3.52171 6.47997 2.90694 10.1741 3.89536 14.6006C4.94175 19.2896 7.6355 24.1618 11.4796 28.3166C15.3238 32.4714 19.8296 35.3806 24.168 36.5158C28.2634 37.5843 31.6786 36.9197 33.7834 34.6443L34.5859 33.7767C34.7956 33.5499 34.9134 33.2423 34.9134 32.9216C34.9134 32.6009 34.7956 32.2933 34.5859 32.0665L29.9761 27.0819C29.7662 26.8552 29.4817 26.7279 29.185 26.7279C28.8884 26.7279 28.6039 26.8552 28.394 27.0819L24.942 30.8139C24.7348 31.0379 24.4671 31.1849 24.1776 31.2335C23.888 31.2822 23.5917 31.23 23.3314 31.0845C20.5015 29.5025 17.6485 27.1993 15.0808 24.4235C12.5132 21.6476 10.3872 18.5653 8.92026 15.5059C8.78554 15.2247 8.7371 14.9043 8.78193 14.5913C8.82677 14.2783 8.96256 13.9889 9.16966 13.7648L12.6227 10.0328C12.8323 9.80599 12.9501 9.49841 12.9501 9.17771C12.9501 8.85701 12.8323 8.54943 12.6227 8.32257L8.01191 3.337C7.90824 3.22427 7.78489 3.13491 7.64903 3.07411C7.51316 3.01331 7.36749 2.98228 7.22044 2.98281Z" fill="white"/>
<path d="M29.3445 20.9524C29.0044 20.9524 28.6782 20.7854 28.4376 20.4883C28.1971 20.1912 28.062 19.7882 28.062 19.3679C28.0595 16.5883 27.1647 13.9234 25.5739 11.9579C23.983 9.99227 21.8261 8.88652 19.5762 8.88317C19.236 8.88317 18.9098 8.71624 18.6693 8.4191C18.4288 8.12195 18.2937 7.71895 18.2937 7.29873C18.2937 6.87851 18.4288 6.4755 18.6693 6.17836C18.9098 5.88122 19.236 5.71429 19.5762 5.71429C25.6697 5.71429 30.627 11.8408 30.627 19.3679C30.627 19.7882 30.4919 20.1912 30.2514 20.4883C30.0109 20.7854 29.6846 20.9524 29.3445 20.9524Z" fill="white"/>
<path d="M34.64 20.9524C34.3024 20.9524 33.9787 20.8074 33.74 20.5494C33.5013 20.2914 33.3672 19.9414 33.3672 19.5765C33.3672 11.3497 27.1732 4.65651 19.5664 4.65651C19.2289 4.65651 18.9051 4.51156 18.6664 4.25353C18.4278 3.9955 18.2937 3.64554 18.2937 3.28064C18.2937 2.91573 18.4278 2.56577 18.6664 2.30775C18.9051 2.04972 19.2289 1.90476 19.5664 1.90476C28.58 1.90476 35.9127 9.83256 35.9127 19.5765C35.9127 19.9414 35.7786 20.2914 35.5399 20.5494C35.3013 20.8074 34.9775 20.9524 34.64 20.9524Z" fill="white"/>
</svg>
