<svg width="11" height="13" viewBox="0 0 11 13" fill="none" xmlns="http://www.w3.org/2000/svg">
<path d="M5.50003 12.5238C4.33813 12.5238 3.22382 12.0622 2.40223 11.2407C1.58064 10.4191 1.11908 9.30476 1.11908 8.14286C1.12776 6.96027 1.53701 5.81554 2.28003 4.89548C3.14618 3.77411 3.63502 2.40728 3.67646 0.990954C3.68154 0.901703 3.70838 0.815052 3.75466 0.738567C3.80094 0.662082 3.86523 0.598088 3.94194 0.552174C4.01864 0.50626 4.10542 0.479822 4.19469 0.475169C4.28396 0.470515 4.37302 0.487788 4.45408 0.525478C5.3729 0.920967 6.16921 1.55504 6.76043 2.36195C7.35165 3.16886 7.71626 4.11923 7.81646 5.11453C7.94294 4.94374 8.05123 4.7602 8.13956 4.56691C8.17338 4.47339 8.23203 4.39084 8.30921 4.32813C8.38639 4.26542 8.47919 4.22492 8.57765 4.21095C8.6766 4.19738 8.77737 4.21113 8.86907 4.2507C8.96076 4.29027 9.03989 4.35417 9.09789 4.43548C9.18003 4.53405 9.88098 5.58548 9.88098 8.14286C9.88759 8.72001 9.77878 9.29265 9.56096 9.82716C9.34313 10.3617 9.02068 10.8472 8.61255 11.2554C8.20442 11.6635 7.71884 11.986 7.18433 12.2038C6.64983 12.4216 6.07718 12.5304 5.50003 12.5238V12.5238ZM4.68408 1.9C4.50135 3.21233 3.98678 4.45633 3.18908 5.51429C2.56674 6.24951 2.22182 7.17963 2.21432 8.14286C2.21432 9.01428 2.56049 9.85002 3.17668 10.4662C3.79287 11.0824 4.62861 11.4286 5.50003 11.4286C5.93418 11.4383 6.3658 11.36 6.76884 11.1983C7.17187 11.0366 7.53797 10.7949 7.84504 10.4879C8.15211 10.1808 8.39377 9.8147 8.55545 9.41166C8.71713 9.00863 8.79547 8.57701 8.78575 8.14286C8.79712 7.40551 8.71618 6.66963 8.54479 5.95238C8.25706 6.315 7.91319 6.62929 7.52622 6.88333C7.43725 6.94086 7.33349 6.97133 7.22754 6.97107C7.12159 6.97081 7.01799 6.93981 6.92931 6.88185C6.84062 6.82388 6.77065 6.74143 6.72788 6.64449C6.68512 6.54756 6.67139 6.4403 6.68837 6.33572C6.84886 5.48008 6.74269 4.59579 6.38423 3.80246C6.02576 3.00913 5.43229 2.34504 4.68408 1.9V1.9Z" fill="#353535" stroke="#EEEC0B" stroke-width="0.4"/>
</svg>
