<svg width="60" height="60" viewBox="0 0 60 60" fill="none" xmlns="http://www.w3.org/2000/svg">
<path d="M60 30.0001V30.0887C59.9825 36.0146 58.2103 41.8025 54.9072 46.7224C51.604 51.6423 46.9177 55.4737 41.4396 57.7333C35.9614 59.993 29.9368 60.5796 24.1256 59.4192C18.3144 58.2588 12.9771 55.4034 8.78683 51.2132C4.59659 47.0229 1.74118 41.6856 0.580793 35.8744C-0.57959 30.0632 0.00703878 24.0386 2.26668 18.5604C4.52632 13.0823 8.35774 8.39602 13.2776 5.09284C18.1975 1.78966 23.9854 0.0175343 29.9113 0H29.9999C30.7227 0 31.4386 -7.61993e-08 32.1545 0.0818183C33.3263 0.163843 34.492 0.316392 35.6454 0.538637C37.5345 0.896536 39.3841 1.43773 41.1681 2.15455C44.912 3.66014 48.3148 5.90342 51.174 8.75092C54.0332 11.5984 56.2904 14.9919 57.8114 18.7296C58.5488 20.5426 59.1039 22.4247 59.4682 24.3478C59.69 25.5127 59.8425 26.6898 59.925 27.8728C60 28.5819 60 29.3182 60 30.0001Z" fill="#D95D0B"/>
<path d="M29.9113 29.0999C28.6599 29.0999 27.4365 28.7288 26.396 28.0335C25.3555 27.3383 24.5445 26.3501 24.0656 25.1939C23.5867 24.0378 23.4614 22.7656 23.7056 21.5382C23.9497 20.3108 24.5523 19.1834 25.4372 18.2985C26.3221 17.4136 27.4495 16.811 28.6769 16.5669C29.9043 16.3228 31.1765 16.4481 32.3326 16.927C33.4888 17.4058 34.477 18.2168 35.1722 19.2573C35.8675 20.2979 36.2386 21.5212 36.2386 22.7726C36.2368 24.4501 35.5696 26.0585 34.3833 27.2447C33.1971 28.4309 31.5888 29.0981 29.9113 29.0999ZM29.9113 19.5135C29.2667 19.5135 28.6366 19.7046 28.1006 20.0628C27.5647 20.4209 27.1469 20.9299 26.9003 21.5254C26.6536 22.1209 26.589 22.7762 26.7148 23.4084C26.8405 24.0406 27.1509 24.6213 27.6067 25.0771C28.0625 25.5329 28.6433 25.8433 29.2755 25.9691C29.9077 26.0948 30.563 26.0303 31.1585 25.7836C31.754 25.5369 32.263 25.1192 32.6211 24.5833C32.9792 24.0473 33.1704 23.4172 33.1704 22.7726C33.1686 21.9088 32.8246 21.0809 32.2138 20.4701C31.603 19.8593 30.7751 19.5153 29.9113 19.5135Z" fill="white"/>
<path d="M38.5431 30.6809C38.4253 30.4773 38.2684 30.2989 38.0815 30.1561C37.8946 30.0132 37.6813 29.9087 37.4538 29.8485C37.2264 29.7883 36.9893 29.7737 36.7562 29.8053C36.5231 29.837 36.2985 29.9145 36.0954 30.0332C34.2629 31.2116 32.1374 31.854 29.959 31.8877C27.7882 31.8186 25.673 31.1841 23.8226 30.0468C23.4105 29.8488 22.9383 29.8158 22.5026 29.9543C22.0669 30.0929 21.7006 30.3927 21.4786 30.7923C21.2566 31.192 21.1956 31.6614 21.3081 32.1045C21.4206 32.5477 21.6982 32.9311 22.084 33.1764C23.0997 33.7502 24.1627 34.2361 25.2613 34.6287C25.752 34.7981 26.2324 34.9962 26.6999 35.2218L27.2863 35.515L23.0113 40.6832C22.7223 41.0068 22.5626 41.4255 22.5626 41.8594C22.5626 42.2932 22.7223 42.7119 23.0113 43.0355C23.1771 43.2213 23.3817 43.3684 23.6106 43.4666C23.8395 43.5648 24.0871 43.6116 24.336 43.6038C24.585 43.596 24.8292 43.5338 25.0514 43.4215C25.2737 43.3091 25.4687 43.1495 25.6226 42.9537L29.9113 37.7718L34.2067 42.9537C34.4902 43.2939 34.8949 43.5105 35.3352 43.5576C35.7755 43.6047 36.2169 43.4786 36.5658 43.206C36.9227 42.8963 37.1429 42.4584 37.1786 41.9873C37.2144 41.5162 37.0628 41.05 36.7567 40.69L32.4476 35.4537L32.6317 35.365C33.0727 35.1659 33.5286 35.0017 33.9954 34.8741C35.3726 34.4508 36.6936 33.8624 37.9295 33.1218C38.3246 32.8794 38.6106 32.4933 38.7272 32.0446C38.7901 31.8166 38.8062 31.5783 38.7746 31.3439C38.743 31.1096 38.6642 30.884 38.5431 30.6809Z" fill="white"/>
</svg>
