<svg width="60" height="60" viewBox="0 0 60 60" fill="none" xmlns="http://www.w3.org/2000/svg">
<path d="M30 60C46.5685 60 60 46.5685 60 30C60 13.4315 46.5685 0 30 0C13.4315 0 0 13.4315 0 30C0 46.5685 13.4315 60 30 60Z" fill="url(#paint0_linear_120_1127)"/>
<path d="M11.1728 31.4679C14.6798 29.5362 18.5945 27.924 22.2523 26.3034C28.545 23.6492 34.8628 21.0409 41.2443 18.6127C42.4859 18.1989 44.7168 17.7943 44.9355 19.6343C44.8158 22.2388 44.323 24.8281 43.985 27.4173C43.1271 33.1113 42.1356 38.7858 41.1688 44.4611C40.8356 46.3515 38.4675 47.3301 36.9523 46.1203C33.3108 43.6606 29.6413 41.2248 26.0463 38.7081C24.8686 37.5115 25.9606 35.7931 27.0124 34.9386C30.0116 31.9828 33.1924 29.4716 36.0349 26.3631C36.8016 24.5114 34.5361 26.0719 33.7889 26.5501C29.6829 29.3796 25.6774 32.3818 21.3484 34.8686C19.1371 36.0858 16.5599 35.0456 14.3496 34.3663C12.3679 33.5458 9.46383 32.7192 11.1726 31.4681L11.1728 31.4679Z" fill="white"/>
<defs>
<linearGradient id="paint0_linear_120_1127" x1="22.5035" y1="2.502" x2="7.5035" y2="37.5" gradientUnits="userSpaceOnUse">
<stop stop-color="#37AEE2"/>
<stop offset="1" stop-color="#1E96C8"/>
</linearGradient>
</defs>
</svg>
