<svg width="22" height="24" viewBox="0 0 22 24" fill="none" xmlns="http://www.w3.org/2000/svg">
<path fill-rule="evenodd" clip-rule="evenodd" d="M1.55066 9.46749C1.71103 6.95633 3.83898 5 6.41006 5H15.59C18.1611 5 20.289 6.95633 20.4493 9.46749L20.9903 17.9381C21.1655 20.6811 18.9394 23 16.131 23H5.86907C3.0606 23 0.834483 20.6811 1.00968 17.9381L1.55066 9.46749ZM6.41006 6.05882C4.41033 6.05882 2.75527 7.58041 2.63053 9.53354L2.08954 18.0042C1.95328 20.1376 3.68471 21.9412 5.86907 21.9412H16.131C18.3154 21.9412 20.0467 20.1376 19.9105 18.0042L19.3695 9.53354C19.2448 7.58041 17.5897 6.05882 15.59 6.05882H6.41006Z" fill="#323232" stroke="#323232" stroke-width="0.8"/>
<path fill-rule="evenodd" clip-rule="evenodd" d="M6 4.88889C6 2.74111 7.74111 1 9.88889 1H12.1111C14.2589 1 16 2.74111 16 4.88889V6H14.8889V4.88889C14.8889 3.35477 13.6452 2.11111 12.1111 2.11111H9.88889C8.35477 2.11111 7.11111 3.35477 7.11111 4.88889V6H6V4.88889Z" fill="#323232" stroke="#323232" stroke-width="0.8"/>
<path fill-rule="evenodd" clip-rule="evenodd" d="M6 10.1111C6 12.2589 7.74111 14 9.88889 14H12.1111C14.2589 14 16 12.2589 16 10.1111V9H14.8889V10.1111C14.8889 11.6452 13.6452 12.8889 12.1111 12.8889H9.88889C8.35477 12.8889 7.11111 11.6452 7.11111 10.1111V9H6V10.1111Z" fill="#323232" stroke="#323232" stroke-width="0.8"/>
</svg>
