<svg width="88" height="87" viewBox="0 0 88 87" fill="none" xmlns="http://www.w3.org/2000/svg">
<path d="M79.2177 33.7188C79.1865 33.5314 79.1049 33.3558 78.9816 33.2102C78.8583 33.0646 78.6977 32.9544 78.5166 32.891C78.3355 32.8276 78.1405 32.8134 77.952 32.8498C77.7634 32.8863 77.5882 32.972 77.4446 33.0982L74.1795 35.9661L69.5573 33.4854C69.5273 33.4687 69.4936 33.4557 69.4617 33.4409L69.4298 33.4279C69.3754 33.4063 69.3189 33.3902 69.2612 33.3798H69.2162C69.1685 33.3717 69.1202 33.3674 69.0718 33.3668H69.0437H66.0729C65.9279 33.3608 65.7833 33.3839 65.6476 33.4346C65.5119 33.4853 65.388 33.5626 65.2833 33.6618C65.1786 33.7611 65.0953 33.8802 65.0383 34.0121C64.9814 34.144 64.9521 34.2859 64.9521 34.4293C64.9521 34.5727 64.9814 34.7146 65.0383 34.8465C65.0953 34.9784 65.1786 35.0975 65.2833 35.1968C65.388 35.296 65.5119 35.3733 65.6476 35.424C65.7833 35.4747 65.9279 35.4978 66.0729 35.4918H68.0709L70.5845 60.5805L73.0211 84.8744H62.4685C62.1912 84.8858 61.929 85.0028 61.7369 85.2008C61.5448 85.3988 61.4375 85.6625 61.4375 85.9369C61.4375 86.2112 61.5448 86.475 61.7369 86.673C61.929 86.871 62.1912 86.9879 62.4685 86.9994H75.9526C76.0975 87.0054 76.2422 86.9823 76.3779 86.9316C76.5136 86.8809 76.6375 86.8036 76.7422 86.7044C76.8469 86.6051 76.9302 86.4859 76.9871 86.3541C77.0441 86.2222 77.0734 86.0803 77.0734 85.9369C77.0734 85.7935 77.0441 85.6516 76.9871 85.5197C76.9302 85.3878 76.8469 85.2686 76.7422 85.1694C76.6375 85.0701 76.5136 84.9928 76.3779 84.9421C76.2422 84.8914 76.0975 84.8684 75.9526 84.8744H75.1785L71.3492 46.6392L70.3145 36.3125L73.3248 37.9317L77.5945 72.3634C77.6278 72.6196 77.7545 72.855 77.9509 73.0256C78.1472 73.1961 78.3997 73.29 78.6611 73.2897C78.7047 73.2925 78.7486 73.2925 78.7923 73.2897C78.9325 73.273 79.068 73.229 79.1911 73.1604C79.3141 73.0919 79.4223 72.9999 79.5094 72.89C79.5964 72.78 79.6607 72.6541 79.6984 72.5196C79.7362 72.385 79.7467 72.2444 79.7294 72.1059L75.4597 37.6798L77.4184 35.9642L85.6655 84.8577H81.3114L80.8503 81.1524C80.8332 81.0139 80.7887 80.8802 80.7193 80.7588C80.6499 80.6373 80.557 80.5306 80.4458 80.4447C80.3347 80.3588 80.2075 80.2953 80.0716 80.2579C79.9356 80.2206 79.7936 80.2101 79.6535 80.227C79.5135 80.2439 79.3782 80.2879 79.2553 80.3565C79.1325 80.4251 79.0245 80.5169 78.9375 80.6268C78.8506 80.7366 78.7864 80.8623 78.7486 80.9967C78.7108 81.1311 78.7002 81.2715 78.7173 81.4099L79.2927 86.0545C79.3264 86.3106 79.4532 86.5458 79.6494 86.7162C79.8457 86.8867 80.098 86.9807 80.3592 86.9808C80.4023 86.9808 80.4454 86.9808 80.4904 86.9808C80.5185 86.9808 80.5467 86.9901 80.5767 86.9901H86.9251C87.0813 86.99 87.2355 86.9564 87.3772 86.8914C87.5189 86.8265 87.6445 86.7319 87.7455 86.6141C87.8464 86.4964 87.9202 86.3583 87.9618 86.2095C88.0033 86.0607 88.0116 85.9048 87.986 85.7525L79.2177 33.7188Z" fill="#323232"/>
<path d="M25.0277 18.5266V33.3478H19.757C19.5208 27.9195 16.9305 23.2879 15.3391 20.935C15.1758 20.7126 14.9317 20.5613 14.658 20.5129C14.3843 20.4645 14.1022 20.5227 13.871 20.6753C13.6398 20.8279 13.4773 21.0631 13.4176 21.3315C13.358 21.6 13.4058 21.8808 13.551 22.1152C13.864 22.5783 14.2183 23.1397 14.5856 23.7826C13.684 24.1236 12.6932 24.1589 11.7691 23.8829C10.8449 23.6069 10.0397 23.0353 9.47989 22.2578L2.29548 12.272C2.17425 12.1034 2.12571 11.8942 2.16053 11.6903C2.19627 11.4867 2.31135 11.3051 2.48104 11.1845L8.29155 7.10864C8.3759 7.04913 8.47132 7.0067 8.57234 6.98381C8.67335 6.96091 8.77795 6.95801 8.8801 6.97525C8.98251 6.99148 9.08058 7.02789 9.16849 7.08231C9.25639 7.13673 9.33233 7.20806 9.3918 7.29206L16.5762 17.2705C17.1776 18.1053 17.4575 19.125 17.3653 20.1458C17.3502 20.4213 17.4441 20.6918 17.6271 20.9002C17.81 21.1086 18.0678 21.2386 18.3459 21.2626C18.6239 21.2867 18.9006 21.2029 19.1174 21.0291C19.3342 20.8553 19.4741 20.605 19.5077 20.3311C19.6446 18.8045 19.2259 17.2797 18.3269 16.031L11.1424 6.05078C10.6904 5.42364 10.005 4.99943 9.23684 4.87125C8.46865 4.74308 7.68039 4.92143 7.0451 5.36715L1.2346 9.45411C0.920173 9.67519 0.652903 9.95533 0.448059 10.2785C0.243215 10.6018 0.10481 10.9617 0.0407544 11.3378C-0.0233016 11.7139 -0.011754 12.0988 0.0747378 12.4705C0.16123 12.8422 0.32097 13.1934 0.544832 13.504L7.72924 23.4806C8.58765 24.6755 9.83389 25.5442 11.2609 25.9422C12.6878 26.3403 14.2097 26.2437 15.5734 25.6686C16.5762 27.801 17.4628 30.4558 17.6052 33.346H14.6231C14.3572 33.3459 14.1007 33.4432 13.9031 33.619C13.7054 33.7949 13.5807 34.0368 13.5529 34.2982L12.4751 44.5342C12.4603 44.6729 12.4734 44.8131 12.5136 44.9468C12.5537 45.0806 12.6202 45.2051 12.7092 45.3134C12.7982 45.4217 12.9079 45.5115 13.0321 45.5778C13.1563 45.644 13.2925 45.6854 13.4329 45.6995C13.4703 45.7023 13.5079 45.7023 13.5454 45.6995C13.811 45.6991 14.067 45.6016 14.2643 45.4258C14.4615 45.25 14.586 45.0083 14.6138 44.7472L15.5922 35.4691H25.0277V41.4884C25.0393 41.7625 25.1576 42.0216 25.3579 42.2115C25.5582 42.4014 25.8251 42.5074 26.1026 42.5074C26.3802 42.5074 26.647 42.4014 26.8474 42.2115C27.0477 42.0216 27.166 41.7625 27.1776 41.4884V18.5266C27.1776 14.1756 28.9262 10.0029 32.0389 6.92629C35.1515 3.8497 39.3731 2.12129 43.775 2.12129C48.1769 2.12129 52.3985 3.8497 55.5112 6.92629C58.6238 10.0029 60.3724 14.1756 60.3724 18.5266V33.3478H30.7426C30.4653 33.3593 30.2032 33.4762 30.011 33.6742C29.8189 33.8722 29.7116 34.136 29.7116 34.4103C29.7116 34.6847 29.8189 34.9484 30.011 35.1464C30.2032 35.3444 30.4653 35.4614 30.7426 35.4728H60.3724V41.4884C60.384 41.7625 60.5023 42.0216 60.7027 42.2115C60.903 42.4014 61.1698 42.5074 61.4474 42.5074C61.725 42.5074 61.9918 42.4014 62.1921 42.2115C62.3924 42.0216 62.5107 41.7625 62.5223 41.4884V18.5266C62.5223 13.613 60.5476 8.90071 57.0325 5.42631C53.5174 1.9519 48.7499 0 43.7788 0C38.8077 0 34.0402 1.9519 30.5251 5.42631C27.0099 8.90071 25.0352 13.613 25.0352 18.5266H25.0277Z" fill="#323232"/>
<path d="M36.7103 29.738V18.5257C36.715 15.9318 37.3397 13.3756 38.5335 11.0656C39.7272 8.75562 41.4563 6.75708 43.5798 5.23289C43.8107 5.06706 43.9655 4.81735 44.0101 4.5387C44.0548 4.26006 43.9856 3.97529 43.8178 3.74706C43.6501 3.51882 43.3974 3.36581 43.1155 3.32169C42.8336 3.27756 42.5455 3.34594 42.3146 3.51177C39.9177 5.23292 37.9657 7.48914 36.6176 10.0968C35.2695 12.7045 34.5634 15.5899 34.5566 18.5183V29.7306C34.5682 30.0047 34.6865 30.2638 34.8869 30.4537C35.0872 30.6436 35.354 30.7496 35.6316 30.7496C35.9092 30.7496 36.176 30.6436 36.3763 30.4537C36.5766 30.2638 36.6949 30.0047 36.7065 29.7306L36.7103 29.738Z" fill="#323232"/>
<path d="M70.9817 30.801C71.1228 30.8012 71.2626 30.7739 71.393 30.7206C71.5234 30.6674 71.6419 30.5892 71.7417 30.4906C71.8414 30.3919 71.9205 30.2748 71.9744 30.1459C72.0283 30.017 72.0559 29.8789 72.0557 29.7394V18.5271C72.0569 14.1204 70.4689 9.85748 67.5768 6.50376C64.6846 3.15004 60.6777 0.925115 56.2755 0.228409C55.999 0.195345 55.7204 0.269486 55.4982 0.435247C55.2759 0.601009 55.1273 0.845481 55.0836 1.11728C55.04 1.38907 55.1046 1.66703 55.2639 1.89271C55.4233 2.11839 55.6649 2.27423 55.9381 2.32747C59.8423 2.92869 63.3989 4.89404 65.9618 7.86655C68.5248 10.8391 69.9242 14.6216 69.9058 18.5271V29.7394C69.9058 29.8789 69.9336 30.0171 69.9877 30.1461C70.0418 30.275 70.1211 30.3921 70.221 30.4907C70.3209 30.5893 70.4396 30.6674 70.5701 30.7207C70.7006 30.7739 70.8405 30.8012 70.9817 30.801Z" fill="#323232"/>
<path d="M58.5477 82.715V57.6633C58.5472 57.3816 58.4336 57.1116 58.2319 56.9126C58.0302 56.7136 57.7568 56.6018 57.4718 56.6018H2.15012V52.7631C2.15062 52.1952 2.37906 51.6507 2.7853 51.2492C3.19154 50.8477 3.74237 50.6219 4.31688 50.6214H54.231C54.8055 50.6219 55.3564 50.8477 55.7626 51.2492C56.1688 51.6507 56.3973 52.1952 56.3978 52.7631V54.1729C56.3917 54.3162 56.415 54.4592 56.4663 54.5933C56.5176 54.7274 56.5958 54.8499 56.6962 54.9534C56.7967 55.0569 56.9172 55.1392 57.0506 55.1955C57.1841 55.2517 57.3276 55.2807 57.4727 55.2807C57.6178 55.2807 57.7613 55.2517 57.8948 55.1955C58.0282 55.1392 58.1488 55.0569 58.2492 54.9534C58.3496 54.8499 58.4278 54.7274 58.4791 54.5933C58.5304 54.4592 58.5537 54.3162 58.5477 54.1729V52.7631C58.5452 51.6337 58.0902 50.5513 57.2823 49.7527C56.4743 48.9541 55.3792 48.5044 54.2366 48.502H4.31688C3.17429 48.5044 2.0792 48.9541 1.27126 49.7527C0.463326 50.5513 0.00833521 51.6337 0.00585938 52.7631V82.715C0.00833521 83.8443 0.463326 84.9267 1.27126 85.7253C2.0792 86.5239 3.17429 86.9736 4.31688 86.9761H54.231C55.3746 86.9751 56.4711 86.526 57.2803 85.7273C58.0894 84.9285 58.5452 83.8453 58.5477 82.715ZM56.3978 58.7268V64.6664H2.15012V58.7268H56.3978ZM2.15012 82.715V66.7821H56.3978V82.715C56.3968 83.2827 56.1682 83.8268 55.762 84.2283C55.3559 84.6297 54.8054 84.8557 54.231 84.8566H4.31688C3.74253 84.8557 3.19198 84.6297 2.78585 84.2283C2.37972 83.8268 2.15111 83.2827 2.15012 82.715Z" fill="#323232"/>
<path d="M26.1022 70.6748H13.7165C13.5715 70.6688 13.4269 70.6918 13.2912 70.7425C13.1555 70.7932 13.0316 70.8705 12.9269 70.9698C12.8222 71.069 12.7389 71.1882 12.682 71.3201C12.625 71.452 12.5957 71.5939 12.5957 71.7373C12.5957 71.8806 12.625 72.0226 12.682 72.1544C12.7389 72.2863 12.8222 72.4055 12.9269 72.5047C13.0316 72.604 13.1555 72.6813 13.2912 72.732C13.4269 72.7827 13.5715 72.8057 13.7165 72.7998H26.1022C26.2472 72.8057 26.3918 72.7827 26.5275 72.732C26.6632 72.6813 26.7872 72.604 26.8919 72.5047C26.9965 72.4055 27.0799 72.2863 27.1368 72.1544C27.1937 72.0226 27.223 71.8806 27.223 71.7373C27.223 71.5939 27.1937 71.452 27.1368 71.3201C27.0799 71.1882 26.9965 71.069 26.8919 70.9698C26.7872 70.8705 26.6632 70.7932 26.5275 70.7425C26.3918 70.6918 26.2472 70.6688 26.1022 70.6748Z" fill="#323232"/>
<path d="M31.9581 71.3312C31.9317 71.2665 31.8991 71.2045 31.8606 71.1459C31.821 71.0886 31.7765 71.0346 31.7276 70.9848C31.5255 70.7856 31.2519 70.6738 30.9666 70.6738C30.6813 70.6738 30.4076 70.7856 30.2056 70.9848C30.1572 71.0351 30.1127 71.089 30.0725 71.1459C30.0348 71.2049 30.0022 71.2668 29.975 71.3312C29.9477 71.3957 29.927 71.4627 29.9132 71.5313C29.8857 71.6677 29.8857 71.8081 29.9132 71.9444C29.927 72.013 29.9477 72.08 29.975 72.1445C30.0022 72.2089 30.0348 72.2709 30.0725 72.3298C30.1127 72.3867 30.1572 72.4406 30.2056 72.491C30.4076 72.6901 30.6813 72.8019 30.9666 72.8019C31.2519 72.8019 31.5255 72.6901 31.7276 72.491C31.7765 72.4411 31.821 72.3872 31.8606 72.3298C31.8991 72.2713 31.9317 72.2092 31.9581 72.1445C31.9855 72.08 32.0062 72.013 32.02 71.9444C32.05 71.8083 32.05 71.6674 32.02 71.5313C32.0062 71.4627 31.9855 71.3957 31.9581 71.3312Z" fill="#323232"/>
<path d="M36.6279 71.3314C36.6008 71.2666 36.5676 71.2046 36.5285 71.1461C36.4902 71.0883 36.4462 71.0344 36.3973 70.9849C36.3458 70.9365 36.2906 70.8919 36.2324 70.8515C36.1728 70.8142 36.1101 70.782 36.045 70.7552C35.8816 70.6881 35.704 70.6618 35.528 70.6789C35.3519 70.6959 35.1829 70.7556 35.0358 70.8528C34.8887 70.95 34.7682 71.0815 34.685 71.2358C34.6017 71.3901 34.5583 71.5623 34.5586 71.7371C34.5591 72.0188 34.6727 72.2888 34.8744 72.4879C35.0761 72.6869 35.3495 72.7987 35.6345 72.7987C35.7049 72.7982 35.7752 72.7914 35.8444 72.7783C35.9818 72.7498 36.1128 72.6964 36.2305 72.6208C36.2888 72.5804 36.3439 72.5359 36.3955 72.4874C36.4443 72.438 36.4883 72.384 36.5267 72.3262C36.5657 72.2678 36.599 72.2057 36.626 72.141C36.6534 72.0765 36.6741 72.0095 36.6879 71.9409C36.7153 71.8045 36.7153 71.6641 36.6879 71.5278C36.6744 71.4605 36.6544 71.3947 36.6279 71.3314Z" fill="#323232"/>
<path d="M41.3117 71.3317C41.2824 71.2681 41.2492 71.2062 41.2124 71.1465C41.1715 71.0895 41.1264 71.0356 41.0774 70.9853C40.9523 70.8622 40.7984 70.7715 40.6294 70.7211C40.4604 70.6707 40.2815 70.6622 40.1084 70.6963C40.039 70.7093 39.9712 70.7291 39.9059 70.7556C39.8408 70.7831 39.7781 70.8159 39.7185 70.8538C39.6604 70.8929 39.6059 70.9369 39.5554 70.9853C39.4555 71.0839 39.3762 71.201 39.3222 71.3299C39.2681 71.4588 39.2402 71.597 39.2402 71.7366C39.2402 71.8761 39.2681 72.0143 39.3222 72.1432C39.3762 72.2721 39.4555 72.3892 39.5554 72.4878C39.6063 72.5362 39.6608 72.5808 39.7185 72.6212C39.7785 72.6577 39.8412 72.6899 39.9059 72.7175C39.9715 72.7437 40.0392 72.7642 40.1084 72.7787C40.1775 72.792 40.2478 72.7988 40.3183 72.7991C40.6028 72.7975 40.8753 72.6857 41.0774 72.4878C41.1264 72.4375 41.1715 72.3836 41.2124 72.3266C41.2493 72.2673 41.2819 72.2054 41.3098 72.1414C41.3363 72.0766 41.357 72.0096 41.3717 71.9413C41.385 71.8735 41.3919 71.8047 41.3923 71.7356C41.393 71.6659 41.386 71.5964 41.3717 71.5281C41.3566 71.4613 41.3366 71.3957 41.3117 71.3317Z" fill="#323232"/>
</svg>
