<svg width="123" height="65" viewBox="0 0 123 65" fill="none" xmlns="http://www.w3.org/2000/svg">
<rect x="5.24297" y="20.2723" width="35.7" height="44.0286" rx="4.3" fill="#F5F5F5" stroke="#323232" stroke-width="1.4"/>
<rect x="21.8992" y="45.2566" width="2.38572" height="8.44286" rx="1.19286" fill="white" stroke="#323232" stroke-width="1.4"/>
<rect x="0.378571" y="0.378571" width="0.757143" height="6.05714" rx="0.378571" transform="matrix(-4.37114e-08 1 1 4.37114e-08 15.1426 46.0723)" fill="white" stroke="#323232" stroke-width="0.757143"/>
<rect x="1.45781" y="18.0008" width="42.5143" height="4.65714" rx="2.32857" fill="#F5F5F5" stroke="#323232" stroke-width="1.4"/>
<path d="M0.7 27.8991C0.7 27.4493 1.06457 27.0848 1.51429 27.0848H4.6V28.7133H1.51429C1.06457 28.7133 0.7 28.3488 0.7 27.8991Z" fill="white" stroke="#323232" stroke-width="1.4"/>
<path d="M45.4855 27.8991C45.4855 27.4493 45.121 27.0848 44.6713 27.0848H41.5855V28.7133H44.6713C45.121 28.7133 45.4855 28.3488 45.4855 27.8991Z" fill="white" stroke="#323232" stroke-width="1.4"/>
<line x1="4.54297" y1="56.7277" x2="40.8858" y2="56.7277" stroke="#323232" stroke-width="1.4"/>
<line x1="4.54297" y1="60.5148" x2="40.8858" y2="60.5148" stroke="#323232" stroke-width="1.4"/>
<line x1="4.54297" y1="31.7434" x2="40.8858" y2="31.7434" stroke="#323232" stroke-width="1.4"/>
<path d="M19.6277 16.2715C19.6277 15.5535 20.2098 14.9715 20.9277 14.9715H25.2563C25.9743 14.9715 26.5563 15.5535 26.5563 16.2715V17.3572H19.6277V16.2715Z" stroke="#323232" stroke-width="1.4"/>
<path d="M9.70102 15.3105C9.62295 14.7601 9.90655 14.2002 10.436 13.9515L11.4307 13.4845C11.9602 13.2359 12.5722 13.3753 12.9458 13.7869L9.70102 15.3105Z" fill="#323232" stroke="#323232" stroke-width="1.15885"/>
<line x1="13.0287" y1="17.6609" x2="10.7572" y2="13.8752" stroke="#323232" stroke-width="1.4"/>
<path d="M36.7853 15.3105C36.8634 14.7601 36.5798 14.2002 36.0503 13.9515L35.0556 13.4845C34.5261 13.2359 33.9142 13.3753 33.5405 13.7869L36.7853 15.3105Z" fill="#323232" stroke="#323232" stroke-width="1.15885"/>
<line y1="-0.7" x2="4.41486" y2="-0.7" transform="matrix(0.514496 -0.857493 -0.857493 -0.514496 32.8574 17.3008)" stroke="#323232" stroke-width="1.4"/>
<rect x="82.0145" y="20.2723" width="35.7" height="44.0286" rx="4.3" fill="#F5F5F5" stroke="#323232" stroke-width="1.4"/>
<rect x="98.6707" y="45.2566" width="2.38572" height="8.44286" rx="1.19286" fill="white" stroke="#323232" stroke-width="1.4"/>
<rect x="0.378571" y="0.378571" width="0.757143" height="6.05714" rx="0.378571" transform="matrix(-4.37114e-08 1 1 4.37114e-08 91.9141 46.0723)" fill="white" stroke="#323232" stroke-width="0.757143"/>
<rect x="78.2293" y="18.0008" width="42.5143" height="4.65714" rx="2.32857" fill="#F5F5F5" stroke="#323232" stroke-width="1.4"/>
<path d="M77.4715 27.8991C77.4715 27.4493 77.8361 27.0848 78.2858 27.0848H81.3715V28.7133H78.2858C77.8361 28.7133 77.4715 28.3488 77.4715 27.8991Z" fill="white" stroke="#323232" stroke-width="1.4"/>
<path d="M122.257 27.8991C122.257 27.4493 121.892 27.0848 121.443 27.0848H118.357V28.7133H121.443C121.892 28.7133 122.257 28.3488 122.257 27.8991Z" fill="white" stroke="#323232" stroke-width="1.4"/>
<line x1="81.3145" y1="56.7277" x2="117.657" y2="56.7277" stroke="#323232" stroke-width="1.4"/>
<line x1="81.3145" y1="60.5148" x2="117.657" y2="60.5148" stroke="#323232" stroke-width="1.4"/>
<line x1="81.3145" y1="31.7434" x2="117.657" y2="31.7434" stroke="#323232" stroke-width="1.4"/>
<path d="M96.3992 16.2715C96.3992 15.5535 96.9812 14.9715 97.6992 14.9715H102.028C102.746 14.9715 103.328 15.5535 103.328 16.2715V17.3572H96.3992V16.2715Z" stroke="#323232" stroke-width="1.4"/>
<path d="M86.4725 15.3105C86.3944 14.7601 86.678 14.2002 87.2075 13.9515L88.2022 13.4845C88.7317 13.2359 89.3437 13.3753 89.7173 13.7869L86.4725 15.3105Z" fill="#323232" stroke="#323232" stroke-width="1.15885"/>
<line x1="89.8001" y1="17.6609" x2="87.5287" y2="13.8752" stroke="#323232" stroke-width="1.4"/>
<path d="M113.557 15.3105C113.635 14.7601 113.351 14.2002 112.822 13.9515L111.827 13.4845C111.298 13.2359 110.686 13.3753 110.312 13.7869L113.557 15.3105Z" fill="#323232" stroke="#323232" stroke-width="1.15885"/>
<line y1="-0.7" x2="4.41486" y2="-0.7" transform="matrix(0.514496 -0.857493 -0.857493 -0.514496 109.629 17.3008)" stroke="#323232" stroke-width="1.4"/>
<rect x="39.0437" y="9.98516" width="44.1" height="54.3143" rx="4.3" fill="#F5F5F5" stroke="#323232" stroke-width="1.4"/>
<rect x="59.4715" y="40.6277" width="3.24286" height="10.6714" rx="1.62143" fill="white" stroke="#323232" stroke-width="1.4"/>
<rect x="0.464286" y="0.464286" width="0.928571" height="7.42857" rx="0.464286" transform="matrix(-4.37114e-08 1 1 4.37114e-08 51.3437 41.7852)" fill="white" stroke="#323232" stroke-width="0.928571"/>
<rect x="34.3992" y="7.2" width="52.4571" height="6.02857" rx="3.01429" fill="#F5F5F5" stroke="#323232" stroke-width="1.4"/>
<path d="M33.4715 19.4997C33.4715 18.8606 33.9896 18.3426 34.6286 18.3426H38.5715V20.6569H34.6286C33.9896 20.6569 33.4715 20.1388 33.4715 19.4997Z" fill="white" stroke="#323232" stroke-width="1.4"/>
<path d="M88.7141 19.4997C88.7141 18.8606 88.196 18.3426 87.5569 18.3426H83.6141V20.6569H87.5569C88.196 20.6569 88.7141 20.1388 88.7141 19.4997Z" fill="white" stroke="#323232" stroke-width="1.4"/>
<line x1="38.3438" y1="55.0148" x2="82.9152" y2="55.0148" stroke="#323232" stroke-width="1.4"/>
<line x1="38.3438" y1="59.6574" x2="82.9152" y2="59.6574" stroke="#323232" stroke-width="1.4"/>
<line x1="38.3438" y1="24.3723" x2="82.9152" y2="24.3723" stroke="#323232" stroke-width="1.4"/>
<path d="M56.6844 4.78516C56.6844 4.06719 57.2664 3.48516 57.9844 3.48516H64.1987C64.9166 3.48516 65.4987 4.06719 65.4987 4.78516V6.72801H56.6844V4.78516Z" stroke="#323232" stroke-width="1.4"/>
<path d="M44.47 4.17105C44.1649 3.52115 44.4443 2.74693 45.0942 2.44178L47.1339 1.48402C47.7838 1.17887 48.5581 1.45833 48.8632 2.10823L48.9238 2.23718L44.5306 4.3L44.47 4.17105Z" fill="#323232" stroke="#323232" stroke-width="1.4"/>
<line x1="48.8861" y1="6.86015" x2="46.1004" y2="2.21729" stroke="#323232" stroke-width="1.4"/>
<path d="M78.0847 4.17105C78.3898 3.52115 78.1104 2.74693 77.4605 2.44178L75.4207 1.48402C74.7708 1.17887 73.9966 1.45833 73.6915 2.10823L73.6309 2.23718L78.0241 4.3L78.0847 4.17105Z" fill="#323232" stroke="#323232" stroke-width="1.4"/>
<line y1="-0.7" x2="5.41445" y2="-0.7" transform="matrix(0.514496 -0.857493 -0.857493 -0.514496 73.0684 6.5)" stroke="#323232" stroke-width="1.4"/>
</svg>
