<svg width="90" height="73" viewBox="0 0 90 73" fill="none" xmlns="http://www.w3.org/2000/svg">
<path d="M1.616 72H38.1438H88.384C88.7231 72 89 71.7234 89 71.379V32.4323C89 32.0906 88.7257 31.8114 88.384 31.8114H84.9882V1.62098C84.9882 1.27918 84.7113 1 84.3722 1H69.2647C68.9257 1 68.6487 1.27657 68.6487 1.62098V31.8114H57.9075V1.62098C57.9075 1.27918 57.6332 1 57.2915 1H42.1866C41.8475 1 41.5706 1.27657 41.5706 1.62098V31.8114H38.7598V13.67C38.7598 13.3282 38.4828 13.049 38.1438 13.049H1.616C1.27694 13.049 1 13.3256 1 13.6674V71.379C1 71.7234 1.27694 72 1.616 72ZM83.7588 16.4044H69.8833V14.2884H83.7588V16.4044ZM83.7588 13.049H69.8833V6.84709H83.7588V13.049ZM69.8833 17.6463H83.7588V24.1066H69.8833V17.6463ZM83.7588 2.24195V5.60514H69.8833V2.24195H83.7588ZM69.8833 25.3485H83.7588V31.8088H69.8833V25.3485ZM56.6781 16.4044H42.8026V14.2884H56.6781V16.4044ZM56.6781 13.049H42.8026V6.84709H56.6781V13.049ZM42.8026 17.6463H56.6781V24.1066H42.8026V17.6463ZM56.6781 2.24195V5.60514H42.8026V2.24195H56.6781ZM42.8026 25.3485H56.6781V31.8088H42.8026V25.3485ZM42.1866 33.0533H57.2915H69.2647H84.3722H87.768V70.7581H38.7598V33.0533H42.1866ZM2.232 14.2884H37.5278V32.4297V70.7581H2.232V14.2884Z" fill="#323232" stroke="#323232" stroke-width="0.5"/>
<path d="M33.2277 18.709H6.53006C6.191 18.709 5.91406 18.9882 5.91406 19.33V66.4302C5.91406 66.772 6.191 67.0512 6.53006 67.0512H33.2277C33.5668 67.0512 33.8437 66.772 33.8437 66.4302V19.3274C33.8437 18.9856 33.5694 18.709 33.2277 18.709ZM19.2642 42.2591H7.14606V31.9921H19.2642V42.2591ZM20.4962 31.9895H32.6143V42.2565H20.4962V31.9895ZM7.14606 43.4985H19.2642V53.7654H7.14606V43.4985ZM20.4962 43.4985H32.6143V53.7654H20.4962V43.4985ZM32.6117 30.7476H20.4936V19.9483H32.6117V30.7476ZM19.2642 19.9483V30.7476H7.14606V19.9483H19.2642ZM7.14606 55.01H19.2642V65.8093H7.14606V55.01ZM20.4962 65.8093V55.01H32.6143V65.8093H20.4962Z" fill="#323232" stroke="#323232" stroke-width="0.5"/>
<path d="M43.0672 67.05H57.2947C57.6338 67.05 57.9107 66.7709 57.9107 66.4291V35.9725C57.9107 35.6307 57.6364 35.3516 57.2947 35.3516H43.0672C42.7281 35.3516 42.4512 35.6307 42.4512 35.9725V66.4291C42.4512 66.7709 42.7255 67.05 43.0672 67.05ZM50.7956 51.8205H56.6787V58.0224H50.7956V51.8205ZM49.5636 58.0224H43.6806V51.8205H49.5636V58.0224ZM56.6787 50.5785H50.7956V44.3792H56.6787V50.5785ZM49.5636 50.5785H43.6806V44.3792H49.5636V50.5785ZM43.6832 59.2644H49.5662V65.8081H43.6832V59.2644ZM50.7956 65.8081V59.2644H56.6787V65.8081H50.7956ZM56.6787 43.1372H50.7956V36.5935H56.6787V43.1372ZM49.5636 36.5935V43.1372H43.6806V36.5935H49.5636Z" fill="#323232" stroke="#323232" stroke-width="0.5"/>
<path d="M69.2664 67.05H84.3739C84.713 67.05 84.9899 66.7709 84.9899 66.4291V35.9725C84.9899 35.6307 84.713 35.3516 84.3739 35.3516H69.2664C68.9273 35.3516 68.6504 35.6307 68.6504 35.9725V66.4291C68.6504 66.7709 68.9273 67.05 69.2664 67.05ZM77.4349 51.8205H83.7553V58.0224H77.4349V51.8205ZM76.2029 58.0224H69.8824V51.8205H76.2029V58.0224ZM83.7579 50.5785H77.4375V44.3792H83.7579V50.5785ZM76.2029 50.5785H69.8824V44.3792H76.2029V50.5785ZM69.8824 59.2644H76.2029V65.8081H69.8824V59.2644ZM77.4349 65.8081V59.2644H83.7553V65.8081H77.4349ZM83.7579 43.1372H77.4375V36.5935H83.7579V43.1372ZM76.2029 36.5935V43.1372H69.8824V36.5935H76.2029Z" fill="#323232" stroke="#323232" stroke-width="0.5"/>
</svg>
