<svg width="113" height="87" viewBox="0 0 113 87" fill="none" xmlns="http://www.w3.org/2000/svg">
<path d="M26.2313 80.1318H14.989C14.6832 80.1318 14.3899 80.0112 14.1737 79.7965C13.9574 79.5818 13.8359 79.2907 13.8359 78.987V21.7502C13.8359 21.4466 13.9574 21.1554 14.1737 20.9408C14.3899 20.7261 14.6832 20.6055 14.989 20.6055H26.5196V22.8949H16.1421V77.8423H26.2313V80.1318Z" fill="#323232"/>
<path d="M33.4386 86.999C31.8422 86.999 30.2817 86.529 28.9544 85.6485C27.627 84.768 26.5925 83.5165 25.9816 82.0523C25.3707 80.5881 25.2108 78.9769 25.5223 77.4225C25.8337 75.8681 26.6024 74.4403 27.7313 73.3197C28.8601 72.199 30.2983 71.4358 31.864 71.1266C33.4297 70.8174 35.0526 70.9761 36.5274 71.5826C38.0023 72.1891 39.2629 73.2162 40.1498 74.5339C41.0367 75.8517 41.5101 77.401 41.5101 78.9858C41.5101 81.111 40.6597 83.1492 39.146 84.652C37.6323 86.1547 35.5793 86.999 33.4386 86.999ZM33.4386 73.2621C32.2984 73.2621 31.1837 73.5978 30.2356 74.2267C29.2875 74.8557 28.5485 75.7496 28.1122 76.7955C27.6758 77.8413 27.5616 78.9922 27.7841 80.1024C28.0065 81.2127 28.5556 82.2326 29.3619 83.0331C30.1682 83.8335 31.1955 84.3787 32.3139 84.5995C33.4322 84.8204 34.5914 84.707 35.6449 84.2738C36.6984 83.8406 37.5988 83.107 38.2323 82.1657C38.8658 81.2245 39.2039 80.1179 39.2039 78.9858C39.2039 77.4678 38.5965 76.012 37.5153 74.9386C36.4341 73.8652 34.9677 73.2621 33.4386 73.2621Z" fill="#323232"/>
<path d="M47.2756 43.5C42.9426 43.5 38.7069 42.2244 35.1041 39.8345C31.5013 37.4445 28.6933 34.0477 27.0351 30.0734C25.3769 26.0991 24.9431 21.7259 25.7884 17.5068C26.6337 13.2877 28.7203 9.41223 31.7842 6.37044C34.8481 3.32865 38.7518 1.25716 43.0015 0.41793C47.2513 -0.421299 51.6563 0.00942388 55.6595 1.65563C59.6627 3.30184 63.0843 6.08959 65.4916 9.66636C67.8989 13.2431 69.1838 17.4483 69.1838 21.75C69.1838 27.5185 66.8756 33.0507 62.767 37.1296C58.6584 41.2085 53.086 43.5 47.2756 43.5ZM47.2756 2.28948C43.3987 2.28948 39.6088 3.43082 36.3853 5.56917C33.1618 7.70752 30.6493 10.7468 29.1657 14.3028C27.682 17.8587 27.2939 21.7716 28.0502 25.5466C28.8066 29.3215 30.6735 32.7891 33.4149 35.5107C36.1563 38.2323 39.649 40.0857 43.4514 40.8366C47.2539 41.5875 51.1952 41.2021 54.777 39.7292C58.3588 38.2563 61.4202 35.762 63.5741 32.5617C65.728 29.3614 66.8777 25.5989 66.8777 21.75C66.8777 16.5888 64.8124 11.6389 61.1363 7.98934C57.4603 4.33978 52.4744 2.28948 47.2756 2.28948Z" fill="#323232"/>
<path d="M23.0603 51.5137H4.61133V53.8031H23.0603V51.5137Z" fill="#323232"/>
<path d="M87.632 77.8418H79.5605V80.1313H87.632V77.8418Z" fill="#323232"/>
<path d="M111.846 80.1322H101.469V77.8427H110.693V61.0036L98.5399 42.3559H79.5605V40.0664H99.1626C99.3555 40.0667 99.5453 40.1151 99.7145 40.2071C99.8837 40.2991 100.027 40.4318 100.131 40.593L112.815 60.0535C112.935 60.2378 112.999 60.4523 112.999 60.6717V78.9875C112.999 79.2911 112.878 79.5822 112.662 79.7969C112.445 80.0116 112.152 80.1322 111.846 80.1322Z" fill="#323232"/>
<path d="M79.5604 80.1318H40.6445V77.8423H78.4073V22.8949H68.0297V20.6055H79.5604C79.8662 20.6055 80.1595 20.7261 80.3757 20.9408C80.5919 21.1554 80.7134 21.4466 80.7134 21.7502V78.987C80.7134 79.2907 80.5919 79.5818 80.3757 79.7965C80.1595 80.0112 79.8662 80.1318 79.5604 80.1318Z" fill="#323232"/>
<path d="M94.5519 86.999C92.9555 86.999 91.395 86.529 90.0677 85.6485C88.7403 84.768 87.7058 83.5165 87.0949 82.0523C86.484 80.5881 86.3241 78.9769 86.6356 77.4225C86.947 75.8681 87.7157 74.4403 88.8445 73.3197C89.9733 72.199 91.4115 71.4358 92.9772 71.1266C94.5429 70.8174 96.1658 70.9761 97.6407 71.5826C99.1156 72.1891 100.376 73.2162 101.263 74.5339C102.15 75.8517 102.623 77.401 102.623 78.9858C102.623 81.111 101.773 83.1492 100.259 84.652C98.7456 86.1547 96.6926 86.999 94.5519 86.999ZM94.5519 73.2621C93.4116 73.2621 92.297 73.5978 91.3489 74.2267C90.4008 74.8557 89.6618 75.7496 89.2254 76.7955C88.7891 77.8413 88.6749 78.9922 88.8974 80.1024C89.1198 81.2127 89.6689 82.2326 90.4752 83.0331C91.2815 83.8335 92.3088 84.3787 93.4271 84.5995C94.5455 84.8204 95.7047 84.707 96.7582 84.2738C97.8117 83.8406 98.7121 83.107 99.3456 82.1657C99.9791 81.2245 100.317 80.1179 100.317 78.9858C100.317 77.4678 99.7098 76.012 98.6286 74.9386C97.5474 73.8652 96.081 73.2621 94.5519 73.2621Z" fill="#323232"/>
<path d="M103.776 61.815H87.6335C87.3277 61.815 87.0344 61.6944 86.8182 61.4797C86.602 61.265 86.4805 60.9738 86.4805 60.6702V49.2229C86.4805 48.9193 86.602 48.6281 86.8182 48.4134C87.0344 48.1987 87.3277 48.0781 87.6335 48.0781H96.858C97.0581 48.0782 97.2548 48.1299 97.4286 48.2282C97.6025 48.3266 97.7476 48.4682 97.8497 48.639L104.768 60.0864C104.872 60.2602 104.927 60.4582 104.929 60.6602C104.931 60.8623 104.879 61.0612 104.778 61.2368C104.677 61.4123 104.532 61.5583 104.356 61.6599C104.18 61.7614 103.98 61.8149 103.776 61.815ZM88.7866 59.5255H101.735L96.2008 50.3676H88.7866V59.5255Z" fill="#323232"/>
<path d="M54.1945 23.4903H47.2761C46.9703 23.4903 46.677 23.3697 46.4608 23.1551C46.2445 22.9404 46.123 22.6492 46.123 22.3456V12.043H48.4292V21.2009H54.1945V23.4903Z" fill="#323232"/>
<path d="M23.0612 40.0664H0V42.3559H23.0612V40.0664Z" fill="#323232"/>
<path d="M23.0603 28.6191H4.61133V30.9086H23.0603V28.6191Z" fill="#323232"/>
</svg>
