<svg width="76" height="84" viewBox="0 0 76 84" fill="none" xmlns="http://www.w3.org/2000/svg">
<path d="M74.187 6.0203H60.1278L42.7947 0.36532C41.7539 0.0247455 40.6502 -0.0795048 39.564 0.0601544C38.4778 0.199814 37.4364 0.579869 36.5156 1.17267L26.0716 7.88218C25.9589 7.95446 25.8616 8.04822 25.7852 8.15812C25.7087 8.26801 25.6547 8.39189 25.6261 8.52267C25.5975 8.65345 25.595 8.78858 25.6187 8.92034C25.6423 9.0521 25.6917 9.17792 25.764 9.29059C25.8362 9.40327 25.93 9.50061 26.0399 9.57705C26.1498 9.65349 26.2737 9.70754 26.4045 9.73611C26.5352 9.76467 26.6704 9.7672 26.8021 9.74355C26.9339 9.71989 27.0597 9.67052 27.1724 9.59824L37.6163 2.89762C38.2833 2.46928 39.0375 2.19528 39.8238 2.0956C40.6102 1.99592 41.4089 2.07308 42.1616 2.32145L59.6548 8.012C59.7563 8.04538 59.8626 8.0622 59.9695 8.06179H73.1698V25.1886H65.5854C65.3985 25.1888 65.2153 25.2403 65.0557 25.3375C64.896 25.4347 64.7662 25.5739 64.6802 25.7398C63.5378 27.6723 61.793 29.1766 59.7134 30.022V25.4393C61.3477 24.7422 63.0922 23.5294 64.2054 21.415C64.2681 21.2964 64.3068 21.1666 64.3194 21.033C64.3319 20.8994 64.318 20.7646 64.2785 20.6364C64.2389 20.5082 64.1745 20.389 64.0889 20.2857C64.0033 20.1823 63.8982 20.0969 63.7795 20.0342C63.6609 19.9715 63.5311 19.9328 63.3975 19.9202C63.2639 19.9077 63.1291 19.9216 63.0009 19.9611C62.8727 20.0007 62.7535 20.0651 62.6502 20.1507C62.5468 20.2363 62.4614 20.3414 62.3987 20.4601C60.4603 24.166 55.6411 24.3314 55.6145 24.3314C49.1592 24.3314 47.2956 19.8252 47.2209 19.6385C47.1469 19.4461 47.0165 19.2806 46.8466 19.1638C46.6768 19.047 46.4756 18.9844 46.2695 18.9841H36.6898C36.3266 18.9934 35.9651 18.9298 35.6268 18.7972C35.2884 18.6646 34.9801 18.4657 34.7199 18.212C34.4596 17.9584 34.2528 17.6552 34.1116 17.3203C33.9704 16.9855 33.8977 16.6258 33.8977 16.2624C33.8977 15.899 33.9704 15.5393 34.1116 15.2045C34.2528 14.8696 34.4596 14.5665 34.7199 14.3128C34.9801 14.0592 35.2884 13.8602 35.6268 13.7276C35.9651 13.595 36.3266 13.5314 36.6898 13.5407H48.1243C48.2618 13.5465 48.399 13.5243 48.5278 13.4757C48.6565 13.427 48.7741 13.3528 48.8734 13.2576C48.9728 13.1623 49.0518 13.0479 49.1058 12.9213C49.1598 12.7947 49.1876 12.6585 49.1876 12.5209C49.1876 12.3832 49.1598 12.247 49.1058 12.1204C49.0518 11.9938 48.9728 11.8795 48.8734 11.7842C48.7741 11.6889 48.6565 11.6147 48.5278 11.5661C48.399 11.5174 48.2618 11.4953 48.1243 11.501H36.6898C36.0568 11.4888 35.4277 11.6029 34.8393 11.8367C34.2509 12.0705 33.7151 12.4192 33.2631 12.8626C32.8111 13.3059 32.452 13.835 32.2069 14.4187C31.9618 15.0025 31.8355 15.6293 31.8355 16.2624C31.8355 16.8955 31.9618 17.5223 32.2069 18.1061C32.452 18.6899 32.8111 19.2189 33.2631 19.6622C33.7151 20.1056 34.2509 20.4543 34.8393 20.6881C35.4277 20.9219 36.0568 21.036 36.6898 21.0238H45.6311C46.4829 22.5869 49.2108 26.3711 55.6358 26.3711C56.3225 26.3407 57.0047 26.246 57.6737 26.0884V41.2039C57.6733 41.6028 57.5146 41.9852 57.2326 42.2672C56.9505 42.5492 56.5682 42.7079 56.1693 42.7084H3.54415C3.14574 42.7079 2.7637 42.5498 2.48149 42.2686C2.19927 41.9874 2.03981 41.6059 2.03793 41.2075V15.0452C2.0384 14.6463 2.19705 14.2639 2.47909 13.9819C2.76112 13.6998 3.14351 13.5412 3.54237 13.5407H29.5464C29.6839 13.5465 29.8212 13.5243 29.9499 13.4757C30.0787 13.427 30.1962 13.3528 30.2956 13.2576C30.3949 13.1623 30.4739 13.0479 30.5279 12.9213C30.5819 12.7947 30.6097 12.6585 30.6097 12.5209C30.6097 12.3832 30.5819 12.247 30.5279 12.1204C30.4739 11.9938 30.3949 11.8795 30.2956 11.7842C30.1962 11.6889 30.0787 11.6147 29.9499 11.5661C29.8212 11.5174 29.6839 11.4953 29.5464 11.501H3.54415C2.60519 11.5043 1.70563 11.8788 1.04168 12.5427C0.377734 13.2066 0.00328064 14.1062 0 15.0452V41.2075C0.00328064 42.1464 0.377734 43.046 1.04168 43.7099C1.70563 44.3739 2.60519 44.7483 3.54415 44.7516H56.1693C57.1083 44.7483 58.0078 44.3739 58.6718 43.7099C59.3357 43.046 59.7102 42.1464 59.7134 41.2075V32.1826C63.3696 31.0178 65.4164 28.3806 66.1633 27.2265H74.187C74.4574 27.2265 74.7168 27.1192 74.9081 26.9282C75.0995 26.7371 75.2073 26.4779 75.2077 26.2075V7.04105C75.2077 6.77033 75.1002 6.5107 74.9088 6.31927C74.7173 6.12785 74.4577 6.0203 74.187 6.0203Z" fill="#323232"/>
<path d="M6.91541 33.5002V22.7504C7.98829 22.5442 8.97471 22.021 9.74724 21.2485C10.5198 20.476 11.0429 19.4895 11.2491 18.4167H28.664C28.9271 18.4057 29.1758 18.2934 29.3581 18.1034C29.5404 17.9133 29.6421 17.6601 29.6421 17.3968C29.6421 17.1335 29.5404 16.8803 29.3581 16.6903C29.1758 16.5002 28.9271 16.3879 28.664 16.377H10.3262C10.0555 16.377 9.79583 16.4845 9.60441 16.6759C9.41298 16.8673 9.30544 17.127 9.30544 17.3977C9.30614 17.846 9.21851 18.29 9.04754 18.7044C8.87658 19.1189 8.62565 19.4955 8.30907 19.8129C7.99249 20.1303 7.61648 20.3822 7.20251 20.5543C6.78854 20.7263 6.34473 20.8151 5.89644 20.8156C5.62849 20.8174 5.37202 20.9246 5.18238 21.1139C4.99274 21.3032 4.88514 21.5595 4.88281 21.8274V34.4249C4.88281 34.5589 4.90923 34.6915 4.96055 34.8152C5.01187 34.939 5.08708 35.0514 5.18189 35.146C5.2767 35.2407 5.38924 35.3157 5.51307 35.3668C5.6369 35.4179 5.76959 35.4441 5.90355 35.4439C6.80755 35.4453 7.67409 35.8051 8.31315 36.4445C8.9522 37.0839 9.31161 37.9506 9.31255 38.8546C9.31255 38.9886 9.33897 39.1212 9.39028 39.245C9.4416 39.3687 9.51682 39.4811 9.61163 39.5758C9.70644 39.6704 9.81898 39.7454 9.94281 39.7965C10.0666 39.8476 10.1993 39.8738 10.3333 39.8736H49.3865C49.5204 39.8738 49.6531 39.8476 49.777 39.7965C49.9008 39.7454 50.0133 39.6704 50.1081 39.5758C50.203 39.4811 50.2782 39.3687 50.3295 39.245C50.3808 39.1212 50.4072 38.9886 50.4072 38.8546C50.4082 37.9506 50.7676 37.0839 51.4066 36.4445C52.0457 35.8051 52.9122 35.4453 53.8162 35.4439C53.9502 35.4441 54.0829 35.4179 54.2067 35.3668C54.3305 35.3157 54.4431 35.2407 54.5379 35.146C54.6327 35.0514 54.7079 34.939 54.7592 34.8152C54.8105 34.6915 54.837 34.5589 54.837 34.4249V29.8155C54.8427 29.678 54.8206 29.5408 54.7719 29.412C54.7233 29.2833 54.6491 29.1657 54.5538 29.0664C54.4585 28.9671 54.3441 28.888 54.2175 28.834C54.091 28.78 53.9547 28.7522 53.8171 28.7522C53.6795 28.7522 53.5433 28.78 53.4167 28.834C53.2901 28.888 53.1757 28.9671 53.0804 29.0664C52.9852 29.1657 52.911 29.2833 52.8623 29.412C52.8136 29.5408 52.7915 29.678 52.7973 29.8155V33.5002C51.7246 33.7068 50.7384 34.2301 49.9659 35.0026C49.1935 35.775 48.6702 36.7612 48.4635 37.8339H11.2491C11.0425 36.7612 10.5192 35.775 9.74672 35.0026C8.97427 34.2301 7.98809 33.7068 6.91541 33.5002Z" fill="#323232"/>
<path d="M17.9062 27.4054C17.7177 27.5945 17.6105 27.8498 17.6074 28.1167C17.6073 28.1843 17.6145 28.2517 17.6288 28.3177C17.6413 28.3825 17.6609 28.4457 17.6874 28.5062C17.7118 28.5689 17.7435 28.6286 17.7817 28.684C17.8177 28.7392 17.8594 28.7905 17.9062 28.837C17.9536 28.8844 18.0054 28.9273 18.0609 28.965C18.1171 29.0015 18.1766 29.0324 18.2387 29.0575C18.3008 29.0832 18.3651 29.1034 18.4308 29.1179C18.4965 29.1301 18.5631 29.136 18.6299 29.1357C18.9 29.1348 19.1587 29.0274 19.3502 28.837C19.3975 28.7901 19.4404 28.7389 19.4782 28.684C19.5138 28.627 19.5453 28.5676 19.5724 28.5062C19.596 28.4448 19.615 28.3818 19.6293 28.3177C19.6431 28.2516 19.6496 28.1842 19.6489 28.1167C19.6474 27.9157 19.5864 27.7196 19.4737 27.5531C19.361 27.3866 19.2015 27.2572 19.0154 27.1812C18.8293 27.1051 18.6248 27.0858 18.4277 27.1257C18.2307 27.1656 18.0498 27.263 17.908 27.4054H17.9062Z" fill="#323232"/>
<path d="M40.238 28.6935C40.2762 28.748 40.3191 28.7992 40.366 28.8464C40.4722 28.9534 40.6008 29.0355 40.7426 29.0866C40.8843 29.1377 41.0357 29.1567 41.1857 29.142C41.3357 29.1274 41.4806 29.0795 41.6098 29.0019C41.739 28.9244 41.8493 28.819 41.9327 28.6935C41.9709 28.6381 42.0026 28.5784 42.027 28.5156C42.0535 28.4552 42.0732 28.392 42.0857 28.3271C42.0998 28.2623 42.1069 28.1961 42.107 28.1297C42.1127 27.9922 42.0906 27.855 42.042 27.7262C41.9933 27.5975 41.9191 27.4799 41.8238 27.3806C41.7286 27.2813 41.6142 27.2022 41.4876 27.1482C41.361 27.0942 41.2248 27.0664 41.0871 27.0664C40.9495 27.0664 40.8133 27.0942 40.6867 27.1482C40.5601 27.2022 40.4457 27.2813 40.3505 27.3806C40.2552 27.4799 40.181 27.5975 40.1323 27.7262C40.0837 27.855 40.0616 27.9922 40.0673 28.1297C40.0677 28.196 40.0742 28.2621 40.0869 28.3271C40.101 28.3915 40.1206 28.4546 40.1455 28.5156C40.1714 28.5773 40.2024 28.6368 40.238 28.6935Z" fill="#323232"/>
<path d="M65.9704 52.9394C65.0184 52.1912 63.8203 51.8276 62.6131 51.9205C61.4059 52.0134 60.2775 52.5559 59.4511 53.4409L53.0013 60.4136C52.9039 60.5107 52.8272 60.6264 52.7758 60.7539C52.7243 60.8814 52.6991 61.0179 52.7017 61.1554C52.7043 61.2928 52.7346 61.4283 52.7909 61.5538C52.8471 61.6792 52.9281 61.792 53.0291 61.8854C53.13 61.9787 53.2487 62.0507 53.3781 62.0971C53.5076 62.1434 53.645 62.1632 53.7822 62.1551C53.9195 62.147 54.0537 62.1113 54.1768 62.0501C54.2999 61.9889 54.4093 61.9034 54.4986 61.7989L60.9485 54.8262C61.4242 54.3163 62.074 54.0037 62.7693 53.9503C63.4646 53.897 64.1545 54.1067 64.7025 54.5381C64.9898 54.7663 65.229 55.0493 65.406 55.3708C65.583 55.6922 65.6943 56.0456 65.7335 56.4105C65.7728 56.7753 65.7391 57.1443 65.6344 57.496C65.5297 57.8478 65.3562 58.1752 65.1239 58.4592L53.8957 72.1912C53.0803 73.1913 51.9187 73.8482 50.6415 74.0318L28.9071 77.1776C27.803 77.3405 26.7513 77.7554 25.8333 78.39C24.9153 79.0247 24.1556 79.862 23.6131 80.8373L23.0192 81.9043H3.02577L13.3826 66.5985C14.8646 64.3918 16.9221 62.6325 19.3322 61.5113C21.7424 60.3901 24.4133 59.9496 27.0559 60.2375C28.8084 60.4193 30.5345 60.8006 32.2005 61.3738C33.3324 61.7785 34.5248 61.9878 35.7269 61.9927H46.121C46.9178 61.9936 47.6817 62.3106 48.2451 62.874C48.8085 63.4374 49.1254 64.2012 49.1264 64.998C49.1254 65.858 48.7834 66.6825 48.1753 67.2906C47.5672 67.8986 46.7427 68.2407 45.8827 68.2416H36.36C34.8012 68.2414 33.2915 68.7862 32.092 69.7816L29.8549 71.6382C29.6548 71.8135 29.531 72.06 29.51 72.3252C29.4889 72.5903 29.5722 72.8533 29.7421 73.058C29.912 73.2627 30.1552 73.3929 30.4197 73.421C30.6842 73.4491 30.9493 73.3728 31.1584 73.2084L33.3938 71.3519C34.2248 70.6631 35.27 70.2858 36.3493 70.2849H45.8792C47.2798 70.283 48.6226 69.7258 49.613 68.7354C50.6034 67.745 51.1606 66.4022 51.1625 65.0016C51.1606 63.6641 50.6285 62.382 49.6828 61.4363C48.737 60.4906 47.4549 59.9584 46.1175 59.9565H35.7269C34.7568 59.9513 33.7946 59.7811 32.8816 59.4533C31.0685 58.8262 29.1897 58.4086 27.2817 58.2085C24.2698 57.8787 21.2251 58.3793 18.4774 59.656C15.7296 60.9328 13.3835 62.9369 11.6932 65.4515L0.258736 82.3453C0.152796 82.4988 0.090949 82.6785 0.0799133 82.8647C0.0688777 83.0509 0.109075 83.2365 0.196139 83.4015C0.283202 83.5664 0.413804 83.7044 0.573757 83.8004C0.733711 83.8963 0.9169 83.9466 1.10343 83.9458H23.6202C23.8026 83.9446 23.9813 83.8944 24.1377 83.8006C24.2941 83.7067 24.4225 83.5726 24.5094 83.4123L25.3985 81.8118C25.7886 81.1114 26.3345 80.5101 26.9941 80.0543C27.6537 79.5986 28.4092 79.3006 29.2023 79.1835L50.942 76.0501C52.7243 75.7939 54.3453 74.8774 55.4838 73.4823L66.7119 59.7503C67.1164 59.2573 67.4187 58.6886 67.601 58.0776C67.7833 57.4665 67.8421 56.8252 67.7739 56.1912C67.7057 55.5571 67.5119 54.943 67.2038 54.3847C66.8956 53.8264 66.4794 53.3351 65.9793 52.9394H65.9704Z" fill="#323232"/>
</svg>
