<svg width="13" height="12" viewBox="0 0 13 12" fill="none" xmlns="http://www.w3.org/2000/svg">
<path d="M6.35734 0.57169C6.40225 0.433492 6.59776 0.433494 6.64266 0.571689L7.73873 3.94504C7.85252 4.29526 8.17889 4.53238 8.54713 4.53238H12.0941C12.2394 4.53238 12.2998 4.71832 12.1823 4.80373L9.3127 6.88858C9.01479 7.10503 8.89013 7.48869 9.00392 7.83891L10.1 11.2123C10.1449 11.3505 9.98672 11.4654 9.86917 11.38L6.99962 9.29512C6.7017 9.07868 6.2983 9.07868 6.00038 9.29512L3.13084 11.38C3.01328 11.4654 2.85511 11.3505 2.90001 11.2123L3.99608 7.83891C4.10987 7.48869 3.98521 7.10503 3.6873 6.88858L0.817751 4.80373C0.700193 4.71832 0.760611 4.53238 0.905919 4.53238H4.45287C4.82112 4.53238 5.14748 4.29526 5.26127 3.94504L6.35734 0.57169L6.02447 0.463534L6.35734 0.57169Z" stroke="#323232" stroke-width="0.7"/>
</svg>
