<svg width="22" height="20" viewBox="0 0 22 20" fill="none" xmlns="http://www.w3.org/2000/svg">
<path d="M16.5303 0.469669C16.2374 0.176777 15.7626 0.176777 15.4697 0.469669L10.6967 5.24264C10.4038 5.53553 10.4038 6.01041 10.6967 6.3033C10.9896 6.59619 11.4645 6.59619 11.7574 6.3033L16 2.06066L20.2426 6.3033C20.5355 6.59619 21.0104 6.59619 21.3033 6.3033C21.5962 6.01041 21.5962 5.53553 21.3033 5.24264L16.5303 0.469669ZM16.75 19L16.75 1L15.25 1L15.25 19L16.75 19Z" fill="#323232"/>
<path d="M5.46967 19.5303C5.76256 19.8232 6.23744 19.8232 6.53033 19.5303L11.3033 14.7574C11.5962 14.4645 11.5962 13.9896 11.3033 13.6967C11.0104 13.4038 10.5355 13.4038 10.2426 13.6967L6 17.9393L1.75736 13.6967C1.46447 13.4038 0.989592 13.4038 0.696699 13.6967C0.403805 13.9896 0.403805 14.4645 0.696699 14.7574L5.46967 19.5303ZM5.25 1L5.25 19L6.75 19L6.75 1L5.25 1Z" fill="#323232"/>
</svg>
