<svg width="26" height="22" viewBox="0 0 26 22" fill="none" xmlns="http://www.w3.org/2000/svg">
<path d="M25 3.8H8C7.78783 3.8 7.58434 3.71571 7.43431 3.56569C7.28429 3.41566 7.2 3.21217 7.2 3C7.2 2.78783 7.28429 2.58434 7.43431 2.43431C7.58434 2.28429 7.78783 2.2 8 2.2H25C25.2122 2.2 25.4157 2.28429 25.5657 2.43431C25.7157 2.58434 25.8 2.78783 25.8 3C25.8 3.21217 25.7157 3.41566 25.5657 3.56569C25.4157 3.71571 25.2122 3.8 25 3.8Z" fill="#323232" stroke="white" stroke-width="0.4"/>
<path d="M4 3.8H1C0.787827 3.8 0.584344 3.71571 0.434315 3.56569C0.284285 3.41566 0.2 3.21217 0.2 3C0.2 2.78783 0.284285 2.58434 0.434315 2.43431C0.584344 2.28429 0.787827 2.2 1 2.2H4C4.21217 2.2 4.41566 2.28429 4.56569 2.43431C4.71571 2.58434 4.8 2.78783 4.8 3C4.8 3.21217 4.71571 3.41566 4.56569 3.56569C4.41566 3.71571 4.21217 3.8 4 3.8Z" fill="#323232" stroke="white" stroke-width="0.4"/>
<path d="M18 11.8H1C0.787826 11.8 0.584343 11.7157 0.434315 11.5657C0.284286 11.4157 0.2 11.2122 0.2 11C0.2 10.7878 0.284285 10.5843 0.434315 10.4343C0.584344 10.2843 0.787827 10.2 1 10.2H18C18.2122 10.2 18.4157 10.2843 18.5657 10.4343C18.7157 10.5843 18.8 10.7878 18.8 11C18.8 11.2122 18.7157 11.4157 18.5657 11.5657C18.4157 11.7157 18.2122 11.8 18 11.8Z" fill="#323232" stroke="white" stroke-width="0.4"/>
<path d="M8 19.8H1C0.787826 19.8 0.584343 19.7157 0.434315 19.5657C0.284286 19.4157 0.2 19.2122 0.2 19C0.2 18.7878 0.284286 18.5843 0.434315 18.4343C0.584343 18.2843 0.787826 18.2 1 18.2H8C8.21217 18.2 8.41566 18.2843 8.56569 18.4343C8.71571 18.5843 8.8 18.7878 8.8 19C8.8 19.2122 8.71571 19.4157 8.56569 19.5657C8.41566 19.7157 8.21217 19.8 8 19.8Z" fill="#323232" stroke="white" stroke-width="0.4"/>
<path d="M6 5.8C5.44621 5.8 4.90486 5.63578 4.4444 5.32812C3.98395 5.02045 3.62506 4.58315 3.41314 4.07151C3.20121 3.55988 3.14576 2.9969 3.2538 2.45375C3.36184 1.9106 3.62852 1.41169 4.0201 1.0201C4.41169 0.628515 4.9106 0.361841 5.45375 0.253803C5.9969 0.145764 6.55988 0.201213 7.07151 0.413139C7.58315 0.625064 8.02045 0.983947 8.32812 1.4444C8.63578 1.90486 8.8 2.44621 8.8 3C8.8 3.74261 8.505 4.4548 7.9799 4.9799C7.4548 5.505 6.74261 5.8 6 5.8ZM6 1.8C5.76266 1.8 5.53066 1.87038 5.33332 2.00224C5.13598 2.1341 4.98217 2.32151 4.89135 2.54078C4.80052 2.76005 4.77676 3.00133 4.82306 3.23411C4.86936 3.46689 4.98365 3.68071 5.15147 3.84853C5.3193 4.01635 5.53312 4.13064 5.76589 4.17694C5.99867 4.22325 6.23995 4.19948 6.45922 4.10866C6.67849 4.01783 6.86591 3.86402 6.99776 3.66669C7.12962 3.46935 7.2 3.23734 7.2 3C7.2 2.68174 7.07357 2.37652 6.84853 2.15147C6.62349 1.92643 6.31826 1.8 6 1.8Z" fill="#323232" stroke="white" stroke-width="0.4"/>
<path d="M20 13.8C19.4462 13.8 18.9049 13.6358 18.4444 13.3281C17.9839 13.0204 17.6251 12.5831 17.4131 12.0715C17.2012 11.5599 17.1458 10.9969 17.2538 10.4537C17.3618 9.9106 17.6285 9.41169 18.0201 9.0201C18.4117 8.62852 18.9106 8.36184 19.4537 8.2538C19.9969 8.14576 20.5599 8.20121 21.0715 8.41314C21.5831 8.62506 22.0204 8.98395 22.3281 9.4444C22.6358 9.90486 22.8 10.4462 22.8 11C22.8 11.7426 22.505 12.4548 21.9799 12.9799C21.4548 13.505 20.7426 13.8 20 13.8ZM20 9.8C19.7627 9.8 19.5307 9.87038 19.3333 10.0022C19.136 10.1341 18.9822 10.3215 18.8913 10.5408C18.8005 10.7601 18.7768 11.0013 18.8231 11.2341C18.8694 11.4669 18.9836 11.6807 19.1515 11.8485C19.3193 12.0164 19.5331 12.1306 19.7659 12.1769C19.9987 12.2232 20.2399 12.1995 20.4592 12.1087C20.6785 12.0178 20.8659 11.864 20.9978 11.6667C21.1296 11.4693 21.2 11.2373 21.2 11C21.2 10.6817 21.0736 10.3765 20.8485 10.1515C20.6235 9.92643 20.3183 9.8 20 9.8Z" fill="#323232" stroke="white" stroke-width="0.4"/>
<path d="M10 21.8C9.44621 21.8 8.90486 21.6358 8.4444 21.3281C7.98395 21.0204 7.62506 20.5831 7.41314 20.0715C7.20121 19.5599 7.14576 18.9969 7.2538 18.4537C7.36184 17.9106 7.62852 17.4117 8.0201 17.0201C8.41169 16.6285 8.9106 16.3618 9.45375 16.2538C9.9969 16.1458 10.5599 16.2012 11.0715 16.4131C11.5831 16.6251 12.0204 16.9839 12.3281 17.4444C12.6358 17.9049 12.8 18.4462 12.8 19C12.8 19.7426 12.505 20.4548 11.9799 20.9799C11.4548 21.505 10.7426 21.8 10 21.8ZM10 17.8C9.76266 17.8 9.53066 17.8704 9.33332 18.0022C9.13598 18.1341 8.98217 18.3215 8.89135 18.5408C8.80052 18.7601 8.77676 19.0013 8.82306 19.2341C8.86936 19.4669 8.98365 19.6807 9.15147 19.8485C9.3193 20.0164 9.53312 20.1306 9.76589 20.1769C9.99867 20.2232 10.24 20.1995 10.4592 20.1087C10.6785 20.0178 10.8659 19.864 10.9978 19.6667C11.1296 19.4693 11.2 19.2373 11.2 19C11.2 18.6817 11.0736 18.3765 10.8485 18.1515C10.6235 17.9264 10.3183 17.8 10 17.8Z" fill="#323232" stroke="white" stroke-width="0.4"/>
<path d="M25 11.8H22C21.7878 11.8 21.5843 11.7157 21.4343 11.5657C21.2843 11.4157 21.2 11.2122 21.2 11C21.2 10.7878 21.2843 10.5843 21.4343 10.4343C21.5843 10.2843 21.7878 10.2 22 10.2H25C25.2122 10.2 25.4157 10.2843 25.5657 10.4343C25.7157 10.5843 25.8 10.7878 25.8 11C25.8 11.2122 25.7157 11.4157 25.5657 11.5657C25.4157 11.7157 25.2122 11.8 25 11.8Z" fill="#323232" stroke="white" stroke-width="0.4"/>
<path d="M25 19.8H12C11.7878 19.8 11.5843 19.7157 11.4343 19.5657C11.2843 19.4157 11.2 19.2122 11.2 19C11.2 18.7878 11.2843 18.5843 11.4343 18.4343C11.5843 18.2843 11.7878 18.2 12 18.2H25C25.2122 18.2 25.4157 18.2843 25.5657 18.4343C25.7157 18.5843 25.8 18.7878 25.8 19C25.8 19.2122 25.7157 19.4157 25.5657 19.5657C25.4157 19.7157 25.2122 19.8 25 19.8Z" fill="#323232" stroke="white" stroke-width="0.4"/>
</svg>
