<svg width="14" height="19" viewBox="0 0 14 19" fill="none" xmlns="http://www.w3.org/2000/svg">
<path d="M9.79875 0.5H0.47025C0.210536 0.5 0 0.710536 0 1.11907V18.1786C0 18.2895 0.210536 18.5 0.47025 18.5H13.3512C13.6109 18.5 13.8214 18.2895 13.8214 18.1786V4.6715C13.8214 4.44779 13.7915 4.37579 13.7388 4.32275L9.99868 0.582607C9.94564 0.529893 9.87364 0.5 9.79875 0.5Z" fill="#E9E9E0"/>
<path d="M9.96387 0.548828V4.35744H13.7725L9.96387 0.548828Z" fill="#D9D7CA"/>
<path d="M4.18341 11.2116C4.07155 11.2116 3.96419 11.1752 3.87259 11.1068C3.53798 10.8557 3.49298 10.5764 3.51419 10.3861C3.57269 9.86285 4.21973 9.31513 5.43794 8.75713C5.92137 7.6977 6.38133 6.39238 6.65551 5.30177C6.33473 4.60363 6.02294 3.69785 6.25019 3.16652C6.32991 2.98042 6.42923 2.8377 6.61469 2.77599C6.68798 2.75156 6.87312 2.7207 6.94126 2.7207C7.10326 2.7207 7.24566 2.92931 7.34658 3.05788C7.44141 3.17874 7.65644 3.43492 7.22669 5.24424C7.65998 6.1391 8.27391 7.05067 8.86212 7.67488C9.28351 7.5987 9.64608 7.55981 9.94148 7.55981C10.4448 7.55981 10.7499 7.67713 10.8743 7.91885C10.9771 8.11877 10.935 8.35245 10.7489 8.61313C10.5699 8.86352 10.323 8.99595 10.0353 8.99595C9.64448 8.99595 9.18933 8.7491 8.6818 8.26149C7.76991 8.4521 6.70501 8.79217 5.84423 9.16856C5.57551 9.73877 5.31805 10.1981 5.07826 10.535C4.7488 10.9962 4.46466 11.2116 4.18341 11.2116ZM5.03905 9.56392C4.35216 9.94995 4.07219 10.2672 4.05194 10.4459C4.04873 10.4755 4.04005 10.5533 4.19048 10.6683C4.23837 10.6532 4.51801 10.5256 5.03905 9.56392ZM9.42237 8.13613C9.68433 8.33767 9.7483 8.43956 9.91962 8.43956C9.99483 8.43956 10.2092 8.43635 10.3085 8.29781C10.3564 8.23063 10.3751 8.18756 10.3825 8.16442C10.3429 8.14352 10.2905 8.1011 10.0048 8.1011C9.84248 8.10142 9.63837 8.10849 9.42237 8.13613ZM7.0213 6.02049C6.79148 6.8157 6.48805 7.67424 6.1618 8.45178C6.83359 8.1911 7.56387 7.96352 8.2498 7.80249C7.81587 7.29849 7.38226 6.66913 7.0213 6.02049ZM6.82619 3.30056C6.79469 3.31117 6.39869 3.86531 6.85705 4.33427C7.16209 3.65445 6.84001 3.29606 6.82619 3.30056Z" fill="#CC4B4C"/>
<path d="M13.3512 18.5004H0.47025C0.210536 18.5004 0 18.2899 0 18.0302V13.0361H13.8214V18.0302C13.8214 18.2899 13.6109 18.5004 13.3512 18.5004Z" fill="#CC4B4C"/>
<path d="M3.49914 17.5356H2.97168V14.2969H3.90318C4.04075 14.2969 4.17704 14.3187 4.31172 14.3628C4.44639 14.4068 4.56725 14.4727 4.67429 14.5604C4.78132 14.6482 4.86779 14.7546 4.93368 14.879C4.99957 15.0034 5.03268 15.1432 5.03268 15.2988C5.03268 15.463 5.00472 15.6115 4.94911 15.7449C4.8935 15.8783 4.81572 15.9905 4.71607 16.0811C4.61643 16.1718 4.49621 16.2422 4.35575 16.292C4.21529 16.3418 4.05972 16.3666 3.89 16.3666H3.49882V17.5356H3.49914ZM3.49914 14.6967V15.9799H3.98257C4.04686 15.9799 4.1105 15.9689 4.17382 15.9468C4.23682 15.9249 4.29468 15.8889 4.34739 15.8391C4.40011 15.7893 4.44254 15.7198 4.47468 15.6305C4.50682 15.5411 4.52289 15.4306 4.52289 15.2988C4.52289 15.2461 4.5155 15.185 4.50104 15.1165C4.48625 15.0477 4.45636 14.9818 4.41104 14.9188C4.36539 14.8558 4.30175 14.8031 4.21979 14.7607C4.13782 14.7183 4.02918 14.6971 3.8945 14.6971H3.49914V14.6967Z" fill="white"/>
<path d="M8.26717 15.8262C8.26717 16.0927 8.23856 16.3206 8.18134 16.5096C8.12413 16.6986 8.05181 16.8567 7.96374 16.9843C7.87567 17.1119 7.77699 17.2122 7.66706 17.2855C7.55713 17.3588 7.45106 17.4134 7.34852 17.4504C7.24599 17.4871 7.15213 17.5105 7.06727 17.5208C6.98242 17.5304 6.91942 17.5356 6.87827 17.5356H5.65234V14.2969H6.62788C6.90045 14.2969 7.13992 14.3403 7.34627 14.4264C7.55263 14.5126 7.72427 14.6279 7.86056 14.7713C7.99684 14.9147 8.09842 15.0783 8.16592 15.2612C8.23342 15.4444 8.26717 15.6327 8.26717 15.8262ZM6.70277 17.1489C7.0602 17.1489 7.31799 17.0348 7.47613 16.8063C7.63427 16.5777 7.71334 16.2467 7.71334 15.8131C7.71334 15.6784 7.69727 15.545 7.66513 15.4132C7.63267 15.2814 7.57063 15.1622 7.47838 15.0551C7.38613 14.9481 7.26077 14.8616 7.10263 14.7957C6.94449 14.7298 6.73942 14.6967 6.48742 14.6967H6.17981V17.1489H6.70277Z" fill="white"/>
<path d="M9.56837 14.6967V15.7163H10.9219V16.0766H9.56837V17.5356H9.03223V14.2969H11.0579V14.6967H9.56837Z" fill="white"/>
</svg>
