<svg width="28" height="20" viewBox="0 0 28 20" fill="none" xmlns="http://www.w3.org/2000/svg">
<path d="M16.25 9.56699C16.5833 9.75944 16.5833 10.2406 16.25 10.433L13.25 12.1651C12.9167 12.3575 12.5 12.117 12.5 11.7321L12.5 8.26795C12.5 7.88305 12.9167 7.64249 13.25 7.83494L16.25 9.56699Z" stroke="#323232" stroke-linejoin="round"/>
<path d="M14.0134 0L14.0134 1H14.0136L14.0147 1L14.0192 1L14.0375 1.00002L14.1103 1.00014C14.1743 1.00029 14.2688 1.00058 14.3901 1.00115C14.6326 1.00231 14.9821 1.00463 15.4083 1.00926C16.2613 1.01854 17.4201 1.03709 18.6456 1.07414C19.8727 1.11123 21.1585 1.16663 22.2679 1.249C23.4025 1.33325 24.2672 1.44046 24.7085 1.56028C25.531 1.79382 26.1879 2.44941 26.4396 3.30879C26.8289 5.51924 27.0129 7.75751 26.9993 10.0078H26.9992L26.9993 10.0199C27.0128 12.2536 26.8248 14.4883 26.4395 16.6862C26.1882 17.5444 25.5325 18.2008 24.7077 18.4399C24.2585 18.5601 23.3909 18.667 22.2587 18.751C21.1482 18.8333 19.8631 18.8887 18.6374 18.9258C17.4133 18.9629 16.2565 18.9814 15.4052 18.9907C14.9798 18.9953 14.6312 18.9977 14.3892 18.9988C14.2682 18.9994 14.1739 18.9997 14.11 18.9998L14.0375 19L14.0192 19L14.0147 19L14.0136 19H14.0134L14.0134 20L14.0133 19H14.0131L14.012 19L14.0075 19L13.9892 19L13.9164 18.9998C13.8523 18.9997 13.7577 18.9994 13.6364 18.9988C13.3937 18.9977 13.044 18.9953 12.6175 18.9907C11.7639 18.9814 10.6043 18.9629 9.37807 18.9258C8.15018 18.8887 6.86363 18.8333 5.7537 18.751C4.62078 18.6669 3.75694 18.5599 3.31479 18.4404C2.49278 18.2011 1.83377 17.5418 1.5862 16.686C1.19278 14.4867 0.996097 12.2507 1.00035 10.0157L1.00032 10.0097C0.991015 7.76108 1.1884 5.52218 1.5861 3.30893C1.83392 2.45187 2.4938 1.79423 3.31472 1.55954C3.76028 1.43681 4.62757 1.32785 5.76382 1.24293C6.87427 1.15993 8.15967 1.10498 9.38591 1.06879C10.6105 1.03264 11.7677 1.01543 12.6194 1.00726C13.045 1.00318 13.3938 1.00137 13.6359 1.00057C13.7569 1.00017 13.8512 1.00003 13.9151 0.999988L13.9877 0.999977L14.0059 0.999991L14.0104 0.999997L14.0115 0.999998L14.0117 0.999999L14.0134 0ZM14.0134 0V1H14.0117L14.0134 0Z" stroke="#323232" stroke-width="2"/>
</svg>
