<svg width="20" height="18" viewBox="0 0 20 18" fill="none" xmlns="http://www.w3.org/2000/svg">
<path d="M1 2C1 1.44772 1.44772 1 2 1H18C18.5523 1 19 1.44772 19 2C19 2.55228 18.5523 3 18 3H2C1.44772 3 1 2.55228 1 2ZM1 9C1 8.44772 1.44772 8 2 8H12C12.5523 8 13 8.44772 13 9C13 9.55229 12.5523 10 12 10H2C1.44772 10 1 9.55229 1 9ZM1 16C1 15.4477 1.44772 15 2 15H18C18.5523 15 19 15.4477 19 16C19 16.5523 18.5523 17 18 17H2C1.44772 17 1 16.5523 1 16Z" fill="#323232" stroke="#323232" stroke-width="0.4"/>
</svg>
