<svg width="22" height="23" viewBox="0 0 22 23" fill="none" xmlns="http://www.w3.org/2000/svg">
<path d="M8.51696 7.87456L8.51789 7.87458C8.81129 7.88412 9.13976 7.94262 9.52712 8.05441L9.52735 8.05447L20.7107 11.305C20.7108 11.305 20.7108 11.305 20.7109 11.305C20.9366 11.3704 21.1419 11.4581 21.3086 11.604L21.3088 11.6042C21.4764 11.7518 21.5937 11.9635 21.6185 12.1837C21.6185 12.1838 21.6185 12.1838 21.6185 12.1839L21.4943 12.1978C21.537 12.573 21.334 12.888 21.0694 13.1638L8.51696 7.87456ZM8.51696 7.87456C8.22301 7.86721 7.90464 7.92109 7.66912 8.15152C7.43281 8.38205 7.37005 8.69984 7.37522 8.99911L7.37523 8.99942M8.51696 7.87456L7.37523 8.99942M7.37523 8.99942C7.38112 9.29716 7.44358 9.63061 7.55491 10.0249L7.67521 9.99088L7.37523 8.99942ZM14.995 18.6426C14.7231 18.6426 14.4365 18.726 14.2102 18.9364L12.0115 20.9706C11.9331 21.035 11.87 21.0761 11.82 21.0994C11.769 21.1232 11.7405 21.1244 11.7273 21.1224C11.7139 21.1203 11.6725 21.1058 11.633 20.9658L11.633 20.9657L8.47102 9.7756L8.47101 9.77559C8.36993 9.41804 8.32862 9.14846 8.32522 8.98245C8.32542 8.85881 8.35521 8.84022 8.35757 8.83874L8.35768 8.83867C8.3628 8.83529 8.37378 8.83032 8.39807 8.8272C8.417 8.82477 8.43814 8.82405 8.46454 8.82385L8.48995 8.82444C8.65774 8.82831 8.92791 8.86901 9.27689 8.97067L9.27697 8.97069L20.4605 12.2213C20.5633 12.2512 20.6107 12.2837 20.6308 12.3056C20.6456 12.3217 20.648 12.3338 20.6453 12.3512C20.6416 12.3756 20.6264 12.4106 20.5942 12.4559C20.5629 12.4998 20.522 12.5446 20.4784 12.5882L20.4767 12.5899L18.3579 14.7904C18.1394 15.0169 18.0521 15.3062 18.0498 15.5832L18.0498 15.5835C18.0483 15.859 18.1345 16.163 18.3706 16.3885L20.6438 18.5706C20.644 18.5708 20.6443 18.5711 20.6445 18.5713C20.6922 18.6192 20.6994 18.6662 20.6927 18.7089C20.6849 18.7584 20.6574 18.8019 20.6387 18.8206C20.6387 18.8206 20.6387 18.8206 20.6387 18.8206L18.3251 21.1332L18.3249 21.1329L18.3185 21.1404C18.3016 21.1602 18.262 21.1798 18.2026 21.1785C18.1439 21.1773 18.0928 21.1558 18.0655 21.1287L18.064 21.1272L15.7889 18.9434L15.7888 18.9433C15.5612 18.7253 15.2686 18.6411 14.995 18.6426ZM14.995 18.6426C14.9951 18.6426 14.9952 18.6426 14.9953 18.6426V18.7676L14.9946 18.6426C14.9947 18.6426 14.9948 18.6426 14.995 18.6426ZM17.2881 5.88516L17.2879 5.88536C17.1828 5.98991 17.0566 6.03269 16.9329 6.02344C16.8127 6.01443 16.7037 5.95709 16.6236 5.8773C16.5434 5.79752 16.4856 5.6888 16.4763 5.5686C16.4668 5.44498 16.5095 5.31873 16.6141 5.2137L16.6144 5.21344L18.0156 3.81443C18.1055 3.72127 18.223 3.67481 18.3498 3.67481H18.3505C18.7806 3.67481 18.9771 4.19704 18.6881 4.48526L17.2881 5.88516ZM17.2881 5.88516L18.688 4.4854L17.2881 5.88516ZM4.71273 17.1132L4.71254 17.1134L3.31294 18.5129C3.31289 18.5129 3.31284 18.513 3.31279 18.513C3.02193 18.8012 3.21861 19.3237 3.64869 19.3237C3.77467 19.3237 3.89455 19.2779 3.98498 19.1842L5.38626 17.7851L5.38652 17.7848C5.49109 17.6798 5.53383 17.5536 5.52427 17.43C5.51497 17.3098 5.45716 17.201 5.37704 17.1213C5.2969 17.0415 5.18792 16.9841 5.06767 16.9751C4.94405 16.9659 4.81776 17.0086 4.71273 17.1132ZM4.71254 5.88516L4.71273 5.88536C4.81776 5.98991 4.94405 6.03269 5.06767 6.02344C5.18792 6.01443 5.2969 5.95709 5.37704 5.8773C5.45716 5.79752 5.51497 5.6888 5.52427 5.5686C5.53383 5.44499 5.49109 5.31873 5.38652 5.2137L5.38626 5.21344L3.98479 3.81422C3.89489 3.72187 3.77539 3.67481 3.64869 3.67481H3.64799C3.21686 3.67481 3.0235 4.19793 3.31264 4.4854C3.31269 4.48545 3.31274 4.4855 3.31279 4.48555L4.71254 5.88516ZM0.85001 10.6743C0.587081 10.6743 0.375 10.8864 0.375 11.1493C0.375 11.4122 0.587081 11.6243 0.85001 11.6243H2.95007C3.213 11.6243 3.42508 11.4122 3.42508 11.1493C3.42508 10.8864 3.213 10.6743 2.95007 10.6743H0.85001ZM11.1253 1.34998C11.1253 1.08704 10.9132 0.875 10.6503 0.875C10.3874 0.875 10.1753 1.08704 10.1753 1.34998V3.44983C10.1753 3.71276 10.3874 3.92481 10.6503 3.92481C10.9132 3.92481 11.1253 3.71276 11.1253 3.44983V1.34998Z" fill="#686868" stroke="#686868" stroke-width="0.25"/>
</svg>
