<svg width="24" height="24" viewBox="0 0 24 24" fill="none" xmlns="http://www.w3.org/2000/svg">
<path d="M20.4957 4.53344C19.9933 4.03089 19.3969 3.63222 18.7405 3.36023C18.0841 3.08824 17.3805 2.94824 16.6699 2.94824C15.9594 2.94824 15.2558 3.08824 14.5994 3.36023C13.9429 3.63222 13.3465 4.03089 12.8442 4.53344L11.8017 5.57593L10.7592 4.53344C9.74457 3.51879 8.36841 2.94877 6.93348 2.94877C5.49855 2.94877 4.12239 3.51879 3.10774 4.53344C2.09309 5.54809 1.52307 6.92425 1.52307 8.35918C1.52307 9.79411 2.09309 11.1703 3.10774 12.1849L4.15023 13.2274L11.8017 20.8789L19.4532 13.2274L20.4957 12.1849C20.9982 11.6826 21.3969 11.0862 21.6689 10.4298C21.9409 9.77332 22.0809 9.06973 22.0809 8.35918C22.0809 7.64862 21.9409 6.94503 21.6689 6.2886C21.3969 5.63217 20.9982 5.03576 20.4957 4.53344V4.53344Z" stroke="white" stroke-width="0.98348" stroke-linecap="round" stroke-linejoin="round"/>
</svg>
