<svg width="16" height="17" viewBox="0 0 16 17" fill="none" xmlns="http://www.w3.org/2000/svg">
<path d="M8.0003 6.03844C7.75688 6.03844 7.51892 5.96626 7.31652 5.83102C7.11412 5.69578 6.95637 5.50356 6.86322 5.27867C6.77006 5.05378 6.74569 4.80631 6.79318 4.56756C6.84067 4.32882 6.95789 4.10952 7.13002 3.93739C7.30214 3.76526 7.52144 3.64804 7.76019 3.60055C7.99894 3.55306 8.2464 3.57744 8.4713 3.67059C8.69619 3.76375 8.88841 3.9215 9.02365 4.1239C9.15889 4.32629 9.23107 4.56425 9.23107 4.80767C9.23107 5.13409 9.1014 5.44714 8.87059 5.67796C8.63977 5.90877 8.32672 6.03844 8.0003 6.03844Z" fill="#686868"/>
<path d="M8 16.5C6.41775 16.5 4.87103 16.0308 3.55544 15.1518C2.23985 14.2727 1.21447 13.0233 0.608967 11.5615C0.00346628 10.0997 -0.15496 8.49113 0.153721 6.93928C0.462403 5.38743 1.22433 3.96197 2.34315 2.84315C3.46197 1.72433 4.88743 0.962403 6.43928 0.653721C7.99113 0.34504 9.59966 0.503466 11.0615 1.10897C12.5233 1.71447 13.7727 2.73985 14.6518 4.05544C15.5308 5.37103 16 6.91775 16 8.5C16 10.6217 15.1571 12.6566 13.6569 14.1569C12.1566 15.6571 10.1217 16.5 8 16.5ZM8 1.73077C6.66117 1.73077 5.35241 2.12778 4.23922 2.87159C3.12603 3.61541 2.2584 4.67262 1.74605 5.90953C1.2337 7.14644 1.09965 8.50751 1.36084 9.82061C1.62203 11.1337 2.26674 12.3399 3.21343 13.2866C4.16013 14.2333 5.36629 14.878 6.67939 15.1392C7.99249 15.4004 9.35356 15.2663 10.5905 14.754C11.8274 14.2416 12.8846 13.374 13.6284 12.2608C14.3722 11.1476 14.7692 9.83883 14.7692 8.5C14.7692 6.70469 14.056 4.98291 12.7866 3.71343C11.5171 2.44396 9.79531 1.73077 8 1.73077Z" fill="#686868"/>
<path d="M8.0003 13.4231C7.67388 13.4231 7.36083 13.2935 7.13002 13.0626C6.8992 12.8318 6.76953 12.5188 6.76953 12.1924V8.50006C6.76953 8.17364 6.8992 7.86059 7.13002 7.62977C7.36083 7.39896 7.67388 7.26929 8.0003 7.26929C8.32672 7.26929 8.63977 7.39896 8.87058 7.62977C9.1014 7.86059 9.23107 8.17364 9.23107 8.50006V12.1924C9.23107 12.5188 9.1014 12.8318 8.87058 13.0626C8.63977 13.2935 8.32672 13.4231 8.0003 13.4231Z" fill="#686868"/>
</svg>
