<svg width="26" height="23" viewBox="0 0 26 23" fill="none" xmlns="http://www.w3.org/2000/svg">
<path d="M23.5723 2.85655C22.9614 2.26797 22.2361 1.80107 21.4378 1.48251C20.6396 1.16396 19.7839 1 18.9199 1C18.0558 1 17.2001 1.16396 16.4019 1.48251C15.6036 1.80107 14.8783 2.26797 14.2674 2.85655L12.9997 4.07749L11.7319 2.85655C10.498 1.66822 8.8245 1.00062 7.07951 1.00062C5.33452 1.00062 3.66099 1.66822 2.42709 2.85655C1.1932 4.04489 0.5 5.65662 0.5 7.33718C0.5 9.01774 1.1932 10.6295 2.42709 11.8178L3.69485 13.0387L12.9997 22L22.3045 13.0387L23.5723 11.8178C24.1834 11.2295 24.6682 10.531 24.999 9.76219C25.3298 8.99339 25.5 8.16936 25.5 7.33718C25.5 6.50499 25.3298 5.68096 24.999 4.91216C24.6682 4.14336 24.1834 3.44486 23.5723 2.85655V2.85655Z" stroke="#686868" stroke-linecap="round" stroke-linejoin="round"/>
</svg>
