<svg width="20" height="26" viewBox="0 0 20 26" fill="none" xmlns="http://www.w3.org/2000/svg">
<path d="M14.1791 0H0.680465C0.304651 0 0 0.300765 0 0.884388V25.2551C0 25.4135 0.304651 25.7143 0.680465 25.7143H19.3195C19.6953 25.7143 20 25.4135 20 25.2551V5.95929C20 5.63969 19.9567 5.53684 19.8805 5.46107L14.4684 0.11801C14.3916 0.0427041 14.2874 0 14.1791 0Z" fill="#E9E9E0"/>
<path d="M14.418 0.0666504V5.50752H19.9291L14.418 0.0666504Z" fill="#D9D7CA"/>
<path d="M6.0529 15.2992C5.89104 15.2992 5.73569 15.2473 5.60314 15.1495C5.11895 14.7909 5.05383 14.3919 5.08453 14.12C5.16918 13.3725 6.10546 12.59 7.86825 11.7929C8.56779 10.2794 9.23337 8.41469 9.63011 6.85668C9.16593 5.85933 8.71476 4.56535 9.0436 3.80632C9.15895 3.54045 9.30267 3.33658 9.57104 3.24841C9.67709 3.21352 9.94499 3.16943 10.0436 3.16943C10.278 3.16943 10.4841 3.46744 10.6301 3.65112C10.7673 3.82377 11.0785 4.18974 10.4566 6.77448C11.0836 8.05285 11.972 9.3551 12.8231 10.2468C13.4329 10.138 13.9576 10.0824 14.385 10.0824C15.1134 10.0824 15.5548 10.25 15.7348 10.5954C15.8836 10.881 15.8227 11.2148 15.5534 11.5872C15.2943 11.9449 14.9371 12.1341 14.5208 12.1341C13.9552 12.1341 13.2966 11.7814 12.5622 11.0848C11.2427 11.3571 9.70174 11.843 8.45616 12.3807C8.06732 13.1953 7.69476 13.8514 7.34779 14.3326C6.87104 14.9916 6.45988 15.2992 6.0529 15.2992ZM7.29104 12.9455C6.29709 13.4969 5.89197 13.9501 5.86267 14.2055C5.85802 14.2477 5.84546 14.3588 6.06313 14.5232C6.13244 14.5016 6.53709 14.3193 7.29104 12.9455ZM13.6338 10.9058C14.0129 11.1937 14.1055 11.3392 14.3534 11.3392C14.4622 11.3392 14.7724 11.3346 14.9162 11.1367C14.9855 11.0408 15.0124 10.9792 15.0231 10.9462C14.9659 10.9163 14.8901 10.8557 14.4766 10.8557C14.2417 10.8562 13.9464 10.8663 13.6338 10.9058ZM10.1594 7.88341C9.82686 9.01943 9.38779 10.2459 8.91569 11.3567C9.88779 10.9843 10.9445 10.6592 11.9371 10.4291C11.3092 9.70913 10.6817 8.81005 10.1594 7.88341ZM9.87709 3.9978C9.83151 4.01295 9.25848 4.80459 9.92174 5.47454C10.3631 4.50336 9.89709 3.99137 9.87709 3.9978Z" fill="#FE5E5E"/>
<path d="M19.3195 25.7138H0.680465C0.304651 25.7138 0 25.4131 0 25.0421V17.9077H20V25.0421C20 25.4131 19.6953 25.7138 19.3195 25.7138Z" fill="#FE5E5E"/>
<path d="M5.06013 24.3352H4.29688V19.7085H5.64478C5.84385 19.7085 6.04106 19.7397 6.23594 19.8026C6.43083 19.8655 6.60571 19.9597 6.7606 20.085C6.91548 20.2104 7.0406 20.3624 7.13594 20.5401C7.23129 20.7178 7.2792 20.9175 7.2792 21.1398C7.2792 21.3744 7.23874 21.5866 7.15827 21.7771C7.0778 21.9677 6.96525 22.1279 6.82106 22.2574C6.67687 22.3869 6.50292 22.4875 6.29966 22.5586C6.09641 22.6298 5.87129 22.6652 5.62571 22.6652H5.05967V24.3352H5.06013ZM5.06013 20.2797V22.1128H5.75967C5.85269 22.1128 5.94478 22.0972 6.03641 22.0655C6.12757 22.0343 6.21129 21.9828 6.28757 21.9117C6.36385 21.8405 6.42525 21.7413 6.47176 21.6137C6.51827 21.486 6.54153 21.328 6.54153 21.1398C6.54153 21.0645 6.53083 20.9772 6.5099 20.8794C6.4885 20.7811 6.44525 20.687 6.37967 20.597C6.31362 20.507 6.22153 20.4317 6.10292 20.3711C5.98432 20.3105 5.82711 20.2802 5.63222 20.2802H5.06013V20.2797Z" fill="white"/>
<path d="M11.9595 21.8933C11.9595 22.274 11.9181 22.5995 11.8353 22.8695C11.7525 23.1395 11.6479 23.3654 11.5204 23.5477C11.393 23.73 11.2502 23.8733 11.0911 23.978C10.9321 24.0827 10.7786 24.1607 10.6302 24.2135C10.4818 24.2659 10.346 24.2994 10.2232 24.3141C10.1004 24.3279 10.0093 24.3352 9.94974 24.3352H8.17578V19.7085H9.58741C9.98183 19.7085 10.3283 19.7705 10.6269 19.8935C10.9255 20.0166 11.1739 20.1815 11.3711 20.3863C11.5683 20.591 11.7153 20.8248 11.813 21.086C11.9107 21.3478 11.9595 21.6169 11.9595 21.8933ZM9.69578 23.7828C10.213 23.7828 10.586 23.6198 10.8149 23.2933C11.0437 22.9669 11.1581 22.4939 11.1581 21.8745C11.1581 21.6821 11.1349 21.4915 11.0883 21.3032C11.0414 21.115 10.9516 20.9446 10.8181 20.7917C10.6846 20.6388 10.5032 20.5153 10.2744 20.4212C10.0455 20.327 9.7488 20.2797 9.38415 20.2797H8.93904V23.7828H9.69578Z" fill="white"/>
<path d="M13.8383 20.2797V21.7363H15.7969V22.251H13.8383V24.3352H13.0625V19.7085H15.9937V20.2797H13.8383Z" fill="white"/>
</svg>
