<svg width="70" height="30" viewBox="0 0 70 30" fill="none" xmlns="http://www.w3.org/2000/svg">
<path d="M69.5 25V5C69.5 2.51472 67.4853 0.5 65 0.5H6.91135C3.84653 0.5 1.67838 3.49698 2.63728 6.40794L9.22551 26.4079C9.83336 28.2532 11.5568 29.5 13.4996 29.5H65C67.4853 29.5 69.5 27.4853 69.5 25Z" fill="#EEEC0B" stroke="#EEEC0B"/>
<path d="M23.04 16.16H17.04V14.176H23.04V16.16ZM31.9341 16.048H33.1341V18.096H31.9341V20H29.7101V18.096H24.4141V16.048L28.1421 8.8H30.5101L26.7981 16.048H29.7101V13.392H31.9341V16.048ZM38.3994 20.224C37.002 20.224 35.9034 19.696 35.1034 18.64C34.314 17.5627 33.9194 16.1493 33.9194 14.4C33.9194 12.6507 34.314 11.2427 35.1034 10.176C35.9034 9.10933 37.002 8.576 38.3994 8.576C39.818 8.576 40.9167 9.10933 41.6954 10.176C42.4847 11.2427 42.8794 12.6507 42.8794 14.4C42.8794 16.1493 42.4847 17.5627 41.6954 18.64C40.9167 19.696 39.818 20.224 38.3994 20.224ZM40.6874 14.4C40.6874 13.2053 40.49 12.2933 40.0954 11.664C39.7114 11.0347 39.146 10.72 38.3994 10.72C37.6527 10.72 37.0874 11.0347 36.7034 11.664C36.3194 12.2933 36.1274 13.2053 36.1274 14.4C36.1274 15.5947 36.3194 16.5067 36.7034 17.136C37.0874 17.7547 37.6527 18.064 38.3994 18.064C39.146 18.064 39.7114 17.7493 40.0954 17.12C40.49 16.4907 40.6874 15.584 40.6874 14.4ZM48.469 13.104C47.9463 13.6053 47.3063 13.856 46.549 13.856C45.781 13.856 45.1357 13.6 44.613 13.088C44.101 12.576 43.845 11.952 43.845 11.216C43.845 10.48 44.101 9.856 44.613 9.344C45.1463 8.832 45.7917 8.576 46.549 8.576C47.317 8.576 47.957 8.832 48.469 9.344C48.981 9.83467 49.237 10.4587 49.237 11.216C49.237 11.9627 48.981 12.592 48.469 13.104ZM45.941 18.864L44.981 18.304L52.277 10.192L53.253 10.736L45.941 18.864ZM45.813 11.952C46.005 12.144 46.245 12.24 46.533 12.24C46.821 12.24 47.061 12.144 47.253 11.952C47.445 11.7493 47.541 11.504 47.541 11.216C47.541 10.928 47.445 10.688 47.253 10.496C47.061 10.304 46.821 10.208 46.533 10.208C46.245 10.208 46.005 10.304 45.813 10.496C45.6317 10.688 45.541 10.928 45.541 11.216C45.541 11.504 45.6317 11.7493 45.813 11.952ZM54.645 17.552C54.645 18.288 54.389 18.912 53.877 19.424C53.365 19.936 52.725 20.192 51.957 20.192C51.189 20.192 50.549 19.936 50.037 19.424C49.525 18.912 49.269 18.288 49.269 17.552C49.269 16.816 49.525 16.192 50.037 15.68C50.549 15.168 51.189 14.912 51.957 14.912C52.725 14.912 53.365 15.168 53.877 15.68C54.389 16.192 54.645 16.816 54.645 17.552ZM52.661 18.288C52.853 18.0853 52.949 17.84 52.949 17.552C52.949 17.264 52.853 17.024 52.661 16.832C52.4797 16.6293 52.245 16.528 51.957 16.528C51.669 16.528 51.429 16.6293 51.237 16.832C51.0557 17.024 50.965 17.264 50.965 17.552C50.965 17.84 51.0557 18.0853 51.237 18.288C51.429 18.48 51.669 18.576 51.957 18.576C52.245 18.576 52.4797 18.48 52.661 18.288Z" fill="#323232"/>
</svg>
