<svg width="32" height="23" viewBox="0 0 32 23" fill="none" xmlns="http://www.w3.org/2000/svg">
<path d="M31.3015 3.513C31.1174 2.8343 30.7589 2.21558 30.2617 1.71833C29.7644 1.22107 29.1457 0.862589 28.467 0.6785C25.982 1.78814e-07 15.98 0 15.98 0C15.98 0 5.9775 0.0200002 3.492 0.6985C2.8133 0.882589 2.19458 1.24107 1.69733 1.73833C1.20007 2.23558 0.841589 2.8543 0.6575 3.533C0 6.0185 0 11.215 0 11.215C0 11.215 0 16.4115 0.678 18.917C0.862089 19.5957 1.22057 20.2144 1.71783 20.7117C2.21508 21.2089 2.8338 21.5674 3.5125 21.7515C5.9975 22.43 16 22.43 16 22.43C16 22.43 26.0025 22.43 28.488 21.752C29.1667 21.5679 29.7854 21.2094 30.2827 20.7122C30.7799 20.2149 31.1384 19.5962 31.3225 18.9175C32 16.432 32 11.215 32 11.215C32 11.215 31.98 6.0185 31.3015 3.513Z" fill="#FF0000"/>
<path d="M12.7954 16.0202L21.0929 11.2142L12.7949 6.4082L12.7954 16.0202Z" fill="white"/>
</svg>
