<svg width="88" height="28" viewBox="0 0 88 28" fill="none" xmlns="http://www.w3.org/2000/svg">
<g clip-path="url(#clip0_120_8297)">
<path d="M31.1392 13.0975L31.5488 11.7945L30.1939 11.8368C30.0794 11.8368 29.2473 11.8134 28.4402 11.2317C28.5003 11.2376 28.5605 11.2457 28.6219 11.2457C29.4527 11.2457 30.2564 10.7485 30.5786 10.0378L31.1617 8.75362C30.4311 8.76295 29.7631 8.67148 29.7631 8.67148C29.7572 8.67032 29.2308 8.60341 28.6219 7.98543C28.1852 7.54209 27.6447 7.30753 27.0593 7.30753C26.8032 7.30753 26.5742 7.35327 26.3772 7.41545C26.4079 7.31109 26.4373 7.20551 26.4539 7.09643C26.6403 5.89435 25.8614 4.97723 25.8614 4.97839L24.8429 3.72469L24.2115 5.19773C24.2092 5.20244 24.0498 5.5472 23.7642 5.71611C23.6781 5.28335 23.4669 4.7966 23.0148 4.33106C22.1627 3.45382 21.1254 3.32363 20.5825 3.32363C20.331 3.32363 20.1517 3.35063 20.108 3.35764L18.8783 3.59805C18.9491 3.32478 19.1001 2.84984 19.3763 2.42178L20.0549 1.37093L18.3472 1.56444L17.8031 0.416331L16.7504 0.955833L15.7768 0L14.8054 0.955833L13.7492 0.416331L13.2063 1.56444L11.4998 1.37093L12.1795 2.42178C12.4557 2.84984 12.6068 3.32363 12.6764 3.59689L11.5032 3.36705L11.4631 3.35995C11.4041 3.35063 11.226 3.32363 10.9734 3.32363C10.4305 3.32363 9.39313 3.45498 8.54333 4.33106C8.09013 4.79544 7.87891 5.28335 7.79158 5.71611C7.50838 5.54959 7.35017 5.20946 7.35017 5.20946L6.71761 3.72824L5.68264 4.99011C5.5563 5.15315 4.93203 6.0151 5.10194 7.09876C5.11968 7.20668 5.14799 7.31226 5.17869 7.41662C4.98278 7.35443 4.75379 7.3087 4.49773 7.3087C3.91234 7.3087 3.37184 7.54326 2.93399 7.98659C2.3273 8.6023 1.80331 8.67148 1.80808 8.67148C1.80808 8.67148 1.25455 8.77001 0.397743 8.75472L0.9772 10.0389C1.29943 10.7508 2.10425 11.2469 2.93399 11.2469C2.99654 11.2469 3.05669 11.2387 3.11809 11.2328C2.31319 11.8145 1.48115 11.838 1.3808 11.8392L0 11.7945L0.417796 13.0964C0.627888 13.7671 1.33005 14.8789 2.67553 14.9986C2.52915 15.6084 2.2046 16.291 1.49179 16.5854L0.46384 17.0064L1.0244 17.9763C1.3407 18.4994 2.08304 19.1115 3.14045 19.1115C3.36944 19.1103 3.5901 19.0881 3.80259 19.0435C3.85688 19.2827 3.9253 19.5219 4.00559 19.7589C4.32065 20.6901 4.04924 21.3398 4.04569 21.3468L3.5382 22.4035L4.67119 22.7002C4.68538 22.7049 5.02759 22.7975 5.45603 22.7975C5.65078 22.7975 5.83602 22.7776 6.01073 22.7365C6.14285 22.7061 6.2692 22.6651 6.39071 22.6158C6.53707 22.8773 6.71527 23.1154 6.923 23.3288C7.64884 24.0689 8.67679 24.4441 9.97967 24.4441H9.98439L10.9144 24.4324L8.99302 25.2252L10.4518 25.9254C10.9817 26.1822 11.6107 26.4859 12.2503 26.7181L12.0686 27.2131L12.5714 27.4406C12.6162 27.4605 13.5827 27.8909 15.1902 27.9824C15.1902 27.9824 15.5785 28 15.7921 28C16.0057 28 16.3892 27.9812 16.3892 27.9812C17.9861 27.8874 18.9455 27.4616 18.9904 27.4406L19.4943 27.2119L19.3102 26.7157C19.9688 26.4765 20.6202 26.161 21.1277 25.9148L22.5592 25.224L20.6438 24.43L21.5773 24.4417C22.8815 24.4417 23.9106 24.0665 24.6352 23.3253C24.8417 23.113 25.02 22.8749 25.1675 22.6134C25.2891 22.6627 25.4165 22.7037 25.5487 22.7343C25.7221 22.7753 25.9075 22.7951 26.1022 22.7951C26.5235 22.7951 26.8693 22.7025 26.8787 22.7002L28.0165 22.4011L27.5207 21.3644C27.5089 21.3375 27.2375 20.6889 27.5526 19.7565C27.6329 19.5185 27.7001 19.2793 27.7544 19.0412C27.9681 19.0857 28.1911 19.1092 28.4213 19.1092C29.7678 19.1092 30.4134 18.1674 30.5385 17.9634L31.0932 17.004L30.0652 16.5842C29.3512 16.2898 29.0279 15.6061 28.8827 14.9974C30.2092 14.8849 30.922 13.773 31.1392 13.0975ZM12.766 4.04608L12.752 4.04955L12.7637 4.03436L12.766 4.04608Z" fill="white"/>
<path d="M15.7772 3.98828C14.689 3.98944 13.8736 4.34361 13.6953 4.75994L15.7772 5.57617L17.859 4.75994C17.682 4.34361 16.8665 3.98944 15.7772 3.98828Z" fill="white"/>
<path d="M15.7995 25.5967H15.7971H15.7793H15.7593H15.7581C15.0984 25.6014 14.1908 25.4665 13.753 25.3398L13.2266 26.7554C13.5736 26.8785 14.7491 27.1131 15.7793 27.1131C16.8073 27.1131 17.9839 26.8774 18.3297 26.7554L17.8045 25.3398C17.3655 25.4677 16.4591 25.6014 15.7995 25.5967Z" fill="white"/>
<path d="M19.7828 24.1895C19.391 24.41 18.5165 24.7406 18.0078 24.8943L18.435 26.0635C19.2222 25.85 19.8713 25.6003 20.4083 25.3329L19.522 25.0397L19.7828 24.1895Z" fill="white"/>
<path d="M11.7739 24.1895L12.0359 25.0397L11.1484 25.3329C11.6842 25.6003 12.3369 25.85 13.1205 26.0635L13.5477 24.8943C13.0414 24.7406 12.1657 24.4088 11.7739 24.1895Z" fill="white"/>
<path d="M15.7781 2.63581C16.5983 2.63581 17.4032 2.83048 18.0216 3.17293C18.0783 2.98412 18.1573 2.75544 18.2647 2.51619L18.0311 2.54434L17.7856 2.57011L17.6817 2.34844L17.3689 1.69171L16.7989 1.98726L16.577 2.09986L16.4 1.92625L15.7804 1.31641L15.162 1.92625L14.985 2.09986L14.7631 1.98726L14.1895 1.69171L13.8804 2.34844L13.7741 2.57011L13.5286 2.54434L13.2949 2.51619C13.4024 2.7566 13.4802 2.98412 13.5381 3.17293C14.1577 2.83048 14.9602 2.63581 15.7781 2.63581Z" fill="white"/>
<path d="M28.3009 10.2255C28.4072 10.2619 28.5157 10.2784 28.6232 10.2784C29.0869 10.2784 29.5354 9.9804 29.69 9.63921C29.69 9.63921 28.8391 9.58758 27.9244 8.66463C27.633 8.3655 27.3249 8.27637 27.0606 8.27637C26.6499 8.27637 26.3418 8.49214 26.3418 8.49214C27.4465 9.07623 27.6719 10.0144 28.3009 10.2255Z" fill="white"/>
<path d="M2.93293 10.2784C3.04029 10.2784 3.14888 10.2619 3.25277 10.2255C3.88413 10.0144 4.11073 9.07623 5.21542 8.49214C5.21542 8.49214 4.90614 8.27637 4.49783 8.27637C4.23228 8.27637 3.92424 8.3655 3.63154 8.66463C2.71812 9.58758 1.86719 9.63921 1.86719 9.63921C2.01943 9.9804 2.46908 10.2784 2.93293 10.2784Z" fill="white"/>
<path d="M28.6009 14.0378C28.6198 14.0389 28.6363 14.0389 28.6564 14.0389C29.8141 14.0389 30.2071 12.8063 30.2071 12.8063H30.1847C29.9723 12.8063 28.2504 12.757 27.0336 11.2196C26.2323 10.2086 25.576 9.31964 24.279 8.97022L24.1516 8.94794L24.1232 8.8189C24.0878 8.6218 24.2235 8.43769 24.5316 8.23837C26.3207 7.0738 25.1063 5.58903 25.1063 5.58903C25.1063 5.58903 24.5953 6.77712 23.4517 6.77712C23.4246 6.77712 23.395 6.77595 23.3667 6.77595C23.237 6.76884 23.1118 6.76411 22.9855 6.73722L22.7743 6.69621C22.7743 6.69621 23.1 5.8154 22.314 5.00618C21.7215 4.39519 21.0005 4.29199 20.5838 4.29199C20.3737 4.29199 20.2404 4.31891 20.2404 4.31891C20.6358 4.83265 20.9214 5.68405 20.4647 6.20942C20.0705 6.66092 19.1074 6.68326 19.1074 7.35637C19.1074 7.64139 19.3753 7.97447 19.8568 8.27349C21.305 9.18005 22.7424 10.3822 23.3396 11.9936C24.0866 14.0037 23.2452 15.3372 22.0438 16.1018C22.0438 16.1018 22.4202 16.4466 22.9667 16.49C23.0776 16.5006 23.1862 16.5053 23.2877 16.5053C24.4407 16.5053 25.0367 15.9681 25.0367 15.9681C25.0367 15.9681 24.9387 16.7105 24.338 17.4001C23.7845 18.0369 23.0575 18.411 21.9493 18.4274C21.9493 18.4274 21.9139 18.9387 22.4049 19.3809C22.7188 19.66 23.4446 19.7514 23.4446 19.7514C23.4446 19.7514 22.0862 20.0247 21.9364 22.0185C21.8549 23.0986 21.5775 23.4738 21.5775 23.4738H21.6024C24.7546 23.4738 24.6732 20.787 24.6732 20.787C24.6732 20.787 24.8927 21.5821 25.7719 21.7898C25.8781 21.8179 25.9915 21.8285 26.1 21.8285C26.3833 21.8285 26.6287 21.7628 26.6287 21.7628C26.6287 21.7628 26.1685 20.7976 26.6252 19.4478C27.0041 18.3277 26.9427 17.4974 26.9427 17.4974C26.9427 17.4974 27.3675 18.1354 28.4203 18.1413H28.4309C29.3078 18.1413 29.6901 17.481 29.6901 17.481C27.5883 16.6143 27.796 13.8161 27.796 13.8161C27.796 13.8161 28.0686 14.0177 28.6009 14.0378ZM27.9683 16.9603C27.1138 16.5416 26.5733 15.4298 26.4423 15.0287C26.3006 17.2335 25.2173 18.764 23.9509 20.237C23.2935 21.0005 23.0646 21.7429 23.0646 21.7429C23.0646 21.7429 23.1909 20.902 23.7597 20.2171C24.9411 18.8062 26.0635 17.0506 26.1473 15.0205C26.2051 13.6038 25.838 12.4545 25.2657 11.5081C25.5855 12.4944 25.5407 13.7023 24.4537 14.8294C24.4537 14.8294 26.617 12.2527 23.5921 9.61165C22.3813 8.60663 21.0571 7.98619 20.375 7.54642C22.8392 8.34506 24.0418 7.46545 24.0418 7.46545C23.2546 8.14335 22.2361 8.13162 21.6047 8.03426C21.7758 8.11756 21.9541 8.2043 22.1464 8.30639C24.2235 9.42755 26.0906 11.2723 26.4092 13.8278V13.8078C26.8931 16.3164 27.9683 16.9603 27.9683 16.9603Z" fill="white"/>
<path d="M8.11208 19.7514C8.11208 19.7514 8.83792 19.6611 9.15187 19.3809C9.64158 18.9387 9.60745 18.4274 9.60745 18.4274C8.49807 18.4122 7.77223 18.0369 7.2152 17.4013C6.61915 16.7116 6.52004 15.9693 6.52004 15.9693C6.52004 15.9693 7.11598 16.5064 8.26788 16.5064C8.37178 16.5064 8.47917 16.5017 8.59006 16.4911C9.13653 16.4478 9.51418 16.103 9.51418 16.103C8.31269 15.3384 7.47012 14.0037 8.21597 11.9936C8.81435 10.3833 10.2506 9.18005 11.6988 8.27349C12.1802 7.97447 12.4481 7.64261 12.4481 7.35637C12.4481 6.68326 11.4863 6.66092 11.092 6.20942C10.6354 5.68405 10.9222 4.83142 11.3163 4.31891C11.3163 4.31891 11.1853 4.29199 10.974 4.29199C10.5586 4.29199 9.83752 4.39519 9.24508 5.00618C8.45671 5.8154 8.78367 6.69621 8.78367 6.69621L8.57238 6.73722C8.44615 6.76411 8.3198 6.76884 8.19118 6.77595C8.16172 6.77595 8.1357 6.77712 8.10741 6.77712C6.96145 6.77712 6.45279 5.59019 6.45279 5.59019C6.45279 5.59019 5.23835 7.07497 7.02632 8.23948C7.33438 8.43886 7.46895 8.62308 7.43354 8.82001L7.40513 8.94905L7.27534 8.97133C5.98069 9.3208 5.32335 10.2098 4.522 11.2207C3.30756 12.7559 1.58801 12.8063 1.37329 12.8063H1.34961C1.34961 12.8063 1.74265 14.0389 2.9004 14.0389C2.9193 14.0389 2.9358 14.0389 2.95586 14.0378C3.48811 14.0189 3.76191 13.8161 3.76191 13.8161C3.76191 13.8161 3.9673 16.6132 1.86775 17.481C1.86775 17.481 2.25015 18.1413 3.127 18.1413H3.13764C4.1915 18.1354 4.61524 17.4974 4.61524 17.4974C4.61524 17.4974 4.55385 18.3277 4.93154 19.4478C5.38821 20.7976 4.93031 21.7628 4.93031 21.7628C4.93031 21.7628 5.1758 21.8285 5.45786 21.8285C5.56761 21.8285 5.67975 21.8179 5.7848 21.7898C6.66278 21.5821 6.88352 20.787 6.88352 20.787C6.88352 20.787 6.80325 23.4738 9.95559 23.4738H9.97793C9.97793 23.4738 9.70183 23.0986 9.62157 22.0185C9.47054 20.0247 8.11208 19.7514 8.11208 19.7514ZM7.60586 20.237C6.3395 18.764 5.25725 17.2335 5.11441 15.0287C4.98345 15.4287 4.44525 16.5416 3.59085 16.9603C3.59085 16.9603 4.66476 16.3164 5.14749 13.8078V13.8278C5.46734 11.2735 7.33321 9.42755 9.41145 8.30639C9.6015 8.20319 9.78204 8.1164 9.95203 8.03426C9.32063 8.13162 8.30213 8.14335 7.51492 7.46545C7.51492 7.46545 8.71752 8.34506 11.1806 7.54642C10.4985 7.98619 9.17544 8.60663 7.96455 9.61165C4.93856 12.2527 7.10303 14.8294 7.10303 14.8294C6.01493 13.7012 5.9713 12.4944 6.29108 11.5081C5.71754 12.4556 5.35165 13.6038 5.41065 15.0205C5.49325 17.0506 6.61559 18.8062 7.79463 20.2171C8.36472 20.9008 8.49334 21.7429 8.49334 21.7429C8.49334 21.7429 8.26193 21.0005 7.60586 20.237Z" fill="white"/>
<path d="M13.447 9.92854C13.4988 9.98372 13.5496 10.0435 13.5981 10.1033C13.6099 10.1174 13.6204 10.1303 13.6322 10.1468C13.6771 10.2065 13.7231 10.2698 13.7668 10.3343C13.7762 10.3473 13.7857 10.3625 13.7963 10.3778C13.8494 10.4575 13.899 10.5395 13.9485 10.624C14.4029 11.4039 15.1311 11.8695 15.7766 11.8707C16.4234 11.8695 17.1492 11.4039 17.606 10.624C17.6567 10.5372 17.7075 10.4528 17.7605 10.3742C17.7688 10.3625 17.7771 10.352 17.7841 10.3402C17.829 10.2734 17.8762 10.2077 17.9258 10.1444C17.9364 10.1303 17.9458 10.1186 17.9553 10.1069C18.006 10.0447 18.0579 9.98372 18.1111 9.92737C18.1205 9.91798 18.1275 9.90982 18.1358 9.90282C18.3671 9.66703 18.6433 9.4876 19.0044 9.38791L18.8439 9.29527H18.8345L18.1948 8.92585L17.5375 8.55176L15.7814 9.50166L15.7766 9.49816L15.7731 9.50166L14.0158 8.55176L13.3597 8.92468L12.7188 9.29411H12.7117L12.5488 9.38674C12.9111 9.48643 13.1861 9.66353 13.4186 9.89926C13.4292 9.90865 13.4363 9.91921 13.447 9.92854ZM15.0661 9.85236H15.8097H16.552V10.359C16.3774 10.1468 16.0375 10.1901 16.0375 10.1901V10.9207C16.0375 10.9207 16.0505 11.2796 16.1767 11.4356H15.8097H15.4415C15.5701 11.2808 15.5819 10.9207 15.5819 10.9207V10.1901C15.5819 10.1901 15.2432 10.1468 15.0661 10.359V9.85236Z" fill="white"/>
<path d="M15.6267 8.86987V5.90397L13.7266 5.26367L14.2281 8.13813L15.6267 8.86987ZM15.2183 6.63226V7.10838L15.1263 7.0662C15.1215 7.06264 14.987 7.03219 14.751 6.84687C14.3615 6.54668 14.3545 6.26989 14.3545 6.26989L15.2183 6.63226Z" fill="white"/>
<path d="M17.3294 8.13813L17.8286 5.26367L15.9297 5.90397V8.86987L17.3294 8.13813ZM16.3381 6.63226L17.2019 6.271C17.2019 6.271 17.1949 6.54785 16.8042 6.84809C16.5694 7.03336 16.4336 7.06381 16.4289 7.06737L16.3369 7.10954V6.63226H16.3381Z" fill="white"/>
<path d="M12.9382 15.7454C13.1236 15.8123 13.3478 15.8265 13.4622 15.8265C13.467 15.8123 13.4729 15.7947 13.4788 15.7736C13.4894 15.7396 13.4989 15.7068 13.506 15.6692C13.5378 15.505 13.5496 15.3185 13.552 15.1989C13.474 15.1509 13.3643 15.0653 13.303 14.9375C13.2322 14.7897 13.1318 14.7217 12.9843 14.7217C12.7931 14.7217 12.5878 14.8354 12.5004 14.8893C12.4309 15.2987 12.7341 15.6704 12.9382 15.7454Z" fill="white"/>
<path d="M17.1415 14.1719C16.7886 14.5531 16.0982 15.2169 16.0639 15.2509L16.0226 15.2931L13.8405 15.2591C13.8393 15.4737 13.8039 15.6567 13.7697 15.7903C13.7638 15.8126 13.7579 15.8361 13.752 15.8596L16.3484 16.3228C16.6186 16.1351 17.3621 15.5957 17.6501 15.3846C17.44 15.0797 17.42 14.7184 17.4671 14.464C17.3303 14.376 17.2252 14.2775 17.1415 14.1719Z" fill="white"/>
<path d="M17.4375 11.5641C16.9346 12.0602 16.452 12.2431 16.0213 12.2853C15.9433 12.2936 15.8643 12.2983 15.784 12.2983H15.7781H15.7733C15.6931 12.2983 15.6129 12.2936 15.5349 12.2853C15.4594 12.2783 15.3804 12.2666 15.3014 12.249C15.273 12.3604 15.2375 12.5937 15.339 12.8142C15.4299 13.0148 15.6153 13.1637 15.8855 13.2623L15.9763 13.2974L15.9776 13.3948C15.9776 13.4241 15.9988 14.0551 16.6916 14.2298C16.8048 14.1137 16.9075 14.0093 16.9831 13.9226C16.8414 13.5918 16.9157 13.254 17.1211 13.0886C17.1117 13.1238 17.022 13.9519 17.6901 14.2592L17.7998 14.3107L17.7667 14.4268C17.756 14.462 17.533 15.263 18.3415 15.5609L18.4843 15.6148L18.4205 15.7533C18.4064 15.7837 18.0889 16.5109 18.836 16.9237H20.4563V15.6453C19.8805 15.5749 19.6361 15.1153 19.5736 14.7892C19.3057 14.7435 19.098 14.6285 18.9563 14.4409C18.6164 13.9964 18.9091 13.5894 18.9127 13.5672C18.9115 13.5707 18.9127 14.0046 19.1818 14.272C19.3151 14.401 19.4733 14.5007 19.7128 14.523L19.8308 14.5336L19.8415 14.6532C19.8438 14.6789 19.9088 15.2654 20.4575 15.358L20.4563 12.7474C20.4563 12.3428 20.5756 11.9359 20.7184 11.5605H17.4375V11.5641Z" fill="white"/>
<path d="M13.0768 12.7594L13.0332 14.4223L13.2231 14.4505L13.6882 12.8555L13.4522 12.3652L13.0768 12.7594Z" fill="white"/>
<path d="M18.2023 20.3864C18.2166 20.3864 18.2331 20.3887 18.2484 20.3922C18.5376 20.4743 18.6107 21.511 19.1182 21.6037C19.1677 21.6142 19.2138 21.6166 19.2539 21.6166C19.4003 21.6166 19.4876 21.5544 19.582 21.4442C19.582 21.4442 19.3271 21.0455 19.1359 20.7768C18.8821 20.4251 18.6851 19.9993 18.213 19.9993C18.2023 19.9993 18.1882 19.9993 18.1764 20.0005C18.0206 20.0088 17.925 20.0838 17.925 20.0838C17.7338 19.9642 17.5556 19.9231 17.3939 19.9231C17.0977 19.9231 16.8676 20.0579 16.753 20.0579H16.7484L15.6932 19.9547C15.528 19.9396 15.3982 19.7742 15.351 19.7096C15.3393 19.6921 15.3333 19.6815 15.3333 19.6815C15.3333 19.6533 15.3333 19.6241 15.331 19.5983C15.2956 18.7409 14.6276 18.3739 14.3904 18.368C14.3904 18.368 14.4186 18.205 14.3538 18.1428L14.1213 18.4231L13.3577 18.042L13.9018 18.6742L13.4403 19.1889C13.3825 19.2476 13.3895 19.3273 13.4132 19.3602L13.6126 19.535L13.8652 19.3825C13.8781 19.373 13.9006 19.3708 13.9289 19.3708C13.9985 19.3708 14.1036 19.3883 14.198 19.3883C14.3006 19.3883 14.3904 19.366 14.401 19.2699C14.3691 19.5877 14.0729 20.1401 14.2676 20.574L14.4116 20.9012L13.4792 20.7675L13.0426 21.5005C12.908 21.7444 12.8868 22.0083 13.0167 22.1514L13.1795 22.3542C13.1795 22.3542 13.4084 22.1127 13.4603 21.9544L13.386 21.8734C13.3234 21.8054 13.327 21.7444 13.3648 21.6705L13.6386 21.219L14.7397 21.477L14.7975 21.3785C14.8718 21.2553 14.9793 21.2178 15.0973 21.2178C15.1457 21.2178 15.1952 21.2237 15.2472 21.2319C15.4514 21.2718 15.7877 21.3258 16.1241 21.3258C16.4934 21.3258 16.8593 21.2601 17.054 21.0431C17.4529 21.6307 18.2614 21.7245 18.1977 22.0224L17.9852 23.0287C18.1257 23.0228 18.2614 23.0134 18.39 22.9958L18.5918 21.9485C18.6143 21.8347 18.6355 21.6811 18.6355 21.6811C18.5576 21.6025 18.3688 21.436 18.2626 21.2343C18.1197 20.9622 18.1977 20.8203 18.0643 20.4661C18.069 20.4684 18.1091 20.3864 18.2023 20.3864ZM14.0835 18.9157C14.0292 18.9145 13.9903 18.8688 13.9926 18.8148C13.9974 18.7632 14.0411 18.7222 14.0941 18.7269C14.1484 18.7292 14.1874 18.7761 14.185 18.8277C14.1802 18.8794 14.1354 18.9193 14.0835 18.9157Z" fill="white"/>
<path d="M12.5816 21.3385C12.5816 21.3385 12.9463 21.1895 12.9793 21.0828L12.9309 20.962C12.8967 20.8834 12.9014 20.7978 12.9675 20.7509L13.3616 20.48L14.0202 20.6055C14.0202 20.6055 13.901 20.4576 13.9128 20.2595L13.285 20.127L12.6925 20.4858C12.4388 20.6746 12.4199 20.9831 12.5037 21.1661L12.5816 21.3385Z" fill="white"/>
<path d="M17.2363 23.0433C17.3543 23.0386 17.4841 23.0362 17.627 23.0362C17.627 23.0362 17.9657 22.0523 17.9845 22.0206C17.7946 21.9374 17.4004 21.7298 17.2481 21.6348C17.3484 21.7838 17.5927 21.955 17.5444 22.0863L17.2363 23.0433Z" fill="white"/>
<path d="M20.4601 17.208H11.0977V20.7075C11.0977 22.1383 12.1398 23.0343 13.6776 23.0343C14.9628 23.0343 15.3014 23.0836 15.7795 23.5551C16.1088 23.2289 16.3814 23.107 16.9408 23.0613L16.9537 23.0074L17.2488 22.1008C17.2323 22.0809 16.7496 21.5355 16.7496 21.5355C16.5584 21.5988 16.3979 21.6094 16.1277 21.6094C15.8503 21.6094 15.5376 21.5778 15.1988 21.5145C15.1646 21.5062 15.1327 21.5038 15.1008 21.5038C15.0595 21.5038 15.056 21.5074 15.0454 21.5273L14.9864 21.6235L14.879 21.7994L14.6772 21.7537L13.7791 21.5438L13.6563 21.7454L13.6752 21.7666L13.785 21.8862L13.7366 22.0421C13.6704 22.2462 13.4557 22.4843 13.3908 22.5499L13.1665 22.7892L12.9624 22.5324L12.809 22.3412C12.6472 22.1618 12.6095 21.8862 12.7004 21.5977C12.698 21.6 12.6944 21.6012 12.691 21.6012L12.4372 21.7056L12.3227 21.4593L12.2424 21.2845C12.1044 20.9773 12.1551 20.5282 12.5269 20.2572L13.2504 19.8514L13.9384 19.9863C13.9549 19.9206 13.9797 19.6861 13.9997 19.6262C13.9868 19.6251 13.9738 19.6216 13.9608 19.6216L13.5643 19.7681L13.1818 19.5055C13.1818 19.5055 13.032 19.3624 13.1677 19.2193L13.5383 18.6622L12.6 17.4918L14.0422 18.0805L14.1379 17.962L14.3325 17.7311L14.5533 17.9397C14.6158 17.9996 14.6512 18.0735 14.6689 18.1474C15.0666 18.301 15.7783 18.7548 15.8408 19.4926L15.6178 19.5817V19.5876C15.6685 19.6473 15.711 19.672 15.724 19.6743L16.7531 19.7751C16.7791 19.7705 16.8122 19.7588 16.8487 19.7483C16.9762 19.7048 17.1686 19.6427 17.3963 19.6427C17.5816 19.6427 17.761 19.6849 17.9333 19.7646C17.997 19.7412 18.075 19.7236 18.1647 19.7177L18.2141 19.7165C18.7653 19.7165 19.0391 20.1258 19.2587 20.4519C19.2952 20.5082 19.3318 20.5622 19.3696 20.6149C19.5619 20.8846 19.8133 21.2799 19.824 21.2962L19.9373 21.4722L19.798 21.6328C19.6906 21.756 19.5301 21.9002 19.2539 21.9002C19.1973 21.9002 19.1348 21.8944 19.0675 21.8815C19.0085 21.8709 18.9554 21.8533 18.9035 21.8322C18.8952 21.8862 18.8846 21.9507 18.8739 22.0058L18.6934 22.9417C19.7732 22.6778 20.4589 21.8674 20.4589 20.7087L20.4601 17.208Z" fill="#FFDD2D"/>
<path d="M11.0975 16.927H18.3781C18.0145 16.554 18.0193 16.0814 18.1125 15.7741C18.0063 15.7237 17.919 15.6626 17.8411 15.597C17.5567 15.8057 16.688 16.4344 16.4615 16.5915L16.4131 16.6244L13.5558 16.1107H13.498C13.4296 16.1107 13.3292 16.1084 13.2195 16.0954C13.1888 16.2233 13.0779 16.3113 12.9504 16.3113C12.9362 16.3113 12.9197 16.3101 12.9043 16.3065C12.83 16.2936 12.7652 16.2561 12.7215 16.194C12.6766 16.133 12.6589 16.0602 12.6719 15.9852L12.6825 15.9242C12.3875 15.7178 12.116 15.2569 12.2364 14.7714L12.2482 14.7198L12.2895 14.6905C12.2954 14.6858 12.3449 14.653 12.4181 14.6107L12.2104 14.579C12.1325 14.565 12.0806 14.4934 12.0925 14.4172C12.1054 14.3398 12.1786 14.2847 12.2553 14.2999L12.7498 14.3773L12.7946 12.6463L13.5311 11.8723L13.9902 12.8328L13.5051 14.4981L13.9418 14.5662C14.0185 14.5779 14.0716 14.6495 14.0598 14.728C14.048 14.7972 13.989 14.8453 13.9193 14.8453C13.9122 14.8453 13.904 14.8453 13.8969 14.8441L13.5416 14.7867C13.5464 14.7972 13.5534 14.803 13.5582 14.8148C13.5959 14.8922 13.6798 14.9485 13.7293 14.9719L15.908 15.0059C16 14.9168 16.229 14.694 16.4638 14.4582C15.9281 14.2566 15.7333 13.7968 15.7002 13.4919C15.4005 13.3652 15.1939 13.1753 15.0795 12.9277C14.9402 12.6217 14.9898 12.3156 15.0263 12.1667C14.736 12.0611 14.4304 11.8688 14.1188 11.5615H10.8379C10.9784 11.9368 11.0975 12.3438 11.0975 12.7484V16.927Z" fill="#FFDD2D"/>
<path d="M14.0959 18.7269C14.0427 18.7222 13.9979 18.7632 13.9944 18.8148C13.9908 18.8687 14.0309 18.9145 14.0852 18.9157C14.1371 18.9204 14.1832 18.8805 14.1879 18.8277C14.1879 18.7761 14.1502 18.728 14.0959 18.7269Z" fill="black"/>
<path d="M20.447 25.0727L19.9076 24.8675L20.0563 24.3139L20.2203 23.71C20.2203 23.71 19.2644 24.2248 17.9178 24.6118C17.5354 24.7208 17.2463 24.7701 17.2463 24.7701V25.1806C17.2463 25.1806 16.5264 25.3049 15.7982 25.3049H15.7899H15.7793H15.7651H15.7568C15.0287 25.3049 14.3088 25.1806 14.3088 25.1806V24.7701C14.3088 24.7701 14.0184 24.7208 13.6372 24.6118C12.2906 24.2248 11.3359 23.71 11.3359 23.71L11.4975 24.3139L11.6498 24.8675L11.1093 25.0727L10.5098 25.2955C11.1978 25.6251 12.1502 26.1059 13.0224 26.3428L12.817 26.9011C12.817 26.9011 13.9228 27.4019 15.7651 27.4065V27.4077H15.7711H15.7793H15.7864H15.7911V27.4065C17.6358 27.4019 18.7404 26.9011 18.7404 26.9011L18.5338 26.3428C19.4059 26.1059 20.3608 25.6251 21.0453 25.2955L20.447 25.0727ZM11.1494 25.3331L12.0369 25.0398L11.7749 24.1896C12.1655 24.4101 13.0425 24.7408 13.5499 24.8945L13.1215 26.0637C12.3378 25.849 11.6852 25.5993 11.1494 25.3331ZM15.7793 27.1133C14.749 27.1133 13.5723 26.8776 13.2266 26.7556L13.7529 25.3401C14.1895 25.4667 15.0983 25.6017 15.758 25.5969H15.7592H15.7793H15.797H15.7994C16.4591 25.6017 17.3654 25.4667 17.8045 25.3401L18.3296 26.7556C17.9839 26.8788 16.8084 27.1133 15.7793 27.1133ZM18.4347 26.0637L18.0075 24.8945C18.5161 24.7408 19.3906 24.4101 19.7825 24.1896L19.5217 25.0398L20.408 25.3331C19.871 25.5993 19.2218 25.849 18.4347 26.0637Z" fill="black"/>
<path d="M15.7781 2.97799C16.8757 2.97799 17.7536 3.33917 18.2387 3.72504C18.2387 3.72504 18.3827 2.86307 18.8749 2.1019L17.9909 2.20163L17.5283 1.22466L16.6396 1.67971L15.7781 0.833008L14.9189 1.67971L14.0291 1.22466L13.5676 2.20163L12.6836 2.1019C13.1757 2.86307 13.3197 3.72504 13.3197 3.72504C13.8059 3.33917 14.6816 2.97799 15.7781 2.97799ZM13.5274 2.54407L13.7729 2.56983L13.8791 2.34825L14.1883 1.69144L14.7619 1.98583L14.9838 2.09843L15.1608 1.92482L15.7792 1.31498L16.3988 1.92482L16.5759 2.09843L16.7977 1.98583L17.3678 1.69144L17.6805 2.34825L17.7844 2.56983L18.0298 2.54407L18.2635 2.51592C18.1561 2.75632 18.077 2.98385 18.0203 3.17265C17.4019 2.83021 16.5971 2.63554 15.7769 2.63554C14.9602 2.63554 14.1565 2.83021 13.5357 3.17265C13.4779 2.98385 13.4 2.75517 13.2925 2.51592L13.5274 2.54407Z" fill="black"/>
<path d="M28.655 14.4157C30.0749 14.4157 30.5493 12.9803 30.5693 12.9192L30.7275 12.4138L30.1952 12.4302H30.1929C30.0052 12.4302 28.4391 12.3892 27.3285 10.9865L27.2235 10.8563C26.4977 9.93923 25.8097 9.06784 24.5799 8.67024C24.6153 8.63863 24.666 8.59873 24.7357 8.55416C25.3883 8.12728 25.7684 7.60893 25.8639 7.00733C26.0032 6.10194 25.4226 5.38063 25.3966 5.35132L25.0012 4.86581L24.7546 5.44164C24.7381 5.47796 24.3226 6.39979 23.4493 6.39979H23.3843C23.3242 6.39623 23.2675 6.3939 23.2109 6.38923C23.2416 5.97758 23.166 5.34076 22.5854 4.74387C21.8878 4.0249 21.031 3.91699 20.5826 3.91699C20.343 3.91699 20.1838 3.94638 20.1671 3.94869L19.57 4.066L19.9382 4.54797C20.2274 4.91972 20.4894 5.60584 20.179 5.96468C20.0799 6.07849 19.8757 6.17113 19.6798 6.26376C19.2773 6.44792 18.7285 6.70353 18.7285 7.35564C18.7285 7.7778 19.0578 8.21874 19.655 8.59406C21.4229 9.69883 22.5134 10.8516 22.9843 12.124C23.7125 14.0815 22.7624 15.198 21.8395 15.7855L21.4253 16.0505L21.7876 16.3813C21.8359 16.4235 22.2797 16.8117 22.9347 16.868C23.0587 16.8762 23.1778 16.8833 23.2888 16.8833C23.7089 16.8833 24.0665 16.8175 24.3568 16.7296C24.2765 16.8692 24.1786 17.011 24.0547 17.1541C23.5272 17.7617 22.8781 18.0384 21.9446 18.0525L21.5975 18.0584L21.5704 18.4043C21.5668 18.4736 21.5409 19.115 22.1522 19.6604C22.2455 19.7448 22.3588 19.814 22.4768 19.8715C22.0626 20.2421 21.6412 20.8871 21.5598 21.993C21.4914 22.916 21.2695 23.2573 21.2671 23.2608L20.8836 23.8425L21.5763 23.8518C22.7211 23.8518 23.598 23.5375 24.2057 22.916C24.5645 22.5477 24.7699 22.1326 24.8915 21.7643C25.0909 21.9332 25.3482 22.081 25.6834 22.1595C25.8108 22.1888 25.9501 22.2053 26.1 22.2053C26.4234 22.2053 26.6936 22.1373 26.7243 22.1302L27.1669 22.013L26.971 21.6025C26.9568 21.5697 26.5874 20.7463 26.9851 19.5712C27.1562 19.0634 27.2436 18.6084 27.286 18.2542C27.5646 18.3984 27.9375 18.518 28.4202 18.5193C29.5154 18.5193 29.9981 17.7065 30.0206 17.6725L30.2365 17.2996L29.8365 17.1354C28.5312 16.597 28.242 15.1511 28.1842 14.3676C28.3022 14.3899 28.4368 14.4111 28.589 14.4157H28.655ZM29.6901 17.4813C29.6901 17.4813 29.3077 18.1416 28.4308 18.1416H28.4202C27.3675 18.1357 26.9426 17.4977 26.9426 17.4977C26.9426 17.4977 27.004 18.3281 26.624 19.4481C26.1672 20.7979 26.6276 21.7632 26.6276 21.7632C26.6276 21.7632 26.382 21.8288 26.0988 21.8288C25.9903 21.8288 25.8769 21.8182 25.7708 21.7901C24.8915 21.5825 24.672 20.7874 24.672 20.7874C24.672 20.7874 24.7534 23.4742 21.6011 23.4742H21.5763C21.5763 23.4742 21.8537 23.0989 21.9363 22.0188C22.0861 20.0251 23.4446 19.7518 23.4446 19.7518C23.4446 19.7518 22.7199 19.6615 22.406 19.3812C21.915 18.9391 21.9492 18.4278 21.9492 18.4278C23.0587 18.4126 23.7845 18.0372 24.338 17.4004C24.9375 16.7108 25.0366 15.9684 25.0366 15.9684C25.0366 15.9684 24.4406 16.5056 23.2876 16.5056C23.1861 16.5056 23.0776 16.5009 22.9665 16.4904C22.4213 16.447 22.0437 16.1021 22.0437 16.1021C23.2439 15.3375 24.0866 14.0029 23.3395 11.9927C22.7412 10.3826 21.3037 9.17926 19.8568 8.27276C19.3753 7.97363 19.1073 7.64177 19.1073 7.35564C19.1073 6.68248 20.0704 6.6613 20.4658 6.20869C20.9213 5.6832 20.6357 4.83064 20.2403 4.31813C20.2403 4.31813 20.3737 4.29114 20.5838 4.29114C21.0004 4.29114 21.7215 4.39549 22.3139 5.00533C23.1011 5.81455 22.7742 6.69531 22.7742 6.69531L22.9854 6.73638C23.1118 6.76338 23.2369 6.76805 23.3667 6.77394C23.395 6.77394 23.4233 6.77511 23.4516 6.77511C24.5952 6.77511 25.1063 5.58702 25.1063 5.58702C25.1063 5.58702 26.3219 7.07296 24.5327 8.23636C24.2246 8.43568 24.0889 8.6199 24.1243 8.81689L24.1527 8.94593L24.2801 8.96821C25.5771 9.31763 26.2333 10.2066 27.0347 11.2175C28.2514 12.755 29.9734 12.8043 30.1858 12.8043H30.2082C30.2082 12.8043 29.8152 14.0369 28.6574 14.0369C28.6385 14.0369 28.622 14.0369 28.602 14.0357C28.0697 14.017 27.7971 13.8141 27.7971 13.8141C27.7971 13.8141 27.5882 16.6135 29.6901 17.4813Z" fill="black"/>
<path d="M26.1605 8.825C26.6904 9.10524 26.9984 9.48055 27.2687 9.8137C27.5342 10.1386 27.7868 10.4516 28.1809 10.5818C28.3214 10.6299 28.4701 10.6522 28.6212 10.6522C29.2136 10.6522 29.8085 10.2921 30.0338 9.79369L30.2604 9.29406L29.7117 9.26128C29.6857 9.26005 28.98 9.1967 28.194 8.39806C27.8706 8.07093 27.4799 7.89844 27.0586 7.89844C26.5441 7.89844 26.1628 8.15411 26.1203 8.17995L25.6152 8.53299L26.1605 8.825ZM27.0598 8.27615C27.3241 8.27615 27.6322 8.36522 27.9237 8.6643C28.8383 9.5873 29.6892 9.63887 29.6892 9.63887C29.5347 9.97901 29.0862 10.278 28.6223 10.278C28.515 10.278 28.4075 10.2616 28.3001 10.2253C27.6711 10.0142 27.4457 9.07595 26.3399 8.49192C26.3399 8.49192 26.6491 8.27615 27.0598 8.27615Z" fill="black"/>
<path d="M26.4093 13.8084V13.8271C26.0907 11.2728 24.2236 9.42805 22.1465 8.30566C21.9541 8.20364 21.7771 8.11689 21.6048 8.03359C22.2374 8.13089 23.2559 8.14262 24.0418 7.46484C24.0418 7.46484 22.8392 8.34439 20.375 7.54575C21.0572 7.98553 22.3825 8.60596 23.5922 9.61099C26.6171 12.252 24.4526 14.8287 24.4526 14.8287C25.5395 13.7016 25.5843 12.4937 25.2646 11.5074C25.8369 12.4538 26.2028 13.6031 26.1461 15.0198C26.0624 17.0499 24.94 18.8055 23.7586 20.2164C23.1909 20.9013 23.0635 21.7422 23.0635 21.7422C23.0635 21.7422 23.2924 20.9998 23.9498 20.2363C25.2161 18.7633 26.2983 17.2328 26.44 15.0281C26.571 15.428 27.1103 16.5409 27.966 16.9595C27.9683 16.9608 26.8932 16.3169 26.4093 13.8084Z" fill="black"/>
<path d="M10.2881 23.2598C10.2869 23.2563 10.0674 22.915 9.99663 21.992C9.91403 20.8861 9.4938 20.2411 9.07841 19.8705C9.19881 19.8142 9.3097 19.745 9.40298 19.6594C10.0131 19.114 9.98713 18.4725 9.98357 18.4033L9.96 18.0573L9.61064 18.0514C8.67953 18.0363 8.02917 17.7595 7.50166 17.1531C7.37893 17.0101 7.27982 16.8682 7.19955 16.7286C7.48982 16.8166 7.84507 16.8822 8.26641 16.8822C8.37975 16.8822 8.49659 16.8752 8.62049 16.867C9.27546 16.8107 9.71926 16.4237 9.76878 16.3803L10.1311 16.0495L9.71687 15.7845C8.79042 15.1958 7.8439 14.0793 8.57091 12.1231C9.04178 10.8506 10.1311 9.69786 11.9014 8.59308C12.4986 8.21777 12.8255 7.77682 12.8255 7.35467C12.8255 6.70256 12.2779 6.44572 11.8754 6.26278C11.6795 6.17015 11.4754 6.07752 11.3763 5.96371C11.0647 5.60602 11.3278 4.91874 11.6158 4.54699L11.9864 4.06495L11.3868 3.94771C11.3692 3.94532 11.2122 3.91602 10.9714 3.91602C10.5229 3.91602 9.66851 4.02391 8.96979 4.74281C8.38798 5.34094 8.31133 5.97777 8.34078 6.38826C8.28414 6.39293 8.2275 6.39526 8.16847 6.39882H8.10477C7.22907 6.39882 6.81484 5.47699 6.79833 5.44066L6.55158 4.86483L6.1527 5.35034C6.1303 5.37965 5.54731 6.10207 5.68892 7.00636C5.78332 7.60795 6.16332 8.1263 6.81595 8.55318C6.88677 8.59775 6.93635 8.63765 6.97176 8.66927C5.74322 9.06687 5.05633 9.93942 4.33048 10.8565L4.22544 10.9867C3.11612 12.3894 1.54643 12.4304 1.35879 12.4304L0.824219 12.4139L0.987033 12.9194C1.00593 12.9804 1.47918 14.4159 2.90009 14.4159L2.96858 14.4135C3.11843 14.4088 3.25302 14.3889 3.37341 14.3655C3.31433 15.1477 3.02519 16.5937 1.71874 17.1332L1.31984 17.2974L1.53587 17.6704C1.55708 17.7044 2.04097 18.517 3.13849 18.517C3.61767 18.5159 3.99059 18.3963 4.27032 18.252C4.31282 18.6062 4.40013 19.0613 4.57127 19.5691C4.96902 20.7442 4.59842 21.5675 4.58423 21.6003L4.38833 22.0107L4.83212 22.128C4.86158 22.1351 5.13422 22.2031 5.45638 22.2031C5.60747 22.2031 5.74676 22.1867 5.87188 22.1574C6.20823 22.0788 6.46782 21.931 6.66487 21.7622C6.78527 22.1304 6.99183 22.5455 7.34947 22.9139C7.95835 23.5354 8.83405 23.8497 9.9789 23.8497L10.6728 23.8403L10.2881 23.2598ZM9.95288 23.4744C6.80061 23.4744 6.88093 20.7876 6.88093 20.7876C6.88093 20.7876 6.66143 21.5827 5.78217 21.7902C5.67712 21.8184 5.56497 21.829 5.45523 21.829C5.17201 21.829 4.92768 21.7633 4.92768 21.7633C4.92768 21.7633 5.38558 20.7981 4.92883 19.4483C4.55122 18.3283 4.61261 17.4979 4.61261 17.4979C4.61261 17.4979 4.18888 18.1359 3.13502 18.1418H3.12437C2.24752 18.1418 1.86512 17.4815 1.86512 17.4815C3.96583 16.6148 3.75928 13.8165 3.75928 13.8165C3.75928 13.8165 3.48672 14.0183 2.95323 14.0382C2.93433 14.0395 2.91667 14.0395 2.89778 14.0395C1.73879 14.0395 1.34698 12.8069 1.34698 12.8069H1.37059C1.58423 12.8069 3.30377 12.7576 4.52052 11.2201C5.32187 10.2092 5.97922 9.32137 7.27387 8.97067L7.40366 8.94839L7.43207 8.81942C7.46748 8.62237 7.3329 8.43827 7.0249 8.23888C5.23572 7.07426 6.45131 5.58959 6.45131 5.58959C6.45131 5.58959 6.95998 6.77641 8.10593 6.77641C8.13423 6.77641 8.16024 6.77524 8.1897 6.77524C8.31833 6.76824 8.44584 6.76352 8.57091 6.73657L8.78219 6.6955C8.78219 6.6955 8.45523 5.81473 9.24361 5.00559C9.8361 4.39451 10.5572 4.29131 10.9726 4.29131C11.1838 4.29131 11.3149 4.31831 11.3149 4.31831C10.9207 4.83198 10.6351 5.68338 11.0906 6.20882C11.4848 6.66032 12.4466 6.68261 12.4466 7.35577C12.4466 7.64079 12.1788 7.97382 11.6973 8.27289C10.2491 9.17945 8.81171 10.3828 8.21449 11.9929C7.46864 14.003 8.3101 15.3365 9.5127 16.1023C9.5127 16.1023 9.13505 16.4471 8.58864 16.4905C8.47769 16.501 8.3703 16.5058 8.26641 16.5058C7.11456 16.5058 6.51857 15.9686 6.51857 15.9686C6.51857 15.9686 6.61768 16.711 7.21373 17.4006C7.77075 18.0374 8.49659 18.4127 9.60598 18.428C9.60598 18.428 9.64138 18.9393 9.15039 19.3814C8.83533 19.6605 8.1106 19.752 8.1106 19.752C8.1106 19.752 9.47023 20.0253 9.61893 22.019C9.70036 23.0991 9.97534 23.4744 9.97534 23.4744H9.95288Z" fill="black"/>
<path d="M2.93381 10.6529C3.08606 10.6529 3.23476 10.6306 3.37513 10.5826C3.77172 10.4524 4.02308 10.1392 4.28862 9.81437C4.56011 9.48134 4.86577 9.10608 5.39563 8.82579L5.94092 8.53494L5.43458 8.18191C5.39208 8.1549 5.01207 7.90039 4.49872 7.90039C4.07622 7.90039 3.68441 8.07166 3.36218 8.40001C2.57618 9.19755 1.87162 9.26201 1.84563 9.26317L1.29688 9.29485L1.52232 9.79564C1.74884 10.2917 2.34248 10.6529 2.93381 10.6529ZM3.63243 8.66502C3.92512 8.36601 4.23317 8.27687 4.49872 8.27687C4.90703 8.27687 5.21623 8.49265 5.21623 8.49265C4.11162 9.07791 3.88502 10.0149 3.25359 10.226C3.14977 10.2624 3.04118 10.2789 2.93381 10.2789C2.46997 10.2789 2.02148 9.98091 1.86808 9.6396C1.86808 9.63849 2.71778 9.58686 3.63243 8.66502Z" fill="black"/>
<path d="M5.41089 15.0208C5.35189 13.6041 5.71778 12.4548 6.2913 11.5084C5.97146 12.4947 6.01515 13.7026 7.1033 14.8297C7.1033 14.8297 4.9388 12.2531 7.96477 9.61196C9.17571 8.60694 10.4999 7.9865 11.1809 7.54673C8.71779 8.34537 7.51513 7.46582 7.51513 7.46582C8.30112 8.14371 9.31968 8.13193 9.9523 8.0334C9.78115 8.1167 9.60172 8.2035 9.41167 8.30553C7.33226 9.42786 5.46635 11.2727 5.1465 13.827V13.807C4.66384 16.3155 3.58984 16.9594 3.58984 16.9594C4.44433 16.5407 4.98253 15.429 5.11349 15.0278C5.25633 17.2326 6.33849 18.7632 7.60485 20.2361C8.26221 20.9996 8.49356 21.742 8.49356 21.742C8.49356 21.742 8.36493 20.9011 7.7949 20.2162C6.61587 18.8077 5.49349 17.0509 5.41089 15.0208Z" fill="black"/>
<path d="M15.0664 9.85254V10.3592C15.2423 10.1469 15.5822 10.1902 15.5822 10.1902V10.9209C15.5822 10.9209 15.5703 11.2797 15.4417 11.4358H15.8099H16.177C16.0507 11.281 16.0377 10.9209 16.0377 10.9209V10.1902C16.0377 10.1902 16.3776 10.1469 16.5523 10.3592V9.85254H15.8099H15.0664Z" fill="black"/>
<path d="M14.75 6.84748C14.9849 7.03275 15.1206 7.06332 15.1253 7.06676L15.2174 7.10905V6.63171L14.3535 6.27051C14.3535 6.27167 14.3617 6.54724 14.75 6.84748Z" fill="black"/>
<path d="M16.804 6.84846C17.1947 6.54822 17.2017 6.27148 17.2017 6.27148L16.3379 6.63268V7.11003L16.4287 7.06773C16.4347 7.06429 16.5692 7.03373 16.804 6.84846Z" fill="black"/>
<path d="M18.3616 4.90483C18.3616 4.18123 17.1353 3.53027 15.7816 3.53027H15.7805H15.777H15.7734C14.4197 3.53027 13.1935 4.18123 13.1935 4.90483L13.2207 5.08307L13.7612 8.16628L13.2184 8.47941L11.8139 9.29451H11.8187C11.8187 9.29451 11.5024 9.45516 11.356 9.55479C10.8214 9.92427 10.7081 10.4626 11.0184 10.6854C11.0952 10.2468 11.4445 9.78701 12.0983 9.78701C12.5692 9.78701 12.928 10.0287 13.2184 10.391C13.2927 10.4825 13.3635 10.5798 13.4296 10.6854C13.511 10.8179 13.5924 10.934 13.6739 11.0466H10.0566C10.3222 11.5778 10.5747 12.1408 10.5747 12.7518V20.7079C10.5747 22.6336 12.0653 23.5531 13.6774 23.5531C14.9237 23.5531 15.0913 23.4968 15.7794 24.177C16.4639 23.4956 16.6314 23.5531 17.8789 23.5531C19.4922 23.5531 20.9804 22.6336 20.9804 20.7079V12.7518C20.9804 12.1408 21.233 11.5778 21.4997 11.0466H17.8812C17.9615 10.9352 18.0429 10.8179 18.1243 10.6854C18.1916 10.5798 18.2612 10.4825 18.3344 10.391C18.6271 10.0275 18.9847 9.78701 19.4556 9.78701C20.1094 9.78701 20.4576 10.2456 20.5355 10.6854C20.8459 10.4626 20.7337 9.92427 20.1956 9.55479C20.0516 9.45516 19.7352 9.29451 19.7352 9.29451H19.74L18.3356 8.47941L17.7951 8.16628L18.3356 5.08307L18.3616 4.90483ZM13.7257 5.2637L15.6259 5.904V8.8699L14.2274 8.137L13.7257 5.2637ZM14.1188 11.5638C14.4304 11.8723 14.7361 12.0635 15.0263 12.1689C14.9885 12.3179 14.9391 12.6252 15.0795 12.9313C15.1939 13.1775 15.4017 13.3675 15.7002 13.4942C15.7333 13.7991 15.9268 14.2577 16.4639 14.4606C16.229 14.6963 16 14.9179 15.9068 15.0082L13.7293 14.9742C13.6798 14.9496 13.596 14.8944 13.5583 14.8159C13.5535 14.8054 13.5464 14.7995 13.5429 14.7878L13.8981 14.8453C13.9064 14.8464 13.9134 14.8464 13.9205 14.8464C13.989 14.8464 14.0491 14.7995 14.061 14.7291C14.0728 14.6506 14.0197 14.579 13.943 14.5673L13.5063 14.4992L13.9913 12.8351L13.5323 11.8745L12.7959 12.6486L12.7509 14.3797L12.2565 14.3022C12.1797 14.287 12.1066 14.3433 12.0936 14.4195C12.0818 14.4957 12.1337 14.5673 12.2116 14.5813L12.4193 14.613C12.345 14.6552 12.2966 14.6881 12.2907 14.6928L12.2482 14.7221L12.2364 14.7737C12.116 15.2592 12.3886 15.7201 12.6826 15.9265L12.6719 15.9875C12.6601 16.0626 12.6766 16.1353 12.7215 16.1963C12.7639 16.2585 12.83 16.296 12.9032 16.3089C12.9186 16.3112 12.935 16.3124 12.9493 16.3124C13.0767 16.3124 13.1877 16.2244 13.2195 16.0966C13.3293 16.1095 13.4296 16.1118 13.498 16.1118H13.5559L16.4131 16.6243L16.4615 16.5926C16.6892 16.4344 17.5567 15.8057 17.8411 15.5982C17.919 15.665 18.0063 15.726 18.1125 15.7764C18.0205 16.0837 18.0146 16.5563 18.3793 16.9292H11.0975V12.753C11.0975 12.3484 10.9784 11.9414 10.8379 11.5661H14.1188V11.5638ZM17.6499 15.3847C17.3608 15.5958 16.6173 16.1353 16.3482 16.3229L13.7518 15.8597C13.7577 15.8362 13.7635 15.814 13.7695 15.7905C13.8037 15.6568 13.8379 15.4738 13.8403 15.2592L16.0224 15.2944L16.0637 15.2522C16.0968 15.2193 16.7884 14.5556 17.1413 14.1733C17.225 14.2776 17.33 14.3773 17.467 14.4652C17.4198 14.7185 17.4398 15.0798 17.6499 15.3847ZM13.3033 14.9379C13.3647 15.0657 13.4756 15.1513 13.5523 15.1994C13.5499 15.3191 13.5381 15.5055 13.5063 15.6696C13.4992 15.7061 13.4898 15.7401 13.4791 15.7741C13.4733 15.7952 13.4673 15.8127 13.4626 15.8268C13.3482 15.8268 13.1227 15.8127 12.9386 15.7459C12.7345 15.6709 12.43 15.299 12.5007 14.8898C12.5893 14.8358 12.7935 14.7221 12.9847 14.7221C13.1322 14.7209 13.2325 14.7901 13.3033 14.9379ZM13.033 14.4231L13.0767 12.7612L13.452 12.366L13.6881 12.8562L13.223 14.4512L13.033 14.4231ZM17.6263 23.0382C17.4847 23.0382 17.3537 23.0406 17.2357 23.0452L17.5449 22.0895C17.5933 21.957 17.3489 21.7869 17.2486 21.638C17.4009 21.7329 17.7951 21.9405 17.9851 22.0238C17.9651 22.0543 17.6263 23.0382 17.6263 23.0382ZM18.5964 21.9523L18.3946 22.9983C18.266 23.0159 18.1291 23.0254 17.9886 23.0312L18.2011 22.0249C18.2648 21.7259 17.4564 21.6333 17.0575 21.0457C16.8627 21.2638 16.4957 21.3283 16.1275 21.3283C15.7912 21.3283 15.4548 21.2744 15.2506 21.2345C15.1987 21.2263 15.1491 21.2204 15.1007 21.2204C14.9827 21.2204 14.8753 21.2568 14.8009 21.3811L14.7419 21.4796L13.6409 21.2216L13.3671 21.672C13.3281 21.7446 13.3257 21.8068 13.3883 21.8748L13.4626 21.9558C13.4119 22.1152 13.183 22.3556 13.183 22.3556L13.0189 22.1528C12.889 22.0085 12.9103 21.7458 13.046 21.5019L13.4827 20.7689L14.4151 20.9027L14.2699 20.5742C14.0752 20.1403 14.3714 19.5879 14.4032 19.2701C14.3926 19.3663 14.3041 19.3874 14.2002 19.3874C14.1058 19.3874 14.0008 19.3698 13.9311 19.3698C13.904 19.3698 13.8804 19.3722 13.8674 19.3816L13.6149 19.5339L13.4154 19.3593C13.3918 19.3253 13.3836 19.2466 13.4425 19.188L13.904 18.6744L13.3588 18.0422L14.1224 18.4234L14.3548 18.143C14.4186 18.2052 14.3914 18.3683 14.3914 18.3683C14.6299 18.3741 15.2978 18.7412 15.3332 19.5973C15.3356 19.6231 15.3356 19.6524 15.3356 19.6806C15.3356 19.6806 15.3415 19.6911 15.3533 19.7087C15.4005 19.7732 15.5303 19.9386 15.6955 19.9538L16.7506 20.057H16.7553C16.871 20.057 17.1011 19.9222 17.3961 19.9222C17.5567 19.9222 17.736 19.9633 17.9273 20.0828C17.9273 20.0828 18.0228 20.0078 18.1786 19.9995C18.1904 19.9984 18.2035 19.9984 18.2153 19.9984C18.6885 19.9984 18.8844 20.4229 19.1381 20.7759C19.3294 21.0445 19.5843 21.4432 19.5843 21.4432C19.4898 21.5547 19.4025 21.6157 19.2562 21.6157C19.2161 21.6157 19.17 21.6121 19.1204 21.6027C18.6129 21.5101 18.5398 20.4734 18.2507 20.3913C18.2353 20.3866 18.2188 20.3854 18.2046 20.3854C18.1114 20.3854 18.0701 20.4675 18.0701 20.4675C18.2022 20.8205 18.1255 20.9636 18.2672 21.2357C18.3733 21.4373 18.5622 21.6039 18.64 21.6825C18.64 21.6849 18.6189 21.8373 18.5964 21.9523ZM12.9304 20.9624L12.9787 21.0832C12.9469 21.1888 12.5811 21.3389 12.5811 21.3389L12.5019 21.1677C12.4181 20.9847 12.4358 20.6763 12.6908 20.4874L13.2832 20.1286L13.9111 20.2611C13.8993 20.4593 14.0185 20.6071 14.0185 20.6071L13.3599 20.4816L12.9658 20.7525C12.8997 20.7982 12.895 20.8838 12.9304 20.9624ZM18.6956 22.9409L18.8762 22.005C18.8856 21.9499 18.8973 21.8854 18.9056 21.8315C18.9564 21.8526 19.0107 21.8701 19.0697 21.8807C19.1369 21.8936 19.1995 21.8995 19.2562 21.8995C19.5324 21.8995 19.6928 21.7552 19.8002 21.6321L19.9395 21.4714L19.8262 21.2955C19.8156 21.2779 19.5654 20.8838 19.3718 20.6141C19.334 20.5614 19.2974 20.5085 19.2609 20.451C19.0414 20.1251 18.7664 19.7158 18.2153 19.7158L18.1657 19.7169C18.0748 19.7228 17.9969 19.7404 17.9344 19.7639C17.7608 19.683 17.5826 19.6418 17.3973 19.6418C17.1696 19.6418 16.9772 19.704 16.8497 19.7474C16.8132 19.758 16.7801 19.7697 16.7542 19.7744L15.7238 19.6736C15.7109 19.6712 15.6684 19.6466 15.6176 19.5856V19.5809L15.8407 19.4918C15.7781 18.7541 15.0653 18.3002 14.6676 18.1466C14.6499 18.0727 14.6145 17.9988 14.552 17.939L14.3301 17.7303L14.1353 17.9625L14.0398 18.0809L12.5976 17.4921L13.5358 18.6627L13.1652 19.2197C13.0295 19.3627 13.1794 19.5058 13.1794 19.5058L13.5617 19.7673L13.9583 19.6208C13.9724 19.6208 13.9843 19.6243 13.9972 19.6255C13.9784 19.6853 13.9536 19.9198 13.937 19.9855L13.249 19.8506L12.5255 20.2564C12.1538 20.5273 12.103 20.9765 12.2412 21.2838L12.3214 21.4585L12.4358 21.7047L12.6884 21.6004C12.692 21.5993 12.6955 21.5981 12.6978 21.5957C12.607 21.8842 12.6436 22.1586 12.8064 22.3393L12.9598 22.5316L13.1641 22.7884L13.3883 22.5492C13.4544 22.4835 13.668 22.2454 13.7341 22.0413L13.7824 21.8854L13.6727 21.7658L13.655 21.7446L13.7778 21.5429L14.6758 21.7529L14.8777 21.7986L14.985 21.6227L15.0441 21.5265C15.0547 21.5066 15.0582 21.5031 15.0996 21.5031C15.1314 21.5031 15.1633 21.5066 15.1975 21.5136C15.5362 21.577 15.8489 21.6086 16.1263 21.6086C16.3954 21.6086 16.5558 21.5981 16.7482 21.5347C16.7482 21.5347 17.2309 22.0789 17.2474 22.1001L16.9525 23.0053L16.9394 23.0605C16.38 23.1051 16.1074 23.227 15.7781 23.5543C15.3002 23.0828 14.9614 23.0335 13.6763 23.0335C12.1384 23.0335 11.0964 22.1375 11.0964 20.7067V17.2084H20.4576L20.46 20.7067C20.4611 21.8678 19.7754 22.677 18.6956 22.9409ZM20.7196 11.5638C20.5768 11.9391 20.4576 12.346 20.4576 12.7506L20.4588 15.3612C19.91 15.2698 19.8451 14.6822 19.8427 14.6564L19.8321 14.5368L19.7141 14.5262C19.4757 14.504 19.3175 14.4031 19.1842 14.2741C18.9151 14.0067 18.9139 13.5727 18.9151 13.5693C18.9116 13.5916 18.6189 13.9985 18.9588 14.4429C19.1015 14.6306 19.3081 14.7455 19.576 14.7913C19.6385 15.1173 19.8828 15.5771 20.4588 15.6474V16.9257H18.8395C18.0925 16.5129 18.4087 15.7858 18.4241 15.7553L18.4878 15.6169L18.345 15.563C17.5366 15.265 17.7585 14.463 17.7703 14.4289L17.8033 14.3116L17.6936 14.26C17.0255 13.9528 17.1165 13.1236 17.1248 13.0896C16.9194 13.255 16.845 13.5927 16.9866 13.9234C16.9099 14.0102 16.8073 14.1158 16.6951 14.2307C16.0035 14.056 15.9824 13.4238 15.9824 13.3945L15.9811 13.2972L15.8903 13.262C15.62 13.1623 15.4347 13.0133 15.3438 12.8128C15.2412 12.5912 15.2777 12.3589 15.3061 12.2476C15.3852 12.2651 15.4642 12.278 15.5397 12.2839C15.6176 12.2921 15.6979 12.2968 15.7781 12.2968H15.7829H15.7888C15.869 12.2968 15.9481 12.2921 16.026 12.2839C16.4567 12.2417 16.9394 12.0576 17.4422 11.5627H20.7196V11.5638ZM18.1964 8.92508L18.836 9.29451H18.8454L19.006 9.38714C18.6448 9.48689 18.3687 9.66626 18.1374 9.90199C18.1291 9.90905 18.1209 9.91838 18.1125 9.92666C18.0594 9.98296 18.0063 10.0439 17.9568 10.106C17.9473 10.1178 17.9379 10.1307 17.9273 10.1436C17.8777 10.2069 17.8317 10.2714 17.7868 10.3394C17.7797 10.3512 17.7715 10.3629 17.7632 10.3734C17.7101 10.452 17.6594 10.5365 17.6086 10.6233C17.1531 11.4031 16.4261 11.8687 15.7794 11.8699C15.1338 11.8687 14.4068 11.4031 13.9512 10.6233C13.9016 10.5388 13.8521 10.4567 13.799 10.377C13.7883 10.3617 13.7789 10.3464 13.7695 10.3335C13.7246 10.2691 13.6798 10.2058 13.6338 10.1459C13.622 10.1295 13.6113 10.1166 13.5995 10.1026C13.5499 10.0427 13.4992 9.98296 13.4484 9.92777C13.4379 9.91955 13.4308 9.90905 13.4201 9.89966C13.1877 9.66393 12.9126 9.48561 12.5503 9.38714L12.7132 9.29451H12.7203L13.3599 8.92508L14.0173 8.55093L15.7734 9.50089L15.777 9.49733L15.7816 9.50089L17.5378 8.55093L18.1964 8.92508ZM17.33 8.13816L15.9304 8.87106V5.904L17.8293 5.2637L17.33 8.13816ZM15.7781 5.578L13.6963 4.76053C13.8733 4.34419 14.69 3.99003 15.7781 3.98887C16.8675 3.99003 17.6841 4.34419 17.86 4.76053L15.7781 5.578Z" fill="black"/>
<path d="M41.5577 17.9899V13.2939H44.3296V11.5851H36.7676V13.2939H39.5394V17.9899H41.5577ZM47.1557 11.5851H45.1374V17.9899H47.1557V11.5851ZM48.6326 11.5851V17.9899H50.4895V14.4511L53.9476 17.9899H55.6699V11.5851H53.8129V15.097L50.4357 11.5851H48.6326ZM59.6369 15.5679L61.9644 17.9899H64.5614L61.3187 14.6529L64.4401 11.5851H61.9913L59.6369 13.9936H59.0985V11.5851H57.1474V17.9899H59.0985V15.5679H59.6369ZM68.5759 11.4102C65.9521 11.4102 64.3777 12.8902 64.3777 14.8009C64.3777 16.7116 65.9521 18.1917 68.5759 18.1917C71.1869 18.1917 72.7608 16.7116 72.7608 14.8009C72.7608 12.8902 71.1869 11.4102 68.5759 11.4102ZM68.5759 16.6309C67.271 16.6309 66.4363 15.8504 66.4363 14.8009C66.4363 13.7514 67.271 12.9844 68.5759 12.9844C69.868 12.9844 70.7156 13.7514 70.7156 14.8009C70.7156 15.8504 69.868 16.6309 68.5759 16.6309ZM80.1598 11.5851H73.6877V17.9899H75.6383V15.7563H79.8774V14.3434H75.6383V13.2132H80.1598V11.5851ZM87.5051 11.5851H81.0324V17.9899H82.9837V15.7563H87.2228V14.3434H82.9837V13.2132H87.5051V11.5851Z" fill="black"/>
</g>
<defs>
<clipPath id="clip0_120_8297">
<rect width="87.5583" height="28" fill="white"/>
</clipPath>
</defs>
</svg>
