<svg width="11" height="9" viewBox="0 0 11 9" fill="none" xmlns="http://www.w3.org/2000/svg">
<path d="M9.75208 0.119019H1.24788C1.06853 0.119231 0.896586 0.194437 0.769767 0.328138C0.642948 0.461839 0.571612 0.643115 0.571411 0.832197V8.16774C0.571612 8.35683 0.642948 8.5381 0.769767 8.6718C0.896586 8.8055 1.06853 8.88071 1.24788 8.88092H9.75208C9.93143 8.88071 10.1034 8.8055 10.2302 8.6718C10.357 8.5381 10.4284 8.35683 10.4286 8.16774V0.832197C10.4284 0.643115 10.357 0.461839 10.2302 0.328138C10.1034 0.194437 9.93143 0.119231 9.75208 0.119019ZM9.84872 8.16774C9.84869 8.19476 9.8385 8.22065 9.82038 8.23975C9.80226 8.25885 9.7777 8.26959 9.75208 8.26963H1.24788C1.22226 8.26959 1.1977 8.25885 1.17958 8.23975C1.16147 8.22065 1.15128 8.19476 1.15124 8.16774V0.832197C1.15128 0.805187 1.16147 0.779293 1.17958 0.760194C1.1977 0.741095 1.22226 0.730349 1.24788 0.730314H9.75208C9.7777 0.730349 9.80226 0.741095 9.82038 0.760194C9.8385 0.779293 9.84869 0.805187 9.84872 0.832197V8.16774ZM8.3025 2.86985C8.3025 2.95091 8.27195 3.02865 8.21758 3.08597C8.16322 3.14329 8.08948 3.17549 8.01259 3.1755H2.98738C2.91049 3.1755 2.83675 3.14329 2.78238 3.08597C2.72801 3.02865 2.69746 2.95091 2.69746 2.86985C2.69746 2.78879 2.72801 2.71104 2.78238 2.65372C2.83675 2.5964 2.91049 2.5642 2.98738 2.5642H8.01259C8.08948 2.56421 8.16322 2.59641 8.21758 2.65373C8.27195 2.71105 8.3025 2.78879 8.3025 2.86985ZM8.3025 4.49997C8.3025 4.58103 8.27195 4.65877 8.21758 4.71609C8.16322 4.77341 8.08948 4.80561 8.01259 4.80562H2.98738C2.91049 4.80562 2.83675 4.77342 2.78238 4.7161C2.72801 4.65878 2.69746 4.58103 2.69746 4.49997C2.69746 4.41891 2.72801 4.34117 2.78238 4.28385C2.83675 4.22653 2.91049 4.19432 2.98738 4.19432H8.01259C8.08948 4.19433 8.16322 4.22653 8.21758 4.28385C8.27195 4.34117 8.3025 4.41891 8.3025 4.49997ZM8.3025 6.13009C8.3025 6.21115 8.27195 6.28889 8.21758 6.34621C8.16322 6.40353 8.08948 6.43574 8.01259 6.43574H2.98738C2.91049 6.43574 2.83675 6.40354 2.78238 6.34622C2.72801 6.2889 2.69746 6.21116 2.69746 6.13009C2.69746 6.04903 2.72801 5.97129 2.78238 5.91397C2.83675 5.85665 2.91049 5.82444 2.98738 5.82444H8.01259C8.08948 5.82445 8.16322 5.85665 8.21758 5.91397C8.27195 5.97129 8.3025 6.04903 8.3025 6.13009Z" fill="#323232"/>
</svg>
